<?xml version="1.0" standalone="no"?>
<!DOCTYPE svg PUBLIC "-//W3C//DTD SVG 1.1//EN" "http://www.w3.org/Graphics/SVG/1.1/DTD/svg11.dtd" >
<svg xmlns="http://www.w3.org/2000/svg">
<metadata></metadata>
<defs>
<font id="elysiothin" horiz-adv-x="987" >
<font-face units-per-em="2048" ascent="1536" descent="-512" />
<missing-glyph horiz-adv-x="399" />
<glyph unicode="&#xfb01;" horiz-adv-x="933" d="M37 969v61h180v287q0 133 63 199.5t175 66.5q44 0 98 -14l-6 -66q-51 15 -86 15q-82 0 -127 -50t-45 -149v-289h227v-61h-227v-969h-72v969h-180zM676 1419q0 25 17.5 43.5t41.5 18.5q25 0 42.5 -18.5t17.5 -43.5t-17.5 -42t-42.5 -17q-26 0 -42.5 17t-16.5 42zM698 0 v1030h72v-1030h-72z" />
<glyph horiz-adv-x="0" />
<glyph horiz-adv-x="682" />
<glyph unicode="&#xd;" horiz-adv-x="1228" />
<glyph unicode=" "  horiz-adv-x="399" />
<glyph unicode="&#x09;" horiz-adv-x="399" />
<glyph unicode="&#xa0;" horiz-adv-x="399" />
<glyph unicode="!" horiz-adv-x="440" d="M158 45q0 25 17.5 44.5t43.5 19.5t45 -19.5t19 -44.5q0 -26 -19 -44.5t-45 -18.5t-43.5 18.5t-17.5 44.5zM180 369v1163h78v-1163h-78z" />
<glyph unicode="&#x22;" horiz-adv-x="526" d="M100 1497h99l-15 -379h-69zM328 1497h98l-14 -379h-70z" />
<glyph unicode="#" horiz-adv-x="983" d="M31 463l6 59h215l70 490h-213l8 59h213l65 461h62l-66 -461h285l67 461h62l-68 -461h215l-6 -59h-215l-72 -490h215l-6 -59h-215l-65 -463h-62l66 463h-285l-67 -463h-62l68 463h-215zM313 522h287l70 490h-287z" />
<glyph unicode="$" horiz-adv-x="1062" d="M96 113l17 77q166 -135 393 -135q156 0 250 92.5t94 253.5q0 60 -10.5 106.5t-33 80t-49 58t-67.5 44t-80 34.5t-94 33q-7 2 -10 3q-157 55 -214 88q-117 68 -148 188q-13 51 -13 115q0 178 99 286.5t276 112.5v222h61v-224q140 -11 287 -94l-14 -76q-148 99 -314 99 q-151 0 -234 -88t-83 -238q0 -63 18 -111.5t40 -77.5t70.5 -56t80.5 -39t99 -34q20 -7 30 -10q47 -16 73.5 -25.5t65.5 -26t61 -29t51.5 -32.5t46 -40.5t35 -48.5t27.5 -59.5t15 -71.5t6 -87q0 -179 -99 -289.5t-262 -129.5v-226h-61v224q-128 0 -225 33.5t-185 97.5z" />
<glyph unicode="%" horiz-adv-x="1495" d="M123 1059v225q0 121 65.5 193.5t182.5 72.5q115 0 180 -72.5t65 -193.5v-225q0 -120 -65 -192t-180 -72q-117 0 -182.5 72t-65.5 192zM184 1065q0 -97 49 -154t138 -57q88 1 136 57.5t48 153.5v215q0 97 -48 154t-136 57q-89 0 -138 -57t-49 -154v-215zM350 0l727 1532 h68l-727 -1532h-68zM877 248v225q0 120 65 192t182 72q115 0 180.5 -72t65.5 -192v-225q0 -120 -65.5 -193t-180.5 -73q-116 0 -181.5 72.5t-65.5 193.5zM938 252q0 -97 48.5 -154t137.5 -57q88 0 136.5 57t48.5 154v215q0 97 -48.5 154t-136.5 57q-89 0 -137.5 -57 t-48.5 -154v-215z" />
<glyph unicode="&#x26;" horiz-adv-x="1079" d="M127 377v65q0 163 71 262t183 127q-88 29 -146.5 104t-58.5 210v59q0 176 82.5 261t235.5 85q69 0 127 -12l-11 -70q-59 13 -112 13q-246 0 -246 -281v-63q0 -134 74 -204.5t184 -70.5h190v438h70v-438h256v-67h-256v-617q0 -58 36.5 -90.5t100.5 -32.5q54 0 115 21 l6 -70q-58 -20 -129 -20q-77 0 -125.5 34t-58.5 95q-27 -55 -96 -94t-162 -39q-147 0 -238.5 100.5t-91.5 294.5zM203 383q0 -162 75.5 -246t192.5 -84q93 0 161 53t68 125v564h-213q-123 0 -203.5 -91.5t-80.5 -257.5v-63z" />
<glyph unicode="'" horiz-adv-x="299" d="M100 1497h99l-15 -379h-69z" />
<glyph unicode="(" horiz-adv-x="448" d="M88 655q0 236 70 449.5t180 372.5l63 -23q-107 -155 -174 -362t-67 -437t67 -435.5t174 -360.5l-63 -25q-110 161 -180 373t-70 448z" />
<glyph unicode=")" horiz-adv-x="448" d="M47 -141q107 157 174.5 362t67.5 434t-68 435.5t-174 363.5l62 23q110 -158 180.5 -371.5t70.5 -450.5t-70 -449t-181 -372z" />
<glyph unicode="*" horiz-adv-x="577" d="M31 1333l14 43l223 -73l-2 235h45v-235l221 73l15 -43l-221 -73l139 -185l-37 -28l-139 184l-137 -187l-39 31l139 185z" />
<glyph unicode="+" horiz-adv-x="1116" d="M139 723v65h385v445h70v-445h383v-65h-383v-461h-70v461h-385z" />
<glyph unicode="," horiz-adv-x="346" d="M80 -244q102 89 102 230h-6q-27 0 -46 19t-19 46q0 28 18 48t45 20q32 0 49 -22.5t17 -61.5q0 -210 -160 -318v39z" />
<glyph unicode="-" horiz-adv-x="604" d="M70 502v67h462v-67h-462z" />
<glyph unicode="." horiz-adv-x="350" d="M106 51q0 29 20 49.5t48 20.5q31 0 51.5 -20.5t20.5 -49.5t-20.5 -49t-51.5 -20q-28 0 -48 20t-20 49z" />
<glyph unicode="/" horiz-adv-x="651" d="M27 -137l524 1669h72l-521 -1669h-75z" />
<glyph unicode="0" horiz-adv-x="1095" d="M127 494v544q0 242 109 377t311 135q203 0 312.5 -135t109.5 -377v-544q0 -240 -110.5 -376t-311.5 -136q-200 0 -310 136t-110 376zM203 494q0 -208 89 -324.5t255 -116.5t255 116.5t89 324.5v544q0 211 -88.5 326t-255.5 115t-255.5 -115t-88.5 -326v-544z" />
<glyph unicode="1" horiz-adv-x="663" d="M59 1130v93l371 309h66v-1532h-76v1432z" />
<glyph unicode="2" horiz-adv-x="1067" d="M166 0v61l440 574q121 156 174.5 266t53.5 248q0 153 -84 240.5t-238 87.5q-162 0 -313 -99l-13 72q162 100 332 100q183 0 287 -107.5t104 -289.5q0 -83 -16 -154t-52 -141t-75 -126.5t-104 -139.5l-404 -522h676v-70h-768z" />
<glyph unicode="3" d="M121 111l16 75q136 -133 334 -133q145 0 234.5 88t89.5 246v59q0 149 -78.5 235.5t-208.5 86.5h-182v68h184q102 0 178 86.5t76 210.5v47q0 139 -82 218t-209 79q-191 0 -315 -127l-19 73q133 127 338 127q158 0 260.5 -98.5t102.5 -267.5v-47q0 -114 -60 -205t-151 -127 q110 -27 176.5 -123t66.5 -238v-61q0 -186 -111 -293.5t-286 -107.5q-212 0 -354 129z" />
<glyph unicode="4" horiz-adv-x="1011" d="M72 430v64l557 1038h73v-1032h242v-70h-242v-430h-73v430h-557zM152 500h477v878z" />
<glyph unicode="5" horiz-adv-x="956" d="M111 111l20 75q133 -133 328 -133q143 0 228 82.5t85 237.5v63q0 166 -91.5 258t-258.5 92h-264v746h651v-70h-576v-606h209q190 0 298 -111.5t108 -302.5v-71q0 -187 -105.5 -288t-279.5 -101q-210 0 -352 129z" />
<glyph unicode="6" horiz-adv-x="1030" d="M129 492v589q0 207 108 338t281 131q195 0 340 -125l-16 -75q-130 127 -322 127q-140 0 -227.5 -108t-87.5 -282v-317q63 68 140 106.5t187 38.5q159 0 266 -111t107 -294v-113q0 -184 -102.5 -299.5t-276.5 -115.5q-189 0 -286 124q-111 138 -111 386zM205 471 q0 -197 84 -313q82 -105 237 -105q139 0 221 96t82 248v111q0 152 -88 244t-217 92q-61 0 -110.5 -13.5t-88 -41t-64 -53.5t-56.5 -66v-199z" />
<glyph unicode="7" horiz-adv-x="849" d="M59 1464v68h734v-64l-551 -1468h-80l551 1464h-654z" />
<glyph unicode="8" horiz-adv-x="1075" d="M143 391v47q0 138 66 236.5t164 136.5q-90 32 -147.5 122t-57.5 210v41q0 161 100.5 263.5t270.5 102.5t269 -102t99 -264v-41q0 -120 -57.5 -210t-147.5 -122q99 -38 165.5 -136.5t66.5 -236.5v-47q0 -180 -103 -294.5t-292 -114.5q-127 0 -218 55t-134.5 146t-43.5 208 zM219 393q0 -150 82.5 -245t237.5 -95q154 0 236.5 95.5t82.5 244.5v43q0 152 -87 243t-232 91t-232.5 -91t-87.5 -243v-43zM244 1143q0 -131 75.5 -216t217.5 -85t218 85t76 216v37q0 133 -79.5 216t-214.5 83q-133 0 -213 -83.5t-80 -215.5v-37z" />
<glyph unicode="9" horiz-adv-x="1030" d="M123 1022v113q0 184 102.5 299.5t276.5 115.5q188 0 286 -125q111 -138 111 -385v-589q0 -207 -108 -338t-281 -131q-196 0 -340 124l16 76q130 -127 322 -127q140 0 227.5 107.5t87.5 281.5v318q-63 -69 -140.5 -107.5t-186.5 -38.5q-159 0 -266 111.5t-107 294.5z M199 1024q0 -152 88 -244t217 -92q61 0 110.5 13.5t88 41t64 53.5t56.5 66v199q0 197 -84 313q-82 105 -237 105q-139 0 -221 -96t-82 -248v-111z" />
<glyph unicode=":" horiz-adv-x="350" d="M106 51q0 29 20 49.5t48 20.5q31 0 51.5 -20.5t20.5 -49.5t-20.5 -49t-51.5 -20q-28 0 -48 20t-20 49zM106 979q0 29 20 49.5t48 20.5q31 0 51.5 -20.5t20.5 -49.5t-20.5 -49.5t-51.5 -20.5q-28 0 -48 20.5t-20 49.5z" />
<glyph unicode=";" horiz-adv-x="350" d="M80 -244q102 89 102 230h-6q-27 0 -46 19t-19 46q0 28 18 48t45 20q32 0 49 -22.5t17 -61.5q0 -210 -160 -318v39zM106 979q0 29 20 49.5t48 20.5q31 0 51.5 -20.5t20.5 -49.5t-20.5 -49.5t-51.5 -20.5q-28 0 -48 20.5t-20 49.5z" />
<glyph unicode="&#x3c;" horiz-adv-x="1026" d="M53 756l899 413l4 -77l-755 -336l755 -336l-4 -78z" />
<glyph unicode="=" horiz-adv-x="1116" d="M70 475v68h974v-68h-974zM70 956v70h974v-70h-974z" />
<glyph unicode="&#x3e;" horiz-adv-x="1026" d="M70 420l755 336l-755 336l4 77l899 -413l-899 -414z" />
<glyph unicode="?" horiz-adv-x="737" d="M59 1473q138 77 283 77q153 0 246.5 -93.5t93.5 -258.5q0 -115 -30 -192t-85 -156q-8 -11 -32 -43t-33.5 -45.5t-28.5 -43.5t-27 -51.5t-19 -53.5t-15 -66.5t-4 -73.5v-104h-76v106q0 36 4.5 70t9.5 59.5t17 55t19.5 46t26 44t26 38t29.5 39.5t28 37q54 75 83 149t29 183 q0 136 -72.5 211.5t-197.5 75.5q-126 0 -262 -80zM305 45q0 25 18 44.5t44 19.5t44.5 -19.5t18.5 -44.5q0 -26 -18.5 -44.5t-44.5 -18.5t-44 18.5t-18 44.5z" />
<glyph unicode="@" horiz-adv-x="1548" d="M123 502q0 159 48 292.5t132.5 225.5t202.5 143t256 51q141 0 263.5 -51.5t210.5 -143t138.5 -225.5t50.5 -292q0 -196 -76 -296t-196 -100q-66 0 -110.5 27t-55.5 68q-52 -50 -108 -78.5t-134 -28.5q-125 0 -196.5 80t-71.5 213v252q0 134 71.5 214.5t196.5 80.5 q139 0 232 -100v86h57v-660q0 -40 32.5 -68t90.5 -28q96 0 151.5 82.5t55.5 255.5q0 297 -168 476t-434 179q-259 0 -418.5 -178.5t-159.5 -476.5q0 -148 43 -271t119.5 -206.5t182 -129t229.5 -45.5q220 0 391 113l18 -55q-90 -59 -186.5 -88t-222.5 -29q-135 0 -252 51 t-201.5 142.5t-133 225.5t-48.5 292zM539 389q0 -109 56.5 -173t160.5 -64q70 0 119.5 28.5t97.5 83.5v500q-52 56 -100.5 84.5t-116.5 28.5q-104 0 -160.5 -64.5t-56.5 -175.5v-248z" />
<glyph unicode="A" horiz-adv-x="1081" d="M45 0l451 1532h88l450 -1532h-78l-143 489h-545l-145 -489h-78zM287 561h510l-256 860z" />
<glyph unicode="B" horiz-adv-x="1103" d="M170 0v1532h379q188 0 298.5 -90.5t110.5 -263.5v-62q0 -127 -66.5 -210t-150.5 -109q106 -28 181 -118t75 -233v-73q0 -185 -121 -279t-337 -94h-369zM246 72h286q182 0 286 75.5t104 231.5v65q0 312 -383 312h-293v-684zM246 825h293q157 0 249.5 71t92.5 220v51 q0 148 -93.5 220.5t-250.5 72.5h-291v-635z" />
<glyph unicode="C" horiz-adv-x="1073" d="M127 514v512q0 243 128.5 383.5t334.5 140.5q117 0 203.5 -30.5t162.5 -94.5l-20 -69q-67 63 -148.5 93t-191.5 30q-177 0 -285 -121.5t-108 -329.5v-516q0 -214 110 -335.5t291 -121.5q213 0 352 127l19 -73q-152 -125 -381 -125q-208 0 -337.5 141t-129.5 389z" />
<glyph unicode="D" horiz-adv-x="1185" d="M170 0v1532h362q242 0 384.5 -147t142.5 -408v-420q0 -262 -142.5 -409.5t-384.5 -147.5h-362zM246 72h282q211 0 332 128t121 359v418q0 229 -121 356t-332 127h-282v-1388z" />
<glyph unicode="E" horiz-adv-x="968" d="M170 0v1532h700v-72h-624v-631h598v-71h-598v-686h624v-72h-700z" />
<glyph unicode="F" horiz-adv-x="892" d="M170 0v1532h680v-72h-604v-647h565v-72h-565v-741h-76z" />
<glyph unicode="G" horiz-adv-x="1171" d="M127 514v512q0 243 129.5 383.5t335.5 140.5q116 0 206 -31t181 -98l-21 -65q-80 63 -165 93t-193 30q-177 0 -287 -121.5t-110 -329.5v-516q0 -215 106.5 -336t282.5 -121q106 0 188.5 32.5t163.5 102.5v459h-297v72h371v-574q-99 -86 -197.5 -124.5t-228.5 -38.5 q-207 0 -336 141t-129 389z" />
<glyph unicode="H" horiz-adv-x="1153" d="M170 0v1532h76v-694h661v694h76v-1532h-76v766h-661v-766h-76z" />
<glyph unicode="I" horiz-adv-x="415" d="M170 0v1532h76v-1532h-76z" />
<glyph unicode="J" horiz-adv-x="765" d="M31 47l20 74q84 -68 203 -68q129 0 202.5 87.5t73.5 248.5v1143h76v-1141q0 -196 -92.5 -302.5t-255.5 -106.5q-130 0 -227 65z" />
<glyph unicode="K" horiz-adv-x="999" d="M170 0v1532h76v-727h153l432 727h82l-448 -760l496 -772h-84l-476 733h-155v-733h-76z" />
<glyph unicode="L" horiz-adv-x="868" d="M170 0v1532h76v-1460h583v-72h-659z" />
<glyph unicode="M" horiz-adv-x="1556" d="M170 0v1532h76l532 -1393l533 1393h75v-1532h-75v1325l-508 -1325h-51l-506 1325v-1325h-76z" />
<glyph unicode="N" horiz-adv-x="1153" d="M170 0v1532h72l665 -1354v1354h76v-1532h-72l-665 1352v-1352h-76z" />
<glyph unicode="O" horiz-adv-x="1212" d="M127 532v467q0 254 124.5 402.5t354.5 148.5q229 0 354 -148.5t125 -402.5v-467q0 -257 -126 -403.5t-353 -146.5q-228 0 -353.5 146.5t-125.5 403.5zM203 535q0 -226 105 -354t296 -128q192 0 299 128t107 354v462q0 224 -105 353t-301 129q-194 0 -297.5 -129 t-103.5 -353v-462z" />
<glyph unicode="P" horiz-adv-x="1015" d="M170 0v1532h330q213 0 337 -98t124 -297v-58q0 -198 -124.5 -295.5t-336.5 -97.5h-254v-686h-76zM246 758h250q181 0 285 79t104 244v56q0 165 -104 244t-285 79h-250v-702z" />
<glyph unicode="Q" horiz-adv-x="1212" d="M127 532v467q0 254 124.5 402.5t354.5 148.5q229 0 354 -148.5t125 -402.5v-467q0 -314 -182 -458l221 -275l-59 -49l-227 283q-102 -51 -232 -51q-228 0 -353.5 146.5t-125.5 403.5zM203 535q0 -226 105 -354t296 -128q192 0 299 128t107 354v462q0 224 -105 353 t-301 129q-194 0 -297.5 -129t-103.5 -353v-462z" />
<glyph unicode="R" horiz-adv-x="1060" d="M170 0v1532h301q214 0 337.5 -95.5t123.5 -293.5v-58q0 -155 -76 -246.5t-215 -123.5l354 -715h-80l-350 700q-62 -4 -94 -4h-225v-696h-76zM246 768h223q180 0 283.5 77.5t103.5 241.5v54q0 164 -103.5 241.5t-283.5 77.5h-223v-692z" />
<glyph unicode="S" horiz-adv-x="1028" d="M96 113l17 77q166 -135 393 -135q156 0 250 92.5t94 253.5q0 60 -10.5 106.5t-33 80t-49 58t-67.5 44t-80 34.5t-94 33q-7 2 -10 3q-157 55 -214 88q-117 68 -148 188q-13 51 -13 115q0 183 103 291t288 108q166 0 332 -96l-14 -76q-148 99 -314 99q-151 0 -234 -88 t-83 -238q0 -63 18 -111.5t40 -77.5t70.5 -56t80.5 -39t99 -34q20 -7 30 -10q47 -16 73.5 -25.5t65.5 -26t61 -29t51.5 -32.5t46 -40.5t35 -48.5t27.5 -59.5t15 -71.5t6 -87q0 -196 -116 -308.5t-302 -112.5q-236 0 -414 131z" />
<glyph unicode="T" horiz-adv-x="983" d="M27 1460v72h927v-72h-426v-1460h-75v1460h-426z" />
<glyph unicode="U" horiz-adv-x="1148" d="M160 428v1104h76v-1102q0 -186 90 -281.5t247 -95.5t247.5 95.5t90.5 281.5v1102h76v-1104q0 -218 -111 -332t-303 -114t-302.5 114t-110.5 332z" />
<glyph unicode="V" horiz-adv-x="1015" d="M16 1532h78l414 -1411l414 1411h77l-448 -1532h-86z" />
<glyph unicode="W" horiz-adv-x="1703" d="M29 1532h77l351 -1389l360 1389h68l362 -1389l350 1389h80l-385 -1532h-86l-354 1370l-358 -1370h-80z" />
<glyph unicode="X" horiz-adv-x="999" d="M43 0l403 770l-399 762h84l369 -703l370 703h82l-399 -762l403 -770h-82l-374 711l-373 -711h-84z" />
<glyph unicode="Y" horiz-adv-x="960" d="M10 1532h82l389 -809l389 809h82l-434 -899v-633h-76v633z" />
<glyph unicode="Z" horiz-adv-x="958" d="M76 0v61l698 1399h-684v72h772v-62l-698 -1398h719v-72h-807z" />
<glyph unicode="[" horiz-adv-x="466" d="M129 -158v1628h291v-61h-219v-1505h219v-62h-291z" />
<glyph unicode="\" horiz-adv-x="651" d="M27 1532h73l523 -1669h-76z" />
<glyph unicode="]" horiz-adv-x="466" d="M49 -96h219v1505h-219v61h291v-1628h-291v62z" />
<glyph unicode="^" horiz-adv-x="1062" d="M68 768l462 784l463 -784h-80l-383 666l-383 -666h-79z" />
<glyph unicode="_" horiz-adv-x="1132" d="M70 0h993v-68h-993v68z" />
<glyph unicode="`" horiz-adv-x="368" d="M47 1528h84l193 -316h-62z" />
<glyph unicode="a" d="M123 356v318q0 171 89.5 273t246.5 102q93 0 161 -33.5t130 -93.5v108h71v-1030h-67v113q-62 -62 -131 -96.5t-164 -34.5q-156 0 -246 102.5t-90 271.5zM195 356q0 -141 72.5 -224t203.5 -83q84 0 147.5 38t131.5 112v630q-69 75 -132 113.5t-147 38.5q-131 0 -203.5 -84 t-72.5 -225v-316z" />
<glyph unicode="b" d="M166 0v1567h72v-645q62 61 129.5 94t160.5 33q157 0 246.5 -102t89.5 -273v-318q0 -169 -90 -271.5t-246 -102.5q-95 0 -164 34.5t-131 96.5v-113h-67zM238 199q69 -74 131.5 -112t146.5 -38q131 0 204 83.5t73 223.5v316q0 141 -73 225t-204 84q-84 0 -146 -38.5 t-132 -113.5v-630z" />
<glyph unicode="c" horiz-adv-x="790" d="M123 360v316q0 164 94 268.5t242 104.5q81 0 142 -19.5t122 -64.5l-18 -68q-107 84 -238 84q-120 0 -196 -88t-76 -225v-303q0 -139 78 -227.5t198 -88.5q136 0 248 84l16 -67q-63 -44 -127 -64t-145 -20q-149 0 -244.5 105t-95.5 273z" />
<glyph unicode="d" d="M123 356v318q0 171 89.5 273t246.5 102q93 0 161 -33.5t130 -93.5v645h71v-1567h-67v113q-62 -62 -131 -96.5t-164 -34.5q-156 0 -246 102.5t-90 271.5zM195 356q0 -141 72.5 -224t203.5 -83q84 0 147.5 38t131.5 112v630q-69 75 -132 113.5t-147 38.5q-131 0 -203.5 -84 t-72.5 -225v-316z" />
<glyph unicode="e" horiz-adv-x="909" d="M123 360v314q0 172 87.5 273.5t246.5 101.5q166 0 250 -100.5t84 -278.5v-162h-596v-146q0 -141 79.5 -228t214.5 -87q82 0 148 22t131 70l18 -65q-72 -48 -142.5 -70t-162.5 -22q-162 0 -260 104.5t-98 273.5zM195 573h528v105q0 144 -66 224.5t-200 80.5 q-125 0 -193.5 -83t-68.5 -222v-105z" />
<glyph unicode="f" horiz-adv-x="530" d="M37 963v67h180v287q0 133 63 199.5t175 66.5q40 0 106 -16l-10 -66q-54 15 -90 15q-82 0 -127 -50t-45 -149v-287h227v-67h-227v-963h-72v963h-180z" />
<glyph unicode="g" d="M123 356v318q0 171 89.5 273t246.5 102q93 0 161 -33.5t134 -95.5v110h67v-1188q0 -166 -97 -264t-253 -98q-103 0 -176 22t-145 72l22 68q66 -51 133.5 -74t159.5 -23q129 0 207 81t78 220v263q-62 -60 -130 -93.5t-161 -33.5q-156 0 -246 102.5t-90 271.5zM195 356 q0 -141 72.5 -224t203.5 -83q84 0 147.5 38t131.5 112v630q-69 75 -132 113.5t-147 38.5q-131 0 -203.5 -84t-72.5 -225v-316z" />
<glyph unicode="h" horiz-adv-x="956" d="M166 0v1567h72v-647q119 129 276 129q136 0 211.5 -90t75.5 -240v-719h-72v713q0 129 -55.5 198.5t-165.5 69.5q-144 0 -270 -156v-825h-72z" />
<glyph unicode="i" horiz-adv-x="399" d="M141 1419q0 25 17.5 43.5t42.5 18.5q24 0 41.5 -18.5t17.5 -43.5t-17 -42t-42 -17q-26 0 -43 17t-17 42zM164 0v1030h72v-1030h-72z" />
<glyph unicode="j" horiz-adv-x="399" d="M-109 -504l13 66q46 -17 88 -17q83 0 128.5 50t45.5 149v1286h72v-1284q0 -133 -64 -199.5t-176 -66.5q-37 0 -107 16zM141 1419q0 25 17.5 43.5t42.5 18.5q24 0 41.5 -18.5t17.5 -43.5t-17 -42t-42 -17q-26 0 -43 17t-17 42z" />
<glyph unicode="k" horiz-adv-x="813" d="M166 0v1567h72v-1008h100l340 471h80l-357 -500l390 -530h-82l-369 492h-102v-492h-72z" />
<glyph unicode="l" horiz-adv-x="401" d="M166 0v1567h72v-1567h-72z" />
<glyph unicode="m" horiz-adv-x="1513" d="M166 0v1030h67v-112q127 131 279 131q90 0 154.5 -41t97.5 -115q137 156 307 156q136 0 211.5 -90t75.5 -240v-719h-72v713q0 129 -55.5 198.5t-165.5 69.5q-152 0 -277 -162q11 -57 11 -100v-719h-72v713q0 129 -55.5 198.5t-165.5 69.5q-82 0 -146 -42t-122 -114v-825 h-72z" />
<glyph unicode="n" horiz-adv-x="956" d="M166 0v1030h67v-115q126 134 281 134q136 0 211.5 -90t75.5 -240v-719h-72v713q0 129 -55.5 198.5t-165.5 69.5q-144 0 -270 -156v-825h-72z" />
<glyph unicode="o" horiz-adv-x="946" d="M123 356v318q0 171 93 273t257 102t257 -102t93 -273v-318q0 -170 -93 -272t-257 -102t-257 102t-93 272zM195 358q0 -142 73.5 -226.5t204.5 -84.5q132 0 205.5 84.5t73.5 226.5v314q0 142 -73.5 226.5t-205.5 84.5q-131 0 -204.5 -84.5t-73.5 -226.5v-314z" />
<glyph unicode="p" d="M166 -502v1532h67v-112q62 62 131 96.5t164 34.5q156 0 246 -102.5t90 -272.5v-318q0 -171 -89.5 -272.5t-246.5 -101.5q-93 0 -160.5 33t-129.5 94v-611h-72zM238 201q70 -75 132 -113.5t146 -38.5q131 0 204 84t73 225v316q0 140 -73 223.5t-204 83.5q-84 0 -146.5 -38 t-131.5 -112v-630z" />
<glyph unicode="q" d="M123 356v318q0 170 90 272.5t246 102.5q95 0 164 -34.5t131 -96.5v112h67v-1532h-71v611q-62 -60 -130 -93.5t-161 -33.5q-157 0 -246.5 101.5t-89.5 272.5zM195 358q0 -141 72.5 -225t203.5 -84q84 0 147 38.5t132 113.5v630q-68 74 -131.5 112t-147.5 38 q-131 0 -203.5 -83t-72.5 -224v-316z" />
<glyph unicode="r" horiz-adv-x="567" d="M166 0v1030h67v-123q124 124 277 129v-69q-82 -3 -146 -39t-126 -101v-827h-72z" />
<glyph unicode="s" horiz-adv-x="817" d="M100 76l15 67q124 -96 291 -96q107 0 173 59.5t66 167.5q0 38 -6 67t-20.5 51t-32 38t-47 30t-59 23.5t-74.5 22.5q-41 11 -66 18t-58 20t-53.5 25.5t-42.5 32t-33.5 43t-19.5 55t-8 70.5q0 125 78.5 202t214.5 77q130 0 250 -68l-15 -63q-114 67 -231 67 q-106 0 -166.5 -59t-60.5 -156q0 -52 13 -86.5t51 -57t60 -30.5t85 -25q18 -5 28 -8q60 -16 99.5 -30.5t77.5 -37.5t59 -51.5t34 -71t13 -98.5q0 -136 -84.5 -214t-220.5 -78q-180 0 -310 94z" />
<glyph unicode="t" horiz-adv-x="575" d="M39 969v61h166l2 371h74l-2 -371h247v-61h-247l-5 -740q0 -97 35.5 -137.5t104.5 -40.5q51 0 112 21v-66q-58 -20 -129 -20q-94 0 -144 53t-50 172l2 758h-166z" />
<glyph unicode="u" horiz-adv-x="956" d="M156 311v719h71v-713q0 -128 55.5 -198t166.5 -70q144 0 270 156v825h72v-1030h-68v115q-125 -133 -281 -133q-136 0 -211 89.5t-75 239.5z" />
<glyph unicode="v" horiz-adv-x="841" d="M49 1030h78l293 -926l295 926h78l-334 -1030h-76z" />
<glyph unicode="w" horiz-adv-x="1480" d="M49 1030h76l285 -915l295 915h69l297 -915l283 915h76l-322 -1030h-72l-295 913l-299 -913h-71z" />
<glyph unicode="x" horiz-adv-x="878" d="M82 0l307 528l-293 502h80l264 -448l265 448h79l-292 -502l307 -528h-80l-279 473l-278 -473h-80z" />
<glyph unicode="y" horiz-adv-x="956" d="M156 311v719h71v-713q0 -128 55.5 -198t166.5 -70q144 0 270 156v825h72v-1186q0 -166 -96 -265t-238 -99q-92 0 -160 20.5t-137 63.5l22 67q64 -44 126 -65t147 -21q112 0 188 82t76 219v265q-125 -129 -277 -129q-136 0 -211 89.5t-75 239.5z" />
<glyph unicode="z" horiz-adv-x="708" d="M63 0v53l490 910h-485v67h569v-53l-492 -909h508v-68h-590z" />
<glyph unicode="{" horiz-adv-x="423" d="M47 625v61h16q37 0 61.5 11t36 35t16 50.5t-0.5 70t-11.5 79.5t-19.5 92q-47 213 9 328.5t206 115.5h13v-61h-13q-226 0 -145 -387q11 -49 17 -84t11 -77.5t2 -72.5t-11.5 -58t-27.5 -46t-48 -27q35 -10 55 -36t27.5 -57.5t4.5 -80t-10 -89.5t-20 -101q-81 -387 145 -387 h13v-62h-13q-150 0 -206 116t-9 331q13 55 19.5 91t11.5 79t0.5 69.5t-16 50.5t-36 35t-61.5 11h-16z" />
<glyph unicode="|" horiz-adv-x="458" d="M193 -137v1669h71v-1669h-71z" />
<glyph unicode="}" horiz-adv-x="423" d="M49 -96h12q227 0 146 387q-13 60 -20 101t-10 89.5t4.5 80t27.5 57.5t55 36q-29 9 -48 27t-27.5 46t-11.5 58t2 72.5t11 77.5t17 84q81 387 -146 387h-12v61h12q150 0 206 -115.5t9 -328.5q-13 -56 -19.5 -92t-11.5 -79.5t-0.5 -70t16 -50.5t36 -35t61.5 -11h17v-61h-17 q-37 0 -61.5 -11t-36 -35t-16 -50.5t0.5 -69.5t11.5 -79t19.5 -91q47 -215 -9 -331t-206 -116h-12v62z" />
<glyph unicode="~" horiz-adv-x="1083" d="M61 709q66 79 126 115t149 36q46 0 85.5 -14t70 -34t62 -40.5t75.5 -34.5t96 -14q88 0 143.5 32t116.5 103l37 -47q-67 -81 -130.5 -118.5t-160.5 -37.5q-69 0 -126 21.5t-89.5 46.5t-78.5 46.5t-95 21.5q-81 0 -131 -29t-113 -100z" />
<glyph unicode="&#xa1;" horiz-adv-x="440" d="M158 979q0 26 18.5 44.5t44.5 18.5t44 -18.5t18 -44.5q0 -25 -18 -44.5t-44 -19.5t-44.5 19.5t-18.5 44.5zM182 -508v1163h78v-1163h-78z" />
<glyph unicode="&#xa2;" horiz-adv-x="788" d="M123 360v316q0 155 85 257.5t220 113.5v241h61v-239q127 -6 234 -84l-18 -68q-107 84 -238 84q-120 0 -196 -88t-76 -225v-303q0 -139 78 -227.5t198 -88.5q136 0 248 84l16 -67q-111 -78 -246 -84v-220h-61v222q-135 12 -220 115.5t-85 260.5z" />
<glyph unicode="&#xa3;" horiz-adv-x="909" d="M68 711v61h155l-24 375q-12 192 64.5 297.5t244.5 105.5q140 0 215.5 -88.5t77.5 -232.5h-76q0 111 -56.5 182.5t-162.5 71.5q-129 0 -187.5 -86.5t-46.5 -247.5l25 -377h297v-61h-293l16 -258q10 -134 -23 -223t-118 -162h672v-68h-762v63q95 73 132.5 157.5t27.5 223.5 l-19 267h-159z" />
<glyph unicode="&#xa4;" horiz-adv-x="1179" d="M66 -8l249 250q-73 95 -73 247v58q0 153 73 248l-249 249l47 46l247 -248q89 71 230 71q142 0 231 -71l248 248l47 -46l-250 -249q74 -96 74 -248v-58q0 -151 -74 -247l250 -250l-47 -45l-248 248q-89 -74 -231 -74q-144 0 -230 74l-247 -248zM303 487q0 -148 77 -229.5 t212 -81.5q133 0 210 81.5t77 229.5v62q0 148 -77 229.5t-210 81.5q-135 0 -212 -81.5t-77 -229.5v-62z" />
<glyph unicode="&#xa5;" horiz-adv-x="960" d="M10 1532h82l389 -809l389 809h82l-415 -860h278v-51h-297v-230h297v-49h-297v-342h-76v342h-297v49h297v230h-297v51h279z" />
<glyph unicode="&#xa6;" horiz-adv-x="458" d="M193 -137v653h71v-653h-71zM193 879v653h71v-653h-71z" />
<glyph unicode="&#xa7;" horiz-adv-x="878" d="M102 780q0 169 154 246q-58 37 -86.5 93.5t-28.5 148.5q0 126 78.5 204t216.5 78q134 0 252 -67l-10 -70q-111 68 -236 68q-107 0 -168 -59.5t-61 -155.5q0 -37 6.5 -67.5t15.5 -52t28.5 -40t33.5 -29t44 -23t47 -18t54 -16.5q147 -39 196 -62q105 -49 129 -147 q9 -35 9 -78q0 -164 -141 -241q70 -36 103.5 -96t33.5 -158q0 -137 -91 -216t-239 -79q-198 0 -333 94l12 72q133 -99 315 -99q118 0 191 61t73 169q0 52 -14.5 92t-35 64.5t-59.5 44.5t-70.5 30.5t-86.5 24.5q-146 37 -195 60q-105 49 -129 148q-8 34 -8 76zM170 786 q0 -47 13.5 -81.5t34 -56t56.5 -38.5t68 -26.5t82 -21.5q25 -6 37 -9q59 -15 108 -33q140 60 140 207q0 47 -14.5 82t-30.5 55.5t-58 39.5t-64.5 25.5t-82.5 22.5q-27 7 -41 11q-50 14 -103 34q-145 -60 -145 -211z" />
<glyph unicode="&#xa8;" horiz-adv-x="397" d="M39 1384q0 24 15.5 40t39.5 16t40 -16t16 -40q0 -23 -16 -38t-40 -15q-23 0 -39 15t-16 38zM248 1384q0 24 16.5 40t40.5 16q23 0 38 -15.5t15 -40.5q0 -23 -15 -38t-38 -15q-24 0 -40.5 15t-16.5 38z" />
<glyph unicode="&#xa9;" horiz-adv-x="1171" d="M68 1038q0 142 68 259.5t187 185t263 67.5q143 0 261.5 -67.5t186.5 -185t68 -259.5q0 -215 -149 -362.5t-367 -147.5q-144 0 -263 67t-187 184.5t-68 258.5zM104 1038q0 -132 64 -241.5t174.5 -172.5t243.5 -63t243.5 63t174 172.5t63.5 241.5q0 201 -139.5 340.5 t-341.5 139.5t-342 -139.5t-140 -340.5zM315 1014v47q0 129 75 213t198 84q115 0 179 -65.5t69 -159.5h-48q-7 77 -57.5 130.5t-142.5 53.5q-100 0 -163 -73t-63 -183v-47q0 -110 63 -182t163 -72q92 0 144 53t59 127h45q-3 -93 -68 -157t-180 -64q-123 0 -198 83t-75 212z " />
<glyph unicode="&#xaa;" horiz-adv-x="794" d="M113 993v254q0 136 72.5 217.5t197.5 81.5q137 0 233 -100v86h60v-825h-60v88q-50 -48 -104.5 -74.5t-128.5 -26.5q-125 0 -197.5 82t-72.5 217zM174 995q0 -111 58 -176t163 -65q65 0 114 29t105 85v506q-57 55 -105.5 84t-113.5 29q-105 0 -163 -65.5t-58 -176.5v-250z " />
<glyph unicode="&#xab;" horiz-adv-x="757" d="M31 512l280 420l66 -29l-262 -391l262 -391l-66 -29zM362 512l281 420l66 -29l-263 -391l263 -391l-66 -29z" />
<glyph unicode="&#xac;" horiz-adv-x="1056" d="M88 727v57h864v-413h-59v356h-805z" />
<glyph unicode="&#xad;" horiz-adv-x="604" d="M70 502v67h462v-67h-462z" />
<glyph unicode="&#xae;" horiz-adv-x="1171" d="M68 1038q0 142 68 259.5t187 185t263 67.5q143 0 261.5 -67.5t186.5 -185t68 -259.5q0 -215 -149 -362.5t-367 -147.5q-144 0 -263 67t-187 184.5t-68 258.5zM104 1038q0 -132 64 -241.5t174.5 -172.5t243.5 -63t243.5 63t174 172.5t63.5 241.5q0 201 -139.5 340.5 t-341.5 139.5t-342 -139.5t-140 -340.5zM387 723v627h211q95 0 152 -42t57 -124v-23q0 -119 -119 -157l154 -281h-49l-150 270q-14 -2 -45 -2h-166v-268h-45zM432 1030h164q74 0 119 33.5t45 97.5v21q0 62 -45.5 95.5t-118.5 33.5h-164v-281z" />
<glyph unicode="&#xaf;" horiz-adv-x="460" d="M31 1329v57h399v-57h-399z" />
<glyph unicode="&#xb0;" horiz-adv-x="565" d="M59 1219v79q0 120 59.5 185t162.5 65t163 -65t60 -185v-79q0 -118 -60 -184t-163 -66q-101 0 -161.5 66t-60.5 184zM113 1221q0 -97 45 -150t123 -53t125 54t47 149v77q0 95 -47 148t-125 53q-79 0 -123.5 -52.5t-44.5 -148.5v-77z" />
<glyph unicode="&#xb1;" horiz-adv-x="1116" d="M70 231v68h974v-68h-974zM70 907v68h452v444h70v-444h452v-68h-452v-458h-70v458h-452z" />
<glyph unicode="&#xb4;" horiz-adv-x="368" d="M45 1212l193 316h84l-216 -316h-61z" />
<glyph unicode="&#xb6;" horiz-adv-x="1136" d="M106 1137v53q0 166 122 254t327 88h532v-57h-139v-1612h-59v1612h-252v-1612h-59v932h-23q-206 0 -327.5 87.5t-121.5 254.5z" />
<glyph unicode="&#xb7;" horiz-adv-x="350" d="M106 555q0 29 20 49.5t48 20.5q31 0 51.5 -20.5t20.5 -49.5t-20.5 -49.5t-51.5 -20.5q-28 0 -48 20.5t-20 49.5z" />
<glyph unicode="&#xb8;" horiz-adv-x="561" d="M102 -403l19 47q59 -52 145 -52q57 0 94 28t37 81q0 56 -47 86.5t-117 30.5q-26 0 -38 -2l43 194h43l-29 -147q87 0 145 -43t58 -121q0 -72 -54.5 -114t-130.5 -42q-98 0 -168 54z" />
<glyph unicode="&#xba;" horiz-adv-x="788" d="M113 993v254q0 135 75 217t205 82q132 0 207.5 -82t75.5 -217v-254q0 -136 -75.5 -217.5t-207.5 -81.5q-131 0 -205.5 81.5t-74.5 217.5zM174 995q0 -112 58 -178.5t161 -66.5q104 0 162.5 66.5t58.5 178.5v250q0 112 -58.5 179t-162.5 67q-103 0 -161 -67t-58 -179v-250 z" />
<glyph unicode="&#xbb;" horiz-adv-x="757" d="M47 121l262 391l-262 391l66 29l280 -420l-280 -420zM379 121l262 391l-262 391l65 29l281 -420l-281 -420z" />
<glyph unicode="&#xbc;" horiz-adv-x="1167" d="M45 1270v67l201 164h51v-842h-57v768zM147 0l727 1532h76l-727 -1532h-76zM625 225v49l305 568h57v-563h129v-54h-129v-225h-57v225h-305zM686 279h244v452z" />
<glyph unicode="&#xbd;" horiz-adv-x="1302" d="M45 1270v67l201 164h51v-842h-57v768zM147 0l727 1532h76l-727 -1532h-76zM788 0v45l242 311q63 80 92 140t29 131q0 79 -44 125.5t-124 46.5q-89 0 -172 -54l-8 58q82 49 182 49q103 0 163 -60t60 -161q0 -86 -31 -149.5t-104 -155.5l-211 -273h359v-53h-433z" />
<glyph unicode="&#xbe;" horiz-adv-x="1339" d="M80 715l10 59q82 -72 182 -72q76 0 124 46.5t48 128.5v30q0 77 -41 120.5t-108 43.5h-100v53h100q52 0 91.5 45.5t39.5 108.5v25q0 72 -43 113.5t-109 41.5q-102 0 -174 -69l-10 59q83 63 186 63q92 0 149.5 -55t57.5 -151v-23q0 -63 -31.5 -112t-78.5 -68 q57 -15 93 -67.5t36 -127.5v-33q0 -105 -63.5 -165t-162.5 -60q-110 0 -196 66zM319 0l728 1532h75l-727 -1532h-76zM797 225v49l305 568h57v-563h129v-54h-129v-225h-57v225h-305zM858 279h244v452z" />
<glyph unicode="&#xbf;" horiz-adv-x="737" d="M55 -168q0 115 30 192t85 156q9 12 32.5 43t33 45.5l28.5 43.5t27.5 51.5t19.5 54t15 66t4 73.5v105h76v-107q0 -36 -4.5 -70t-9.5 -59.5t-17 -55t-19.5 -46t-26 -44t-26 -38t-29.5 -39.5t-28 -37q-54 -76 -83.5 -150t-29.5 -182q0 -136 72.5 -211.5t197.5 -75.5 q127 0 263 80l12 -69q-139 -78 -283 -78q-153 0 -246.5 93.5t-93.5 258.5zM307 985q0 26 19 45t45 19t43.5 -18.5t17.5 -45.5q0 -25 -17.5 -44t-43.5 -19t-45 19t-19 44z" />
<glyph unicode="&#xc0;" horiz-adv-x="1081" d="M45 0l451 1532h88l450 -1532h-78l-143 489h-545l-145 -489h-78zM172 1853h107l299 -225h-78zM287 561h510l-256 860z" />
<glyph unicode="&#xc1;" horiz-adv-x="1081" d="M45 0l451 1532h88l450 -1532h-78l-143 489h-545l-145 -489h-78zM287 561h510l-256 860zM500 1628l299 225h106l-330 -225h-75z" />
<glyph unicode="&#xc2;" horiz-adv-x="1081" d="M45 0l451 1532h88l450 -1532h-78l-143 489h-545l-145 -489h-78zM281 1645l229 247h63l228 -247h-68l-192 194l-193 -194h-67zM287 561h510l-256 860z" />
<glyph unicode="&#xc3;" horiz-adv-x="1081" d="M45 0l451 1532h88l450 -1532h-78l-143 489h-545l-145 -489h-78zM287 561h510l-256 860zM311 1692q-2 61 31 103t88 42q32 0 56.5 -10t41 -24t31.5 -28t36.5 -24t47.5 -10q37 0 57.5 24.5t22.5 63.5h47q0 -61 -33 -103.5t-88 -42.5q-32 0 -56.5 10t-41 24.5t-31.5 28.5 t-36.5 24t-47.5 10q-37 0 -57.5 -24t-22.5 -64h-45z" />
<glyph unicode="&#xc4;" horiz-adv-x="1081" d="M45 0l451 1532h88l450 -1532h-78l-143 489h-545l-145 -489h-78zM287 561h510l-256 860zM383 1757q0 23 16 39t39 16t39.5 -16t16.5 -39t-16 -38t-40 -15q-23 0 -39 15t-16 38zM592 1757q0 23 17 39t40 16t38 -16t15 -39t-15 -38t-38 -15q-24 0 -40.5 15t-16.5 38z" />
<glyph unicode="&#xc5;" horiz-adv-x="1081" d="M45 0l451 1532h88l450 -1532h-78l-143 489h-545l-145 -489h-78zM287 561h510l-256 860zM391 1794q0 62 43 101.5t107 39.5q63 0 106 -40t43 -101q0 -62 -42.5 -102.5t-106.5 -40.5t-107 40.5t-43 102.5zM449 1794q0 -40 26 -65t68 -25q40 0 65 25t25 65q0 38 -25 63 t-65 25q-42 0 -68 -24.5t-26 -63.5z" />
<glyph unicode="&#xc6;" horiz-adv-x="1597" d="M45 0l717 1532h737v-72h-625v-631h599v-71h-599v-686h625v-72h-700v489h-439l-233 -489h-82zM387 561h412v883z" />
<glyph unicode="&#xc7;" horiz-adv-x="1073" d="M127 514v512q0 243 128.5 383.5t334.5 140.5q117 0 203.5 -30.5t162.5 -94.5l-20 -69q-67 63 -148.5 93t-191.5 30q-177 0 -285 -121.5t-108 -329.5v-516q0 -214 110 -335.5t291 -121.5q213 0 352 127l19 -73q-149 -122 -371 -125l-24 -131q86 0 144 -43t58 -121 q0 -72 -54 -114t-130 -42q-99 0 -168 53l19 47q58 -51 145 -51q57 0 94 28t37 81q0 56 -47 86t-117 30q-27 0 -39 -2l39 179q-195 12 -314.5 152t-119.5 378z" />
<glyph unicode="&#xc8;" horiz-adv-x="968" d="M156 1853h106l299 -225h-78zM170 0v1532h700v-72h-624v-631h598v-71h-598v-686h624v-72h-700z" />
<glyph unicode="&#xc9;" horiz-adv-x="968" d="M170 0v1532h700v-72h-624v-631h598v-71h-598v-686h624v-72h-700zM483 1628l299 225h107l-330 -225h-76z" />
<glyph unicode="&#xca;" horiz-adv-x="968" d="M170 0v1532h700v-72h-624v-631h598v-71h-598v-686h624v-72h-700zM264 1645l230 247h63l227 -247h-67l-193 194l-192 -194h-68z" />
<glyph unicode="&#xcb;" horiz-adv-x="968" d="M170 0v1532h700v-72h-624v-631h598v-71h-598v-686h624v-72h-700zM367 1757q0 23 16 39t39 16t39 -16t16 -39t-16 -38t-39 -15t-39 15t-16 38zM575 1757q0 23 17 39t41 16q23 0 38 -16t15 -39t-15 -38t-38 -15q-24 0 -41 15t-17 38z" />
<glyph unicode="&#xcc;" horiz-adv-x="415" d="M-160 1853h107l299 -225h-78zM170 0v1532h76v-1532h-76z" />
<glyph unicode="&#xcd;" horiz-adv-x="415" d="M168 1628l299 225h106l-329 -225h-76zM170 0v1532h76v-1532h-76z" />
<glyph unicode="&#xce;" horiz-adv-x="415" d="M-51 1645l229 247h64l227 -247h-68l-192 194l-193 -194h-67zM170 0v1532h76v-1532h-76z" />
<glyph unicode="&#xcf;" horiz-adv-x="415" d="M51 1757q0 23 16 39t39 16t39.5 -16t16.5 -39t-16 -38t-40 -15q-23 0 -39 15t-16 38zM170 0v1532h76v-1532h-76zM260 1757q0 23 17 39t40 16t38.5 -16t15.5 -39t-15.5 -38t-38.5 -15q-24 0 -40.5 15t-16.5 38z" />
<glyph unicode="&#xd0;" horiz-adv-x="1185" d="M-16 735v62h186v735h362q242 0 384.5 -147t142.5 -408v-420q0 -262 -142.5 -409.5t-384.5 -147.5h-362v735h-186zM246 72h282q211 0 332 128t121 359v418q0 229 -121 356t-332 127h-282v-663h358v-62h-358v-663z" />
<glyph unicode="&#xd1;" horiz-adv-x="1153" d="M170 0v1532h72l665 -1354v1354h76v-1532h-72l-665 1352v-1352h-76zM367 1692q-2 61 30.5 103t87.5 42q32 0 56.5 -10t41 -24t31.5 -28t36.5 -24t47.5 -10q37 0 57.5 24.5t22.5 63.5h47q0 -61 -32.5 -103.5t-87.5 -42.5q-32 0 -56.5 10t-41 24.5t-31.5 28.5t-36.5 24 t-47.5 10q-37 0 -57.5 -24t-22.5 -64h-45z" />
<glyph unicode="&#xd2;" horiz-adv-x="1212" d="M127 532v467q0 254 124.5 402.5t354.5 148.5q229 0 354 -148.5t125 -402.5v-467q0 -257 -126 -403.5t-353 -146.5q-228 0 -353.5 146.5t-125.5 403.5zM203 535q0 -226 105 -354t296 -128q192 0 299 128t107 354v462q0 224 -105 353t-301 129q-194 0 -297.5 -129 t-103.5 -353v-462zM238 1853h106l299 -225h-78z" />
<glyph unicode="&#xd3;" horiz-adv-x="1212" d="M127 532v467q0 254 124.5 402.5t354.5 148.5q229 0 354 -148.5t125 -402.5v-467q0 -257 -126 -403.5t-353 -146.5q-228 0 -353.5 146.5t-125.5 403.5zM203 535q0 -226 105 -354t296 -128q192 0 299 128t107 354v462q0 224 -105 353t-301 129q-194 0 -297.5 -129 t-103.5 -353v-462zM565 1628l299 225h107l-330 -225h-76z" />
<glyph unicode="&#xd4;" horiz-adv-x="1212" d="M127 532v467q0 254 124.5 402.5t354.5 148.5q229 0 354 -148.5t125 -402.5v-467q0 -257 -126 -403.5t-353 -146.5q-228 0 -353.5 146.5t-125.5 403.5zM203 535q0 -226 105 -354t296 -128q192 0 299 128t107 354v462q0 224 -105 353t-301 129q-194 0 -297.5 -129 t-103.5 -353v-462zM346 1645l229 247h64l227 -247h-67l-193 194l-192 -194h-68z" />
<glyph unicode="&#xd5;" horiz-adv-x="1212" d="M127 532v467q0 254 124.5 402.5t354.5 148.5q229 0 354 -148.5t125 -402.5v-467q0 -257 -126 -403.5t-353 -146.5q-228 0 -353.5 146.5t-125.5 403.5zM203 535q0 -226 105 -354t296 -128q192 0 299 128t107 354v462q0 224 -105 353t-301 129q-194 0 -297.5 -129 t-103.5 -353v-462zM377 1692q-2 61 31 103t88 42q32 0 56.5 -10t41 -24t31.5 -28t36.5 -24t47.5 -10q37 0 57 24.5t22 63.5h48q0 -61 -33 -103.5t-88 -42.5q-32 0 -56.5 10t-41 24.5t-31.5 28.5t-36.5 24t-47.5 10q-37 0 -57.5 -24t-22.5 -64h-45z" />
<glyph unicode="&#xd6;" horiz-adv-x="1212" d="M127 532v467q0 254 124.5 402.5t354.5 148.5q229 0 354 -148.5t125 -402.5v-467q0 -257 -126 -403.5t-353 -146.5q-228 0 -353.5 146.5t-125.5 403.5zM203 535q0 -226 105 -354t296 -128q192 0 299 128t107 354v462q0 224 -105 353t-301 129q-194 0 -297.5 -129 t-103.5 -353v-462zM449 1757q0 23 16 39t39 16t39 -16t16 -39t-16 -38t-39 -15t-39 15t-16 38zM657 1757q0 23 17 39t41 16q23 0 38 -16t15 -39t-15 -38t-38 -15q-24 0 -41 15t-17 38z" />
<glyph unicode="&#xd7;" horiz-adv-x="1028" d="M117 403l352 353l-348 348l47 47l348 -350l342 342l47 -49l-340 -338l348 -350l-49 -50l-348 351l-352 -353z" />
<glyph unicode="&#xd8;" horiz-adv-x="1212" d="M98 -41l125 209q-96 140 -96 364v467q0 254 124.5 402.5t354.5 148.5q223 0 352 -145l117 197l49 -35l-127 -215q88 -142 88 -353v-467q0 -257 -126 -403.5t-353 -146.5q-215 0 -344 135l-115 -193zM203 535q0 -173 63 -293l652 1093q-110 144 -314 144 q-194 0 -297.5 -129t-103.5 -353v-462zM303 186q108 -133 301 -133q192 0 299 128t107 354v462q0 168 -58 281z" />
<glyph unicode="&#xd9;" horiz-adv-x="1148" d="M160 428v1104h76v-1102q0 -186 90 -281.5t247 -95.5t247.5 95.5t90.5 281.5v1102h76v-1104q0 -218 -111 -332t-303 -114t-302.5 114t-110.5 332zM205 1853h106l299 -225h-78z" />
<glyph unicode="&#xda;" horiz-adv-x="1148" d="M160 428v1104h76v-1102q0 -186 90 -281.5t247 -95.5t247.5 95.5t90.5 281.5v1102h76v-1104q0 -218 -111 -332t-303 -114t-302.5 114t-110.5 332zM532 1628l299 225h107l-330 -225h-76z" />
<glyph unicode="&#xdb;" horiz-adv-x="1148" d="M160 428v1104h76v-1102q0 -186 90 -281.5t247 -95.5t247.5 95.5t90.5 281.5v1102h76v-1104q0 -218 -111 -332t-303 -114t-302.5 114t-110.5 332zM313 1645l230 247h63l228 -247h-68l-193 194l-192 -194h-68z" />
<glyph unicode="&#xdc;" horiz-adv-x="1148" d="M160 428v1104h76v-1102q0 -186 90 -281.5t247 -95.5t247.5 95.5t90.5 281.5v1102h76v-1104q0 -218 -111 -332t-303 -114t-302.5 114t-110.5 332zM416 1757q0 23 16 39t39 16t39 -16t16 -39t-16 -38t-39 -15t-39 15t-16 38zM625 1757q0 23 17 39t40 16t38 -16t15 -39 t-15 -38t-38 -15q-24 0 -40.5 15t-16.5 38z" />
<glyph unicode="&#xdd;" horiz-adv-x="960" d="M10 1532h82l389 -809l389 809h82l-434 -899v-633h-76v633zM440 1628l299 225h107l-330 -225h-76z" />
<glyph unicode="&#xde;" horiz-adv-x="1032" d="M170 0v1532h76v-277h286q205 0 325 -93.5t120 -282.5v-58q0 -189 -120.5 -283t-324.5 -94h-286v-444h-76zM246 514h284q171 0 270 76t99 233v54q0 156 -99 231.5t-270 75.5h-284v-670z" />
<glyph unicode="&#xdf;" horiz-adv-x="919" d="M156 0v1296q0 133 78 211t206 78q124 0 199.5 -76.5t75.5 -199.5v-23q0 -46 -15 -88.5t-36 -75.5t-42 -65t-36 -71t-15 -81v-6q0 -50 25 -95t61 -84t72 -82t61 -108.5t25 -144.5v-39q0 -166 -107.5 -257t-279.5 -91v72q137 0 226 73t89 207v39q0 69 -25 126.5t-60.5 98 t-71.5 80t-61 92t-25 113.5v6q0 60 22.5 114.5t49 89t49 81t22.5 92.5v18q0 98 -57 158t-148 60q-95 0 -153 -61.5t-58 -164.5v-1292h-71z" />
<glyph unicode="&#xe0;" d="M123 356v318q0 171 89.5 273t246.5 102q93 0 161 -33.5t130 -93.5v108h71v-1030h-67v113q-62 -62 -131 -96.5t-164 -34.5q-156 0 -246 102.5t-90 271.5zM195 356q0 -141 72.5 -224t203.5 -83q84 0 147.5 38t131.5 112v630q-69 75 -132 113.5t-147 38.5q-131 0 -203.5 -84 t-72.5 -225v-316zM244 1528h84l192 -316h-61z" />
<glyph unicode="&#xe1;" d="M123 356v318q0 171 89.5 273t246.5 102q93 0 161 -33.5t130 -93.5v108h71v-1030h-67v113q-62 -62 -131 -96.5t-164 -34.5q-156 0 -246 102.5t-90 271.5zM195 356q0 -141 72.5 -224t203.5 -83q84 0 147.5 38t131.5 112v630q-69 75 -132 113.5t-147 38.5q-131 0 -203.5 -84 t-72.5 -225v-316zM459 1212l192 316h84l-215 -316h-61z" />
<glyph unicode="&#xe2;" d="M123 356v318q0 171 89.5 273t246.5 102q93 0 161 -33.5t130 -93.5v108h71v-1030h-67v113q-62 -62 -131 -96.5t-164 -34.5q-156 0 -246 102.5t-90 271.5zM195 356q0 -141 72.5 -224t203.5 -83q84 0 147.5 38t131.5 112v630q-69 75 -132 113.5t-147 38.5q-131 0 -203.5 -84 t-72.5 -225v-316zM229 1233l230 299h63l232 -299h-66l-196 242l-197 -242h-66z" />
<glyph unicode="&#xe3;" d="M123 356v318q0 171 89.5 273t246.5 102q93 0 161 -33.5t130 -93.5v108h71v-1030h-67v113q-62 -62 -131 -96.5t-164 -34.5q-156 0 -246 102.5t-90 271.5zM195 356q0 -141 72.5 -224t203.5 -83q84 0 147.5 38t131.5 112v630q-69 75 -132 113.5t-147 38.5q-131 0 -203.5 -84 t-72.5 -225v-316zM262 1296q-2 61 31 103.5t88 42.5q32 0 56.5 -10t41 -25t31.5 -29.5t36.5 -24.5t47.5 -10q37 0 57.5 25t22.5 64h47q0 -61 -33 -103.5t-88 -42.5q-39 0 -68.5 15.5t-45 33.5t-41.5 33.5t-58 15.5q-37 0 -57.5 -24.5t-22.5 -63.5h-45z" />
<glyph unicode="&#xe4;" d="M123 356v318q0 171 89.5 273t246.5 102q93 0 161 -33.5t130 -93.5v108h71v-1030h-67v113q-62 -62 -131 -96.5t-164 -34.5q-156 0 -246 102.5t-90 271.5zM195 356q0 -141 72.5 -224t203.5 -83q84 0 147.5 38t131.5 112v630q-69 75 -132 113.5t-147 38.5q-131 0 -203.5 -84 t-72.5 -225v-316zM324 1384q0 24 16 40t39 16t39 -16t16 -40q0 -23 -16 -38t-39 -15t-39 15t-16 38zM532 1384q0 24 17 40t41 16q23 0 38 -15.5t15 -40.5q0 -23 -15 -38t-38 -15q-24 0 -41 15t-17 38z" />
<glyph unicode="&#xe5;" d="M123 356v318q0 171 89.5 273t246.5 102q93 0 161 -33.5t130 -93.5v108h71v-1030h-67v113q-62 -62 -131 -96.5t-164 -34.5q-156 0 -246 102.5t-90 271.5zM195 356q0 -141 72.5 -224t203.5 -83q84 0 147.5 38t131.5 112v630q-69 75 -132 113.5t-147 38.5q-131 0 -203.5 -84 t-72.5 -225v-316zM317 1399q0 71 51 116.5t124 45.5q72 0 121 -45.5t49 -116.5q0 -70 -49 -115t-121 -45q-74 0 -124.5 45t-50.5 115zM375 1399q0 -46 33 -76.5t84 -30.5q47 0 79.5 30.5t32.5 76.5q0 49 -32 78.5t-80 29.5q-50 0 -83.5 -29.5t-33.5 -78.5z" />
<glyph unicode="&#xe6;" horiz-adv-x="1456" d="M113 248q0 138 86.5 211t246.5 94l224 31v118q0 123 -65 201t-181 78q-73 0 -128 -21t-128 -67l-21 70q75 44 139.5 65t147.5 21q99 0 170 -46.5t107 -128.5q39 83 114 129t179 46q166 0 249.5 -100.5t83.5 -278.5v-162h-596v-146q0 -141 80 -228t215 -87q82 0 148 22 t131 70l18 -65q-72 -48 -142.5 -70t-162.5 -22q-113 0 -196 52.5t-125 145.5q-44 -90 -128.5 -144t-189.5 -54q-124 0 -200 71.5t-76 194.5zM184 254q0 -95 59.5 -151t151.5 -56q116 0 195.5 82t79.5 186v199l-205 -27q-140 -21 -210.5 -72t-70.5 -161zM741 573h529v105 q0 144 -66 224.5t-200 80.5q-125 0 -194 -83t-69 -222v-105z" />
<glyph unicode="&#xe7;" horiz-adv-x="790" d="M123 360v316q0 164 94 268.5t242 104.5q81 0 142 -19.5t122 -64.5l-18 -68q-107 84 -238 84q-120 0 -196 -88t-76 -225v-303q0 -139 78 -227.5t198 -88.5q136 0 248 84l16 -67q-117 -84 -268 -84l-25 -127q87 0 145 -43t58 -121q0 -72 -54 -114t-130 -42q-99 0 -168 53 l18 47q58 -51 146 -51q57 0 94 28t37 81q0 56 -47 86.5t-117 30.5q-21 0 -39 -3l39 177q-133 14 -217 116.5t-84 259.5z" />
<glyph unicode="&#xe8;" horiz-adv-x="909" d="M123 360v314q0 172 87.5 273.5t246.5 101.5q166 0 250 -100.5t84 -278.5v-162h-596v-146q0 -141 79.5 -228t214.5 -87q82 0 148 22t131 70l18 -65q-72 -48 -142.5 -70t-162.5 -22q-162 0 -260 104.5t-98 273.5zM195 573h528v105q0 144 -66 224.5t-200 80.5 q-125 0 -193.5 -83t-68.5 -222v-105zM215 1528h84l193 -316h-62z" />
<glyph unicode="&#xe9;" horiz-adv-x="909" d="M123 360v314q0 172 87.5 273.5t246.5 101.5q166 0 250 -100.5t84 -278.5v-162h-596v-146q0 -141 79.5 -228t214.5 -87q82 0 148 22t131 70l18 -65q-72 -48 -142.5 -70t-162.5 -22q-162 0 -260 104.5t-98 273.5zM195 573h528v105q0 144 -66 224.5t-200 80.5 q-125 0 -193.5 -83t-68.5 -222v-105zM430 1212l193 316h84l-215 -316h-62z" />
<glyph unicode="&#xea;" horiz-adv-x="909" d="M123 360v314q0 172 87.5 273.5t246.5 101.5q166 0 250 -100.5t84 -278.5v-162h-596v-146q0 -141 79.5 -228t214.5 -87q82 0 148 22t131 70l18 -65q-72 -48 -142.5 -70t-162.5 -22q-162 0 -260 104.5t-98 273.5zM195 573h528v105q0 144 -66 224.5t-200 80.5 q-125 0 -193.5 -83t-68.5 -222v-105zM201 1233l229 299h64l231 -299h-66l-196 242l-197 -242h-65z" />
<glyph unicode="&#xeb;" horiz-adv-x="909" d="M123 360v314q0 172 87.5 273.5t246.5 101.5q166 0 250 -100.5t84 -278.5v-162h-596v-146q0 -141 79.5 -228t214.5 -87q82 0 148 22t131 70l18 -65q-72 -48 -142.5 -70t-162.5 -22q-162 0 -260 104.5t-98 273.5zM195 573h528v105q0 144 -66 224.5t-200 80.5 q-125 0 -193.5 -83t-68.5 -222v-105zM295 1384q0 24 15.5 40t39.5 16t40 -16t16 -40q0 -23 -16 -38t-40 -15q-23 0 -39 15t-16 38zM504 1384q0 24 16.5 40t40.5 16q23 0 38 -15.5t15 -40.5q0 -23 -15 -38t-38 -15q-24 0 -40.5 15t-16.5 38z" />
<glyph unicode="&#xec;" horiz-adv-x="401" d="M-47 1528h84l192 -316h-61zM166 0v1030h72v-1030h-72z" />
<glyph unicode="&#xed;" horiz-adv-x="401" d="M166 0v1030h72v-1030h-72zM168 1212l192 316h84l-215 -316h-61z" />
<glyph unicode="&#xee;" horiz-adv-x="401" d="M-61 1233l229 299h63l232 -299h-66l-196 242l-197 -242h-65zM166 0v1030h72v-1030h-72z" />
<glyph unicode="&#xef;" horiz-adv-x="401" d="M33 1384q0 24 15.5 40t39.5 16t39.5 -16t15.5 -40q0 -23 -16 -38t-39 -15t-39 15t-16 38zM166 0v1030h72v-1030h-72zM242 1384q0 24 16.5 40t40.5 16q23 0 38 -15.5t15 -40.5q0 -23 -15 -38t-38 -15q-24 0 -40.5 15t-16.5 38z" />
<glyph unicode="&#xf0;" horiz-adv-x="944" d="M123 356v250q0 178 94 276.5t252 98.5q181 0 272 -141q-31 323 -178 499l-184 -131l-31 39l180 129q-140 137 -356 137v58q248 0 408 -160l190 137l31 -39l-189 -135q209 -250 209 -766v-2v-250q0 -178 -95.5 -276t-252.5 -98q-160 0 -255 98t-95 276zM195 358 q0 -148 75.5 -229.5t202.5 -81.5q125 0 201 82t76 229v246q0 148 -75 229.5t-202 81.5q-128 0 -203 -80.5t-75 -230.5v-246z" />
<glyph unicode="&#xf1;" horiz-adv-x="956" d="M166 0v1030h67v-115q126 134 281 134q136 0 211.5 -90t75.5 -240v-719h-72v713q0 129 -55.5 198.5t-165.5 69.5q-144 0 -270 -156v-825h-72zM256 1296q-2 61 31 103.5t88 42.5q32 0 56.5 -10t41 -25t31.5 -29.5t36.5 -24.5t47.5 -10q37 0 57.5 25t22.5 64h47 q0 -61 -33 -103.5t-88 -42.5q-39 0 -68.5 15.5t-45 33.5t-41.5 33.5t-58 15.5q-37 0 -57.5 -24.5t-22.5 -63.5h-45z" />
<glyph unicode="&#xf2;" horiz-adv-x="946" d="M123 356v318q0 171 93 273t257 102t257 -102t93 -273v-318q0 -170 -93 -272t-257 -102t-257 102t-93 272zM195 358q0 -142 73.5 -226.5t204.5 -84.5q132 0 205.5 84.5t73.5 226.5v314q0 142 -73.5 226.5t-205.5 84.5q-131 0 -204.5 -84.5t-73.5 -226.5v-314zM225 1528h84 l193 -316h-62z" />
<glyph unicode="&#xf3;" horiz-adv-x="946" d="M123 356v318q0 171 93 273t257 102t257 -102t93 -273v-318q0 -170 -93 -272t-257 -102t-257 102t-93 272zM195 358q0 -142 73.5 -226.5t204.5 -84.5q132 0 205.5 84.5t73.5 226.5v314q0 142 -73.5 226.5t-205.5 84.5q-131 0 -204.5 -84.5t-73.5 -226.5v-314zM440 1212 l193 316h84l-215 -316h-62z" />
<glyph unicode="&#xf4;" horiz-adv-x="946" d="M123 356v318q0 171 93 273t257 102t257 -102t93 -273v-318q0 -170 -93 -272t-257 -102t-257 102t-93 272zM195 358q0 -142 73.5 -226.5t204.5 -84.5q132 0 205.5 84.5t73.5 226.5v314q0 142 -73.5 226.5t-205.5 84.5q-131 0 -204.5 -84.5t-73.5 -226.5v-314zM211 1233 l229 299h64l231 -299h-65l-197 242l-197 -242h-65z" />
<glyph unicode="&#xf5;" horiz-adv-x="946" d="M123 356v318q0 171 93 273t257 102t257 -102t93 -273v-318q0 -170 -93 -272t-257 -102t-257 102t-93 272zM195 358q0 -142 73.5 -226.5t204.5 -84.5q132 0 205.5 84.5t73.5 226.5v314q0 142 -73.5 226.5t-205.5 84.5q-131 0 -204.5 -84.5t-73.5 -226.5v-314zM244 1296 q-2 61 30.5 103.5t87.5 42.5q32 0 56.5 -10t41 -25t31.5 -29.5t36.5 -24.5t47.5 -10q37 0 57.5 25t22.5 64h47q0 -61 -32.5 -103.5t-87.5 -42.5q-39 0 -68.5 15.5t-45 33.5t-41.5 33.5t-58 15.5q-37 0 -57.5 -24.5t-22.5 -63.5h-45z" />
<glyph unicode="&#xf6;" horiz-adv-x="946" d="M123 356v318q0 171 93 273t257 102t257 -102t93 -273v-318q0 -170 -93 -272t-257 -102t-257 102t-93 272zM195 358q0 -142 73.5 -226.5t204.5 -84.5q132 0 205.5 84.5t73.5 226.5v314q0 142 -73.5 226.5t-205.5 84.5q-131 0 -204.5 -84.5t-73.5 -226.5v-314zM305 1384 q0 24 15.5 40t39.5 16t40 -16t16 -40q0 -23 -16 -38t-40 -15q-23 0 -39 15t-16 38zM514 1384q0 24 16.5 40t40.5 16q23 0 38.5 -15.5t15.5 -40.5q0 -23 -15.5 -38t-38.5 -15q-24 0 -40.5 15t-16.5 38z" />
<glyph unicode="&#xf7;" horiz-adv-x="1116" d="M70 723v68h974v-68h-974zM489 371q0 30 20 50.5t48 20.5q31 0 51.5 -20t20.5 -51q0 -28 -21 -48t-51 -20q-28 0 -48 20t-20 48zM489 1141q0 29 20 49t48 20q31 0 51.5 -20t20.5 -49t-20.5 -48.5t-51.5 -19.5q-28 0 -48 19.5t-20 48.5z" />
<glyph unicode="&#xf8;" horiz-adv-x="944" d="M109 -47l90 151q-76 98 -76 252v318q0 171 93 273t257 102q143 0 238 -82l86 143l43 -31l-92 -153q75 -96 75 -252v-318q0 -170 -93 -272t-257 -102q-144 0 -235 81l-84 -139zM195 358q0 -112 45 -186l434 731q-74 80 -201 80q-131 0 -204.5 -84.5t-73.5 -226.5v-314z M272 125q75 -78 201 -78q132 0 205.5 84.5t73.5 226.5v314q0 111 -43 184z" />
<glyph unicode="&#xf9;" horiz-adv-x="956" d="M156 311v719h71v-713q0 -128 55.5 -198t166.5 -70q144 0 270 156v825h72v-1030h-68v115q-125 -133 -281 -133q-136 0 -211 89.5t-75 239.5zM238 1528h84l192 -316h-61z" />
<glyph unicode="&#xfa;" horiz-adv-x="956" d="M156 311v719h71v-713q0 -128 55.5 -198t166.5 -70q144 0 270 156v825h72v-1030h-68v115q-125 -133 -281 -133q-136 0 -211 89.5t-75 239.5zM453 1212l192 316h84l-215 -316h-61z" />
<glyph unicode="&#xfb;" horiz-adv-x="956" d="M156 311v719h71v-713q0 -128 55.5 -198t166.5 -70q144 0 270 156v825h72v-1030h-68v115q-125 -133 -281 -133q-136 0 -211 89.5t-75 239.5zM223 1233l230 299h63l232 -299h-66l-197 242l-196 -242h-66z" />
<glyph unicode="&#xfc;" horiz-adv-x="956" d="M156 311v719h71v-713q0 -128 55.5 -198t166.5 -70q144 0 270 156v825h72v-1030h-68v115q-125 -133 -281 -133q-136 0 -211 89.5t-75 239.5zM317 1384q0 24 16 40t40 16q23 0 39 -16t16 -40q0 -23 -16 -38t-39 -15q-24 0 -40 15t-16 38zM526 1384q0 24 17 40t41 16 q23 0 38 -15.5t15 -40.5q0 -23 -15 -38t-38 -15q-24 0 -41 15t-17 38z" />
<glyph unicode="&#xfd;" horiz-adv-x="956" d="M156 311v719h71v-713q0 -128 55.5 -198t166.5 -70q144 0 270 156v825h72v-1186q0 -166 -96 -265t-238 -99q-92 0 -160 20.5t-137 63.5l22 67q64 -44 126 -65t147 -21q112 0 188 82t76 219v265q-125 -129 -277 -129q-136 0 -211 89.5t-75 239.5zM446 1212l193 316h84 l-215 -316h-62z" />
<glyph unicode="&#xfe;" d="M166 -502v2069h72v-647q59 60 127 94.5t163 34.5q156 0 246 -102.5t90 -272.5v-318q0 -171 -89.5 -272.5t-246.5 -101.5q-93 0 -160.5 33t-129.5 94v-611h-72zM238 201q70 -75 132 -113.5t146 -38.5q131 0 204 84t73 225v316q0 140 -73 223.5t-204 83.5q-84 0 -146.5 -38 t-131.5 -112v-630z" />
<glyph unicode="&#xff;" horiz-adv-x="956" d="M156 311v719h71v-713q0 -128 55.5 -198t166.5 -70q144 0 270 156v825h72v-1186q0 -166 -96 -265t-238 -99q-92 0 -160 20.5t-137 63.5l22 67q64 -44 126 -65t147 -21q112 0 188 82t76 219v265q-125 -129 -277 -129q-136 0 -211 89.5t-75 239.5zM311 1384q0 24 16 40 t40 16q23 0 39 -16t16 -40q0 -23 -16 -38t-39 -15q-24 0 -40 15t-16 38zM520 1384q0 24 17 40t41 16q23 0 38 -15.5t15 -40.5q0 -23 -15 -38t-38 -15q-24 0 -41 15t-17 38z" />
<glyph unicode="&#x152;" horiz-adv-x="1632" d="M127 551v432q0 256 127.5 402.5t372.5 146.5h907v-72h-625v-631h598v-71h-598v-686h625v-72h-907q-242 0 -371 146t-129 405zM203 551q0 -228 109 -354.5t315 -126.5h207v1392h-207q-209 0 -316.5 -128.5t-107.5 -352.5v-430z" />
<glyph unicode="&#x153;" horiz-adv-x="1546" d="M123 356v318q0 171 93 273t257 102q112 0 192.5 -49t120.5 -138q37 89 113.5 138t185.5 49q166 0 250 -100.5t84 -278.5v-162h-596v-146q0 -141 80 -228t215 -87q82 0 148 22t131 70l18 -65q-72 -48 -142.5 -70t-162.5 -22q-113 0 -196 51t-126 143q-39 -92 -119.5 -143 t-195.5 -51q-164 0 -257 102t-93 272zM195 358q0 -142 73.5 -226.5t204.5 -84.5q132 0 205.5 84.5t73.5 226.5v314q0 142 -73.5 226.5t-205.5 84.5q-131 0 -204.5 -84.5t-73.5 -226.5v-314zM823 573h529v105q0 144 -66.5 224.5t-200.5 80.5q-125 0 -193.5 -83t-68.5 -222 v-105z" />
<glyph unicode="&#x178;" horiz-adv-x="960" d="M10 1532h82l389 -809l389 809h82l-434 -899v-633h-76v633zM324 1757q0 23 16 39t39 16t39 -16t16 -39t-16 -38t-39 -15t-39 15t-16 38zM532 1757q0 23 17 39t41 16q23 0 38 -16t15 -39t-15 -38t-38 -15q-24 0 -41 15t-17 38z" />
<glyph unicode="&#x2c6;" horiz-adv-x="657" d="M68 1233l229 299h63l232 -299h-66l-196 242l-197 -242h-65z" />
<glyph unicode="&#x2dc;" horiz-adv-x="555" d="M49 1296q-2 61 31 103.5t88 42.5q32 0 56.5 -10t41 -25t31.5 -29.5t36.5 -24.5t47.5 -10q37 0 57.5 25t22.5 64h47q0 -61 -33 -103.5t-88 -42.5q-39 0 -68.5 15.5t-45 33.5t-41.5 33.5t-58 15.5q-37 0 -57.5 -24.5t-22.5 -63.5h-45z" />
<glyph unicode="&#x2000;" horiz-adv-x="967" />
<glyph unicode="&#x2001;" horiz-adv-x="1935" />
<glyph unicode="&#x2002;" horiz-adv-x="967" />
<glyph unicode="&#x2003;" horiz-adv-x="1935" />
<glyph unicode="&#x2004;" horiz-adv-x="645" />
<glyph unicode="&#x2005;" horiz-adv-x="483" />
<glyph unicode="&#x2006;" horiz-adv-x="322" />
<glyph unicode="&#x2007;" horiz-adv-x="322" />
<glyph unicode="&#x2008;" horiz-adv-x="241" />
<glyph unicode="&#x2009;" horiz-adv-x="387" />
<glyph unicode="&#x200a;" horiz-adv-x="107" />
<glyph unicode="&#x2010;" horiz-adv-x="604" d="M70 502v67h462v-67h-462z" />
<glyph unicode="&#x2011;" horiz-adv-x="604" d="M70 502v67h462v-67h-462z" />
<glyph unicode="&#x2012;" horiz-adv-x="604" d="M70 502v67h462v-67h-462z" />
<glyph unicode="&#x2013;" horiz-adv-x="866" d="M70 502v67h727v-67h-727z" />
<glyph unicode="&#x2014;" horiz-adv-x="1234" d="M70 502v67h1095v-67h-1095z" />
<glyph unicode="&#x2018;" horiz-adv-x="305" d="M86 1171q0 210 160 318v-39q-103 -90 -103 -229h7q26 0 45.5 -19.5t19.5 -46.5q0 -28 -18 -48t-45 -20q-32 0 -49 22.5t-17 61.5z" />
<glyph unicode="&#x2019;" horiz-adv-x="305" d="M59 1087v39q103 90 103 230h-6q-27 0 -46.5 19t-19.5 46q0 28 18.5 48t45.5 20q32 0 48.5 -22.5t16.5 -61.5q0 -210 -160 -318z" />
<glyph unicode="&#x201a;" horiz-adv-x="305" d="M59 -244q103 90 103 230h-6q-27 0 -46.5 19t-19.5 46q0 28 18.5 48t45.5 20q32 0 48.5 -22.5t16.5 -61.5q0 -210 -160 -318v39z" />
<glyph unicode="&#x201c;" horiz-adv-x="573" d="M70 1171q0 211 159 318v-39q-102 -89 -102 -229h6q27 0 46.5 -19.5t19.5 -46.5q0 -28 -18.5 -48t-45.5 -20q-32 0 -48.5 22.5t-16.5 61.5zM336 1171q0 210 160 318v-39q-103 -90 -103 -229h6q27 0 46.5 -19.5t19.5 -46.5q0 -28 -18.5 -48t-45.5 -20q-32 0 -48.5 22.5 t-16.5 61.5z" />
<glyph unicode="&#x201d;" horiz-adv-x="573" d="M43 1087v39q102 89 102 230h-6q-27 0 -46 19t-19 46q0 28 18 48t45 20q32 0 49 -22.5t17 -61.5q0 -210 -160 -318zM309 1087v39q103 90 103 230h-6q-27 0 -46.5 19t-19.5 46q0 28 18 48t45 20q32 0 49 -22.5t17 -61.5q0 -210 -160 -318z" />
<glyph unicode="&#x201e;" horiz-adv-x="573" d="M59 -244q103 90 103 230h-6q-27 0 -46.5 19t-19.5 46q0 28 18.5 48t45.5 20q32 0 48.5 -22.5t16.5 -61.5q0 -210 -160 -318v39zM326 -244q102 89 102 230h-6q-27 0 -46.5 19t-19.5 46q0 28 18.5 48t45.5 20q32 0 48.5 -22.5t16.5 -61.5q0 -211 -159 -318v39z" />
<glyph unicode="&#x2022;" horiz-adv-x="714" d="M121 522q0 98 68.5 167t168.5 69q97 0 165.5 -69t68.5 -167q0 -99 -68.5 -168t-165.5 -69q-100 0 -168.5 68.5t-68.5 168.5z" />
<glyph unicode="&#x2026;" horiz-adv-x="1005" d="M106 51q0 29 20 49.5t48 20.5q31 0 51.5 -20.5t20.5 -49.5t-20.5 -49t-51.5 -20q-28 0 -48 20t-20 49zM434 51q0 29 20 49.5t48 20.5q30 0 50.5 -20.5t20.5 -49.5t-20 -49t-51 -20q-28 0 -48 20t-20 49zM764 51q0 29 19.5 49.5t47.5 20.5q31 0 51.5 -20.5t20.5 -49.5 t-20.5 -49t-51.5 -20q-28 0 -47.5 20t-19.5 49z" />
<glyph unicode="&#x202f;" horiz-adv-x="387" />
<glyph unicode="&#x2039;" horiz-adv-x="425" d="M31 512l280 420l66 -29l-262 -391l262 -391l-66 -29z" />
<glyph unicode="&#x203a;" horiz-adv-x="425" d="M47 121l262 391l-262 391l66 29l280 -420l-280 -420z" />
<glyph unicode="&#x205f;" horiz-adv-x="483" />
<glyph unicode="&#x20ac;" horiz-adv-x="1177" d="M12 559l19 49h178l-2 54v206l2 56h-197l19 49h180q25 268 165.5 422.5t366.5 154.5q182 0 326 -94l-25 -65q-126 90 -296 90q-195 0 -316.5 -136t-144.5 -372h600l-17 -49h-585l-2 -56v-206l2 -54h465l-17 -49h-446q23 -235 145.5 -371.5t315.5 -136.5q179 0 317 105 l27 -66q-151 -108 -349 -108q-224 0 -365.5 155.5t-166.5 421.5h-199z" />
<glyph unicode="&#x2122;" horiz-adv-x="1470" d="M84 1479v53h451v-53h-199v-682h-55v682h-197zM672 797v735h59l262 -633l262 633h60v-735h-55v606l-252 -606h-29l-250 606v-606h-57z" />
<glyph unicode="&#x25fc;" horiz-adv-x="1034" d="M0 0v1034h1034v-1034h-1034z" />
<glyph unicode="&#xfb02;" horiz-adv-x="921" d="M37 969v61h180v287q0 133 62.5 199.5t173.5 66.5q42 0 96 -14l-6 -66q-51 15 -84 15q-81 0 -125.5 -50t-44.5 -149v-289h225v-61h-225v-969h-72v969h-180zM686 0v1567h72v-1567h-72z" />
</font>
</defs>
</svg>
