<?xml version="1.0" encoding="utf-8"?>
<!-- Generator: Adobe Illustrator 22.0.1, SVG Export Plug-In . SVG Version: 6.00 Build 0)  -->
<svg version="1.1" xmlns="http://www.w3.org/2000/svg" xmlns:xlink="http://www.w3.org/1999/xlink" x="0px" y="0px"
	 viewBox="0 0 1160 768" style="enable-background:new 0 0 1160 768;" xml:space="preserve" preserveAspectRatio="xMidYMid slice"  width="100%">
	    <defs>
                  <style type="text/css">
                  	 @font-face {
                  				font-family: 'Elysio-Regular';
                                     src: url('type_dynamic_-_elysio-webfont.eot');
                                     src: url('type_dynamic_-_elysio-webfont.eot?#iefix') format('embedded-opentype'),
                                     url('type_dynamic_-_elysio-webfont.woff2') format('woff2'),
                                     url('type_dynamic_-_elysio-webfont.woff') format('woff'),
                                     url('type_dynamic_-_elysio-webfont.ttf') format('truetype'),
                                     url('type_dynamic_-_elysio-webfont.svg#elysioregular') format('svg');
                                     font-weight: normal;
                                     font-style: normal;
                  		        }
                  	 </style>
                 </defs>
<style type="text/css">
	.st0{fill:#0C2340;}
	.st1{fill:#CED3D9;}
	.st2{fill:none;}
	.st3{fill:#F05B72;}
	.st4{font-family:'Elysio-Regular';}
	.st5{font-size:28px;}
	.st6{fill:#FFFFFF;}
	.st7{font-family:'Elysio-Regular';}
	.st8{font-size:22px;}
	.st9{fill:url(#SVGID_1_);}
	.st10{fill:none;stroke:#F05B72;stroke-width:2;stroke-miterlimit:10;}
	.st11{fill:none;stroke:#FFFFFF;stroke-width:2;stroke-miterlimit:10;}
	.st12{display:none;}
	.st13{display:inline;opacity:0.46;fill:#F05B72;}
</style>
<g id="Layer_1">
	<rect x="-8.8" y="-15.3" class="st0" width="1176" height="805.3"/>
</g>
<g id="Layer_2">
	<rect x="-8.8" y="393" class="st0" width="1176" height="397"/>
	<g>
		<g>
			<path class="st1" d="M706.7,429.6c-0.2-2.7-0.6-5.7-2.2-8c-0.9-1.4-2.1-2.3-3.3-3.4c-1.4-1.4-1.7-4-2.4-5.9c0,0,0-0.1,0-0.1
				c-2.6-7.4-6.3-14.3-10-21.3c-3.6-6.7-7.6-13.3-11.8-19.7c-8.4-12.7-17.9-24.8-28.8-35.4c0,0-26.8-28.7-53.8-44.5
				c0,0-3.8-2.4-4.7-8.1c-0.3-1.6-0.8-3.3-1.4-4.8c-0.6-1.5-1.3-3-2.4-4.2c-0.5-0.6-1.1-1.2-1.8-1.7c-0.6-0.4-1.4-1.1-2.2-1.1
				c-0.8,0-0.9,0.9-0.7,1.5c0.4,1.1,0.7,2.3,0.1,3.4c-0.3,0.6-0.7,1.1-1.2,1.6c-0.6,0.6-2.5,2.7-2.9,3c-0.9,0.4-2,0.1-2.8-0.2
				c0,0-18.4-6.5-27.4-9.4c0,0-23.5-6.6-38-9.2c-1.7-0.3-3.4-0.5-5.1-0.7c-3.5-0.4-7.1-0.6-10.6-0.4c-1,0.1-2,0.1-3,0.3
				c-1,0.1-2.1,0.5-3,0c-0.8-0.4-1.4-1.3-1.9-2c-1.2-2.2-3.8-7.7-7.7-10.4c0,0-1.4-1-0.8,0.7c0,0,0,0.2,0,0.3
				c-0.1,0.5-0.4,2.1-3.1,2.2c0,0-4.5,0.4-7,8c0,0-1.4,5-7.7,5.9c0,0-1.7,0.6-4.1,0.7c0,0-4.1-1.1-0.2,2c0,0,13.2,8.4,28.5,2.6
				c1.4-0.5,2.3,0.2,2.3,0.2s5.2,4.8,12,10.3c3.5,2.9,7.4,5.2,11.4,8.6c3.2,2.7,30.4,27.6,30.4,27.6c7.2,6.1,13,13.2,13,13.2
				c20.7,24.2,53.6,57.4,73.3,71.8c0,0,0.7,0.7-1,0.8c0,0-3.3,0-1.6,1.4c0,0,7.1,7.6,17.8,8.4c0,0,9.8,6.8,21.4,13.2
				c0,0,13.9,11.2,24.8,19.2c0,0,1.3,0.8,5.4,4.5c2.1,1.9,6.8,6.8,9.8,4.9c2.3-1.5,0.9-4.4,1-6.5
				C703.7,448.9,706.9,432.6,706.7,429.6z"/>
		</g>
		<g>
			<g>
				<path class="st0" d="M686.8,427.1c0-0.1,0.2-1.7-0.7-2.6s-2.6-0.5-2.6-0.5l-0.3,0.1l0,0.3c0,0.1-0.2,1.7,0.7,2.6
					c0.9,0.9,2.6,0.5,2.6,0.5l0.3-0.1L686.8,427.1z"/>
			</g>
		</g>
	</g>
	<g>
		<rect x="496.5" y="533.2" class="st2" width="178.8" height="58.1"/>
		<text transform="matrix(1 0 0 1 504.4531 553.4131)"><tspan x="0" y="0" class="st3 st4 st5">Save muscle </tspan><tspan x="36.2" y="33.6" class="st3 st4 st5">oxygen</tspan></text>
	</g>
	<g>
		<rect x="363" y="227.6" class="st2" width="56" height="18.3"/>
		<text transform="matrix(1 0 0 1 363 244.4561)" class="st6 st7 st8">200m</text>
	</g>
	<g>
		<rect x="363" y="536.6" class="st2" width="61" height="18.3"/>
		<text transform="matrix(1 0 0 1 363 553.4141)" class="st3 st7 st8">300m</text>
	</g>
	<g>
		<linearGradient id="SVGID_1_" gradientUnits="userSpaceOnUse" x1="585.3144" y1="509.1975" x2="585.3144" y2="397.264">
			<stop  offset="0" style="stop-color:#F05B72"/>
			<stop  offset="0.1837" style="stop-color:#ED5B72"/>
			<stop  offset="0.3345" style="stop-color:#E35A71"/>
			<stop  offset="0.4736" style="stop-color:#D15970"/>
			<stop  offset="0.6056" style="stop-color:#B9576E"/>
			<stop  offset="0.7328" style="stop-color:#9A556C"/>
			<stop  offset="0.8561" style="stop-color:#74536A"/>
			<stop  offset="0.9744" style="stop-color:#475067"/>
			<stop  offset="1" style="stop-color:#3D4F66"/>
		</linearGradient>
		<path class="st9" d="M609.3,451.4c0,43.1,5.9,63.6,5.9,63.6s-53.7-24.3-53.7-63.6s-6.2-63.6-6.2-63.6S609.3,410.8,609.3,451.4z"/>
		<g>
			<path class="st0" d="M554.2,385.6c6,2.5,11.6,5.9,17,9.7c2.7,1.9,5.3,3.9,7.7,6.1c2.5,2.2,4.8,4.5,7.1,6.9
				c4.5,4.9,8.5,10.3,11.6,16.3c3.2,5.9,5.2,12.5,6.3,19.2c0.1,0.8,0.2,1.7,0.3,2.5c0.1,0.8,0.2,1.7,0.2,2.5c0,1.7,0.1,3.4,0.1,5
				c0.1,3.2,0,6.4,0.3,9.6c0.1,6.4,1,12.7,1.8,19l0.8,4.7l0.9,4.7c0.7,3.1,1.4,6.2,2.3,9.3c0.4,1.6,0.9,3.1,1.4,4.6
				c0.5,1.5,1.1,3,1.6,4.5l0.9,2.2l1,2.2c0.7,1.5,1.3,2.9,2.1,4.3c-2.1-2.5-3.8-5.3-5.4-8.2c-1.6-2.9-3-5.8-4.2-8.9
				c-2.4-6.1-4.4-12.4-5.8-18.8c-0.4-1.6-0.6-3.2-1-4.8c-0.3-1.6-0.6-3.2-0.8-4.9l-0.6-4.9l-0.4-4.9c-0.3-3.3-0.3-6.6-0.4-9.8
				c0-1.7-0.1-3.2-0.2-4.7c0-0.8-0.2-1.5-0.2-2.3c-0.1-0.8-0.1-1.5-0.3-2.3c-0.9-6.1-2.7-12-5.5-17.6c-2.6-5.6-6.2-10.8-10.1-15.8
				c-4-4.9-8.4-9.5-13.2-13.7C564.6,393.1,559.5,389.2,554.2,385.6z"/>
		</g>
		<g>
			<path class="st0" d="M554.2,385.6c2,2.6,3.6,5.4,5.2,8.3c0.8,1.4,1.5,2.9,2.2,4.4c0.7,1.5,1.3,3,2,4.5c0.6,1.5,1.2,3.1,1.7,4.6
				l1.6,4.7c0.5,1.6,0.9,3.2,1.4,4.7c0.4,1.6,0.8,3.2,1.2,4.8c1.5,6.4,2.4,13,3,19.5c0.4,3.3,0.3,6.6,0.5,9.9l0.1,2.4l0.1,2.3
				c0.1,1.5,0.3,3.1,0.5,4.6c0.8,6.1,2.6,12.1,5.2,17.8c1.3,2.8,2.8,5.6,4.5,8.2c0.9,1.3,1.7,2.6,2.7,3.9c0.9,1.3,1.9,2.5,2.8,3.8
				c4,4.9,8.5,9.5,13.4,13.6c4.9,4.2,10.1,8,15.6,11.4c-6.1-2.3-11.9-5.5-17.3-9.2c-2.7-1.9-5.3-3.9-7.9-6c-2.5-2.1-4.9-4.5-7.2-6.9
				c-2.3-2.4-4.4-5.1-6.3-7.8c-1.9-2.8-3.7-5.6-5.2-8.7c-3-6-5-12.6-6-19.3c-0.2-1.7-0.4-3.4-0.4-5.1l-0.1-5
				c-0.1-3.2-0.1-6.4-0.3-9.6c-0.2-6.4-1-12.7-2-19c-1-6.3-2.3-12.6-4.1-18.7c-0.4-1.5-0.9-3.1-1.4-4.6c-0.5-1.5-1-3.1-1.6-4.6
				C556.8,391.5,555.6,388.5,554.2,385.6z"/>
		</g>
		<g>
			<path class="st0" d="M554.2,385.6c5.6,3.1,10.7,7.1,15.4,11.6c2.3,2.2,4.6,4.6,6.7,7.1c2.1,2.5,4,5.1,5.8,7.8
				c3.7,5.4,6.5,11.4,8.7,17.7c0.5,1.6,1,3.1,1.4,4.8c0.2,0.8,0.4,1.6,0.6,2.4l0.5,2.4c0.3,1.6,0.5,3.3,0.8,4.9
				c0.1,1.7,0.3,3.3,0.4,5l0.3,9.5c0,1.6,0.2,3.1,0.4,4.6l0.5,4.6c0.9,6.1,2.2,12.2,4,18.2c1.9,5.9,4.3,11.7,7.3,17.2
				c3,5.5,6.5,10.8,10.8,15.5c-5.2-3.8-9.4-8.8-13.2-14.1c-1-1.3-1.8-2.7-2.6-4.1c-0.4-0.7-0.9-1.4-1.3-2.1l-1.2-2.2l-1.1-2.2
				c-0.4-0.7-0.7-1.5-1-2.2c-0.6-1.5-1.4-3-1.9-4.5l-1.7-4.6c-0.5-1.5-0.9-3.1-1.4-4.7l-0.7-2.4c-0.2-0.8-0.3-1.6-0.5-2.4l-1-4.8
				c-0.3-1.6-0.4-3.2-0.6-4.9c-0.2-1.6-0.4-3.2-0.4-4.9c-0.1-3.2-0.3-6.6-0.4-9.6c-0.4-12.3-4.2-24.3-10.4-35.1
				c-3.1-5.4-6.7-10.5-10.8-15.3C563.5,394.2,559.1,389.7,554.2,385.6z"/>
		</g>
		<g>
			<path class="st0" d="M554.2,385.6c5,4.1,9.1,9.1,12.8,14.4c3.6,5.4,6.7,11.1,9.2,17.2c1.1,3.1,2.3,6.1,3.1,9.3
				c1,3.1,1.5,6.4,2.2,9.6c0.3,1.6,0.4,3.2,0.7,4.9c0.2,1.6,0.5,3.3,0.5,4.9c0.1,3.3,0.3,6.6,0.4,9.6c0.2,6.2,1.2,12.3,2.9,18.2
				c1.6,5.9,4.1,11.6,7.1,17.1c1.5,2.7,3.2,5.3,5,7.9c1.8,2.6,3.7,5,5.8,7.4c4.1,4.8,8.7,9.2,13.8,13.1c-5.8-2.8-11-6.8-15.8-11.1
				c-4.7-4.4-9.1-9.4-12.6-14.9c-0.9-1.4-1.7-2.8-2.6-4.2c-0.8-1.5-1.6-2.9-2.2-4.4c-1.4-3-2.6-6.1-3.6-9.2
				c-2-6.3-3.1-12.9-3.4-19.5c0-3.4-0.2-6.4-0.3-9.5c0-1.6-0.2-3.1-0.4-4.6l-0.2-2.3c-0.1-0.8-0.1-1.6-0.3-2.3
				c-0.8-6.2-2.4-12.2-4.2-18.2c-2-5.9-4.4-11.7-7.4-17.2C561.7,395.9,558.2,390.5,554.2,385.6z"/>
		</g>
	</g>
	<line class="st10" x1="423.7" y1="545.8" x2="438.3" y2="545.8"/>
	<line class="st11" x1="423.7" y1="236.8" x2="438.3" y2="236.8"/>
</g>
<g id="marker" class="st12">
	<rect x="364" y="163" class="st13" width="428" height="512"/>
</g>
</svg>
