<?xml version="1.0" encoding="utf-8"?>
<!-- Generator: Adobe Illustrator 22.0.1, SVG Export Plug-In . SVG Version: 6.00 Build 0)  -->
<svg version="1.1" xmlns="http://www.w3.org/2000/svg" xmlns:xlink="http://www.w3.org/1999/xlink" x="0px" y="0px"
	 viewBox="0 0 1160 768" style="enable-background:new 0 0 1160 768;" xml:space="preserve" preserveAspectRatio="xMidYMid slice"  width="100%">
	    <defs>
                  <style type="text/css">
                  	 @font-face {
                  				font-family: 'Elysio-Regular';
                                     src: url('type_dynamic_-_elysio-webfont.eot');
                                     src: url('type_dynamic_-_elysio-webfont.eot?#iefix') format('embedded-opentype'),
                                     url('type_dynamic_-_elysio-webfont.woff2') format('woff2'),
                                     url('type_dynamic_-_elysio-webfont.woff') format('woff'),
                                     url('type_dynamic_-_elysio-webfont.ttf') format('truetype'),
                                     url('type_dynamic_-_elysio-webfont.svg#elysioregular') format('svg');
                                     font-weight: normal;
                                     font-style: normal;
                  		        }
                  	 </style>
                 </defs>
<style type="text/css">
	.st0{fill:#0C2340;}
	.st1{fill:#CED3D9;}
	.st2{fill:#9EA7B3;}
	.st3{fill:#3D4F66;}
	.st4{fill:none;stroke:#9EA7B3;stroke-width:29.1621;stroke-miterlimit:10;}
	.st5{fill:#EA516D;}
	.st6{fill:none;stroke:#FFFFFF;stroke-width:2.8346;stroke-miterlimit:10;}
	.st7{display:none;}
	.st8{display:inline;opacity:0.46;fill:#F05B72;}
</style>
<g id="Layer_1">
	<rect x="-8.8" y="-15.3" class="st0" width="1176" height="805.3"/>
</g>
<g id="Layer_2">
	<rect x="-8.8" y="363" class="st0" width="1176" height="397"/>
	<g>
		<path class="st1" d="M672.4,239.6c-0.2,0.1-0.5,0.2-0.7,0.2c-12.6,4.1-26.8,12.4-39.8,10.9c-10.4-1.2-19.8-3.8-30.5-3.1
			c-8.5,0.5-16.9,3.1-25,6.7c-2.2,1-5.5,2.6-9.2,4.5c-5.3,2.9-10.3,6-15.1,9.2c-16,10.6-86.9,91.2-86.9,91.2
			c-10.4,9.1-30.9,13.4-29.3,31c2,22.8,45.8,27.6,63.5,30.8c34.8,6.3,44.2,9.8,44.2,9.8c84.1,24,195.9,50.9,195.9,50.9
			c4.6,2,9.2,4,13.7,5.9V219C726,224.4,699,230.9,672.4,239.6z"/>
	</g>
	<path class="st2" d="M560.2,294.3c0,0,17.3,8.6,23.4,19.2c6.2,10.6-17,26.1-31.2,32.1c-14.2,6-36.8,13.8-44.8,8.1
		c-8-5.7-13.4-12.8-6.8-23.4c6.6-10.6,20.6-25.3,31.7-31.6C543.6,292.3,554,290.9,560.2,294.3z"/>
	<path class="st3" d="M581.5,367.9c-14.8,16.5-123.8,25-123.8,25c-6,0.3-6.6,9.7,1.2,10c50.1,2,196.9,5.8,202.8,2.2
		c5.9-3.6-4.4-9.8-4.3-18.4c0.1-4.6,1.7-15.9,1.4-25.6c0.1,0.1,0.3,0.1,0.4,0.2c12.4,6.7,8.4,7.9,34.9,14.4c10.8,2.7,24.2-6,29-11.4
		c7.6-8.6-5.1-15.5-8.9-19.9c-8.7-9.8-3.4-15.2-0.8-20.2c6.7-12.4,4.4-18.4,2.8-31.7c-1.7-15.2-9.7-28.3-19.1-32.6
		c-9.4-4.3-20.8-8.8-38.9-5.2c-8.3,1.6-26.9,6.3-34.8,12.3c-9,6.8,11.2,29,3.1,41.5c-6.2,9.6-30.7,23.1-30.7,23.1
		c-30.1,18.6-49.4,23.5-64,26.8c-17.7,4.1-45.9,10.4-47.7,10.7c-16.8,3.5-23.7,5.2-30.1,9c-6.5,3.8-6.7,11.8,0.6,11
		c4.3-0.5,8.5-0.9,12.8-1.4c5.6-0.6,11.1-1.2,16.7-1.8c6.4-0.7,12.7-1.5,19-2.4c6.6-0.9,13.3-1.9,19.9-3.1
		c6.4-1.1,12.8-2.4,19.2-3.8c5.7-1.3,11.4-2.8,17-4.7c4.5-1.5,16.2-8.1,18-8.7c1-0.3,2-0.4,3-0.1C582.4,363.9,582.2,366,581.5,367.9
		z"/>
	<path class="st1" d="M638.3,274.4c0,0,10-10.5,22.8-11.5c12.8-0.9,27,1.4,32.3,8c5.3,6.6,4.5,23.3,8.5,28.4
		c4,5.1,11.9,9.2,8.9,14.8c-3,5.6-13.6,16.3-19.2,13.3c-5.6-3-14.8-8.8-26.1-12.2c-11.3-3.4-21.6-5.1-25.9-12.6
		C635.2,295.2,631.3,286.3,638.3,274.4z"/>
	<path class="st2" d="M561.7,277.7c1.7,4.1,8.6,5.3,16.5,3.2c1.2,2.4,2.6,4.9,4,7.5l-6.2,3.3c-2.5,1.3-3.4,4.4-2.1,6.9
		c0.7,1.4,2.1,2.3,3.5,2.6c1.1,0.2,2.3,0.1,3.4-0.5l6.4-3.4c16.8,29.4,25.5,23.8,9.1-4.8l3.4-1.8c2.5-1.3,3.4-4.4,2.1-6.9
		c-1.3-2.5-4.4-3.4-6.9-2.1l-3.6,1.9c-1.3-2.3-2.5-4.5-3.6-6.7c6.6-4,10.4-9.5,8.8-13.5c-1.7-4.2-9-5.4-17.1-3.1
		c-1.2-2.4-2.1-4.5-2.9-6.2c-3.1,1.4-6.2,2.9-9.2,4.5c0.7,1.6,1.6,3.6,2.7,5.8C563.6,268.5,560.1,273.8,561.7,277.7z"/>
	<path class="st4" d="M591.4,295.3c0,0,49,120.1,167.4,143.7"/>
	<circle class="st5" cx="580.9" cy="284.5" r="4.1"/>
	<circle class="st5" cx="589.4" cy="280.7" r="4.1"/>
	<g>
		<path class="st5" d="M509.3,255.9c-8.1,1.8-15.7,4.8-22.6,9c-3.4,2.1-6.7,4.5-9.6,7.2c-3,2.7-5.8,5.6-8.2,8.7
			c-2.5,3.1-4.7,6.5-6.5,10c-1.9,3.5-3.4,7.3-4.7,11.1c-2.4,7.7-3.5,15.8-3.4,24.1c-1.8-8.1-1.7-16.7,0.3-24.9
			c1-4.1,2.5-8.1,4.3-11.9c1.9-3.8,4.1-7.4,6.7-10.8c2.7-3.3,5.6-6.4,8.9-9.1c3.3-2.7,6.8-5.1,10.6-7
			C492.7,258.3,501,256,509.3,255.9z"/>
	</g>
	<g>
		<path class="st5" d="M511.6,274.2c-5.7,1.5-11,3.8-15.7,6.8c-4.7,3-8.9,6.8-12.3,11.2c-3.4,4.4-6.1,9.4-7.9,14.7
			c-1.8,5.3-2.7,11-2.8,16.9c-1.5-5.7-1.5-11.8-0.2-17.7c1.3-5.9,4-11.5,7.8-16.3c3.8-4.8,8.6-8.8,14-11.4
			C499.7,275.6,505.7,274.1,511.6,274.2z"/>
	</g>
	<g>
		<path class="st5" d="M512.9,284.9c-4.3,1.4-8.2,3.1-11.7,5.5c-3.5,2.3-6.6,5.2-9.2,8.4c-2.6,3.3-4.6,7-6,10.9
			c-1.4,4-2.2,8.2-2.5,12.7c-1.4-4.3-1.5-9-0.5-13.5c1-4.5,3-8.9,5.9-12.5c2.9-3.7,6.6-6.7,10.8-8.7
			C503.8,285.7,508.4,284.7,512.9,284.9z"/>
	</g>
	<g>
		<path class="st5" d="M513.8,292.6c-3.3,1.2-6.2,2.7-8.9,4.5c-2.6,1.8-4.9,4-6.9,6.5c-1.9,2.5-3.5,5.2-4.6,8.2
			c-1.2,3-1.9,6.2-2.3,9.7c-1.2-3.3-1.4-7-0.8-10.5c0.7-3.6,2.3-7,4.5-9.9c2.3-2.9,5.2-5.2,8.5-6.7
			C506.7,292.9,510.3,292.2,513.8,292.6z"/>
	</g>
	<g>
		<g>
			<path class="st5" d="M566.3,309.5c-2.5,1.9-5.2,3.6-7.9,5.2c-2.8,1.5-5.6,2.9-8.6,4c-3,1.2-6,2-9.2,2.7c-3.1,0.7-6.4,0.9-9.6,1
				l0.1-2.7c3,0.2,6.1,0.2,9.2-0.2c3.1-0.4,6.1-1,9.1-2c3-0.9,5.9-2,8.7-3.3C560.9,312.7,563.7,311.2,566.3,309.5z"/>
			<g>
				<polygon class="st5" points="514.7,316.3 540.3,312.8 532.3,320.8 535.4,331.7 				"/>
			</g>
		</g>
	</g>
	<g>
		<g>
			<path class="st5" d="M585,310l2.8-0.2c0.9-0.1,1.8-0.3,2.7-0.5c0.9-0.2,1.8-0.5,2.6-0.8c0.9-0.3,1.7-0.7,2.5-1.1
				c3.3-1.6,6.2-3.9,8.5-6.6c4.6-5.4,7.2-12.2,7.1-19.2c0-6.9-2.7-13.7-7.5-18.8c-4.8-5-11.6-8.2-18.8-8.6
				c-3.6-0.1-7.2,0.4-10.6,1.7c-3.4,1.3-6.5,3.4-9,6c-2.5,2.6-4.4,5.8-5.6,9.2c-1.2,3.4-1.6,6.9-1.5,10.4c0.1,3.5,0.9,7,2.1,10.2
				c1.3,3.2,3.1,6.3,5.4,9c2.3,2.7,5.2,5,8.5,6.6C577.7,309.2,581.4,310,585,310z M585,310.4c-3.7,0-7.5-0.6-11.1-1.9
				c-3.6-1.3-7-3.2-9.9-5.7c-2.9-2.6-5.3-5.8-6.9-9.4c-1.6-3.6-2.3-7.6-2.2-11.6c0.1-3.9,1.1-7.8,2.8-11.3c1.7-3.5,4-6.6,6.7-9.3
				c5.5-5.3,12.8-8.6,20.5-9c3.9-0.2,7.8,0.4,11.5,1.8c3.7,1.4,7.1,3.6,9.9,6.3c2.8,2.8,5.2,6.1,6.8,9.7c1.6,3.7,2.4,7.7,2.4,11.7
				c-0.1,4-0.9,8-2.5,11.6c-1.6,3.6-4.1,6.9-7,9.4C600.1,308,592.5,310.4,585,310.4z"/>
		</g>
		<g>
			<path class="st5" d="M585,301.7c2.6,0,5.2-0.6,7.5-1.8c2.3-1.2,4.2-2.9,5.8-4.8c3.1-3.9,4.8-8.5,5.1-13.3
				c0.1-2.4-0.1-4.9-0.9-7.3c-0.7-2.4-2.1-4.6-3.8-6.5c-1.8-1.8-3.9-3.3-6.3-4.2c-2.4-0.9-4.9-1.2-7.4-1.1c-5,0.4-9.6,2.7-12.9,6.1
				c-3.3,3.5-5,8.2-5.1,12.9c0,2.4,0.4,4.7,1.2,6.9c0.8,2.2,2,4.4,3.5,6.3c1.5,1.9,3.5,3.6,5.8,4.8C579.9,301,582.4,301.7,585,301.7
				z M585,302.1c-5.3,0-10.7-1.6-15.1-5.1c-2.2-1.8-4-4.1-5.2-6.7c-1.2-2.6-1.8-5.5-1.9-8.4c-0.1-5.8,2.5-11.6,6.7-15.5
				c2.1-2,4.6-3.5,7.2-4.5c2.7-1,5.5-1.3,8.3-1.1c5.6,0.4,10.7,2.8,14.6,6.5c2,1.9,3.6,4.1,4.9,6.5c1.3,2.5,2,5.3,2.2,8.1
				c0.1,2.8-0.4,5.7-1.6,8.4c-1.1,2.6-2.9,4.9-5.1,6.7c-2.2,1.8-4.7,3.1-7.2,3.9C590.3,301.7,587.7,302.1,585,302.1z"/>
		</g>
		<g>
			<path class="st5" d="M585,296.8c2,0,3.9-0.5,5.6-1.5c1.7-0.9,3.1-2.3,4.2-3.7c1.1-1.5,1.9-3.1,2.4-4.7c0.6-1.6,0.8-3.4,0.8-5.1
				c-0.1-3.4-1.3-6.8-3.7-9.4c-1.2-1.3-2.6-2.3-4.2-3.2c-1.6-0.8-3.3-1.4-5.2-1.5c-1.8-0.2-3.8,0-5.6,0.7c-1.8,0.7-3.4,1.7-4.7,3.1
				c-1.3,1.4-2.2,3.1-2.7,4.9c-0.5,1.8-0.6,3.6-0.5,5.4c0.3,3.5,1.5,6.9,3.7,9.8c1.1,1.5,2.5,2.8,4.2,3.7
				C581.1,296.3,583.1,296.8,585,296.8z M585,297.2c-2,0-4-0.3-6-0.9c-2-0.6-3.9-1.5-5.6-2.9c-1.7-1.3-3.1-3.1-4-5.2
				c-0.9-2-1.3-4.3-1.2-6.5c0.1-2.2,0.8-4.4,1.8-6.2c1-1.9,2.3-3.6,3.9-5c3-2.8,6.9-4.7,11.2-5.1c2.1-0.2,4.3,0,6.4,0.8
				c2.1,0.7,4,1.9,5.7,3.4c3.3,3,5.3,7.5,5.3,12.1c0,2.3-0.5,4.5-1.5,6.6c-1,2-2.4,3.8-4.1,5.1C593.2,296.2,589,297.2,585,297.2z"/>
		</g>
		<g>
			<path class="st5" d="M573.5,281.8c0,1.5,0.4,3,1.2,4.3c0.8,1.3,1.8,2.3,3,3.1c2.3,1.5,4.8,2.4,7.4,2.7c1.3,0.1,2.7,0.1,4.1-0.2
				c1.4-0.3,2.7-1,3.8-2c2.2-2,3.2-5.1,2.8-7.8c-0.2-1.4-0.7-2.7-1.3-3.9c-0.6-1.2-1.4-2.2-2.4-3.1c-1.9-1.7-4.4-2.6-7-2.6
				c-1.3,0-2.5,0.2-3.7,0.5c-1.2,0.4-2.5,0.9-3.6,1.7c-1.1,0.8-2.2,1.8-3,3.1C573.9,278.8,573.5,280.3,573.5,281.8z M573.1,281.8
				c0-3.1,0.7-6.4,2.7-9.2c1-1.4,2.4-2.6,4-3.4c1.6-0.8,3.4-1.2,5.2-1.2c3.6-0.1,7.2,1.6,9.6,4.2c1.2,1.3,2.1,2.9,2.7,4.5
				c0.6,1.7,0.7,3.4,0.5,5.1c-0.4,3.4-1.9,6.4-4.1,8.7c-1.1,1.2-2.4,2.3-3.8,3.1c-1.5,0.8-3.2,1.4-4.9,1.5c-1.7,0.1-3.6-0.2-5.2-0.9
				c-1.6-0.7-3-1.9-4-3.3c-1-1.4-1.7-3-2.1-4.5C573.3,284.9,573.1,283.4,573.1,281.8z"/>
		</g>
	</g>
	<g>
		<g>
			<polyline class="st6" points="589.4,280.7 589.4,237.8 580.9,237.8 580.9,284.5 			"/>
		</g>
		<line class="st6" x1="585.2" y1="237.8" x2="585.2" y2="227.1"/>
	</g>
	<path class="st1" d="M459.9,244.5c-1.4-0.3-11.5-3.8-20-4.2c-8.5-0.4-11.6,0-11.6,0s-6.4-2.3-7.3-2.4c-0.9-0.1-1,0.4-0.9,1.2
		s0,2.2,0,2.2s-6.5,0.5-8.1,0.8c-1.7,0.3-1.7,0.3-1.7,0.3s-2-1.9-3-1.8s-1.3,1-1.4,1.5c-0.1,0.5-1.8,0.5-2.3,0.5
		c-0.5,0-2,0.1-4.3-0.1s-10.1-3.7-11.7-3.4c-1.6,0.3,2.7,2.3,2.5,7c-0.2,4.7-1.9,6.3-2.2,6.8c-0.3,0.5,0.6,1.5,2.6,0.5
		c2-1,6.3-3.6,7.7-4c1.3-0.4,7-0.1,8,0c0,0-0.9,4.1,0.7,4.4c1.7,0.3,5.8-0.8,6.6-1s8,3.1,12.8,3.4c0,0-1.8,3.1-1,3.1
		c0.7,0,3.7-0.7,5.4-2.5c0,0,14.3,0,20.4-2.7s8-3.4,9-4c1-0.6,3.2-1.9,1.6-2c-1.7-0.1-2.3,0.3-3.1,0c-0.8-0.3,2-1.4,2.7-1.9
		C461.7,245.5,460.8,244.7,459.9,244.5z"/>
	<rect x="754" y="210" class="st0" width="63" height="315"/>
</g>
<g id="marker" class="st7">
	<rect x="364" y="163" class="st8" width="428" height="512"/>
</g>
</svg>
