<?xml version="1.0" encoding="utf-8"?>
<!-- Generator: Adobe Illustrator 22.0.1, SVG Export Plug-In . SVG Version: 6.00 Build 0)  -->
<svg version="1.1" xmlns="http://www.w3.org/2000/svg" xmlns:xlink="http://www.w3.org/1999/xlink" x="0px" y="0px"
	 viewBox="0 0 1160 768" style="enable-background:new 0 0 1160 768;" xml:space="preserve" preserveAspectRatio="xMidYMid slice"  width="100%">
<style type="text/css">
	.st0{fill:#E6E9EB;}
	.st1{fill:#0C2340;}
	.st2{clip-path:url(#SVGID_2_);}
	.st3{fill:#CED3D9;}
	.st4{fill:none;stroke:#6D7B8C;stroke-width:2.8346;stroke-miterlimit:10;}
	.st5{fill:#6D7B8C;}
	.st6{display:none;}
	.st7{display:inline;opacity:0.46;fill:#F05B72;}
</style>
<g id="Layer_1">
	<g>
		<rect x="-6" y="-8" class="st0" width="1170" height="794"/>
	</g>
	<rect x="-8.8" y="-15.3" class="st1" width="1176" height="805.3"/>
</g>
<g id="Layer_3">
	<g>
		<defs>
			<rect id="SVGID_1_" x="380.6" y="163" width="392.4" height="392.4"/>
		</defs>
		<clipPath id="SVGID_2_">
			<use xlink:href="#SVGID_1_"  style="overflow:visible;"/>
		</clipPath>
		<g class="st2">
			<path class="st3" d="M697.4,459.6c0.4-2.9,0.6-6.2-0.4-8.9c-0.7-1.7-1.7-2.9-2.6-4.4c-1.1-1.8-0.9-4.6-1.2-6.8c0,0,0-0.1,0-0.1
				c-1.1-8.4-3.3-16.6-5.6-24.7c-2.3-7.9-4.9-15.8-7.8-23.5c-5.8-15.3-13.1-30.2-22.1-43.9c0,0-21.5-36.4-46.3-59.3
				c0,0-3.5-3.4-3-9.7c0.1-1.8-0.1-3.6-0.4-5.4c-0.3-1.7-0.7-3.4-1.5-5c-0.4-0.8-0.9-1.5-1.5-2.2c-0.5-0.6-1.2-1.5-2-1.6
				c-0.8-0.2-1.1,0.7-1.1,1.4c0.1,1.3,0.2,2.6-0.6,3.7c-0.4,0.6-1,1-1.6,1.4c-0.7,0.5-3.2,2.3-3.8,2.5c-1,0.3-2.1-0.3-2.9-0.9
				c0,0-17.8-11.2-26.6-16.3c0,0-23.2-12.4-37.8-18.5c-1.7-0.7-3.5-1.3-5.3-1.9c-3.6-1.2-7.3-2.2-11-2.9c-1.1-0.2-2.1-0.3-3.2-0.4
				c-1.1-0.1-2.3,0.1-3.2-0.7c-0.7-0.6-1.2-1.7-1.5-2.6c-0.7-2.6-2.2-9-5.7-12.7c0,0-1.2-1.3-1,0.6c0,0,0,0.2,0,0.3
				c-0.2,0.5-0.9,2.2-3.7,1.6c0,0-4.8-0.6-9.2,6.8c0,0-2.7,4.9-9.4,4.5c0,0-2,0.2-4.5-0.2c0,0-4.1-2.2-0.7,2.1c0,0,12,11.9,29.4,9.4
				c1.6-0.2,2.4,0.7,2.4,0.7s4.4,6.3,10.3,13.6c3.1,3.8,6.5,7.2,10,11.7c2.7,3.6,25.6,36.1,25.6,36.1c6.2,8.1,10.6,16.9,10.6,16.9
				c16.2,30.3,43.1,72.9,60.5,92.6c0,0,0.5,0.9-1.2,0.6c0,0-3.4-0.8-2,1.1c0,0,5.7,9.7,16.8,12.9c0,0,8.8,9.5,19.5,18.9
				c0,0,12,15,21.6,26c0,0,1.2,1.2,4.6,6c1.7,2.4,5.6,8.7,9.2,7.4c2.8-1,2-4.4,2.6-6.6C689.8,479.2,696.9,462.7,697.4,459.6z"/>
			<g>
				<path class="st1" d="M676.2,452.6c0-0.1,0.6-1.8-0.2-2.9c-0.8-1.1-2.6-1.1-2.6-1.1l-0.3,0l-0.1,0.3c0,0.1-0.6,1.8,0.2,2.9
					c0.8,1.1,2.6,1.1,2.6,1.1l0.3,0L676.2,452.6z"/>
			</g>
		</g>
		<g class="st2">
			<path class="st4" d="M428.4,126.1c0,0,38.1,42.6,132.6,77.9c61.9,23.1,107.2,64.6,142.5,125.6c28.3,48.9,29.7,83,38.1,139.7
				c7.5,50.7,40.4,109.5,40.4,109.5"/>
			<path class="st4" d="M766.6,587.6c-1.4-2.5-34.5-62.2-42.5-115.6c-1.2-7.8-2.2-15.1-3.2-22.1c-6-43.4-10-72-32.8-111.3
				c-17.1-29.5-36-53.3-57.7-72.6c-22.1-19.7-46.9-34.5-75.7-45.2c-97.5-36.4-138-80.9-139.7-82.7"/>
			<path class="st4" d="M441.7,114.3L441.7,114.3c0,0,9.2,10,29.2,24c18.5,12.9,50.2,31.9,96.4,49.1c33,12.3,61.4,29.3,86.9,52
				c24.6,21.9,45.8,48.5,64.9,81.4c26.2,45.3,30.8,78.4,37.2,124.2c1,7,2,14.2,3.1,21.8c7,46.8,38,102.9,38.3,103.5"/>
			<path class="st4" d="M380.6,156.2c41,98.4,76.2,89.1,132.1,175.6c37.5,58,73.2,131,142.5,179.8c58.6,41.2,73.9,92.3,73.9,92.3"/>
			<path class="st4" d="M712.1,609L712.1,609c0,0-3.7-11.6-13.8-27.6c-9.3-14.6-26-36.1-53.4-55.3
				c-59.6-41.9-95.3-100.3-126.8-151.8c-7.1-11.5-13.7-22.4-20.5-32.9c-23.2-36-41.2-53.1-58.5-69.5c-23-21.8-53.9-48.8-75.9-115.7"
				/>
			<path class="st4" d="M400.6,156.2c21.9,50.1,41.1,69,63.1,89.9c18,17.1,38.4,36.5,63.9,76c7,10.9,13.8,22,21,33.7
				c15.4,25.2,31.3,51.2,50.2,75.8c21,27.3,42.8,48.7,66.6,65.4c63,44.3,80,99.4,80.7,101.8"/>
		</g>
		<g class="st2">
			<polygon class="st5" points="567.9,182.2 556.6,183.1 564.1,191.6 			"/>
			<polygon class="st5" points="520.7,181 509.4,181.9 516.9,190.4 			"/>
			<polygon class="st5" points="552.9,215.1 541.6,215.9 549.1,224.5 			"/>
			<polygon class="st5" points="680.4,257.7 669.8,253.8 673,264.7 			"/>
			<polygon class="st5" points="623.9,233.2 613,230 617,240.6 			"/>
			<polygon class="st5" points="654.1,282.2 643.6,277.9 646.5,288.9 			"/>
			<polygon class="st5" points="743.6,359.1 735,351.7 734.2,363 			"/>
			<polygon class="st5" points="707.4,326.3 697.9,320.2 698.7,331.5 			"/>
			<polygon class="st5" points="709.9,372.9 701.5,365.2 700.4,376.5 			"/>
			<polygon class="st5" points="770.1,490.5 762.4,482.2 760.4,493.4 			"/>
			<polygon class="st5" points="743.6,439 736.3,430.3 733.7,441.4 			"/>
			<polygon class="st5" points="735.3,499 727.8,490.5 725.5,501.6 			"/>
			<g>
				<polygon class="st5" points="697.8,517.1 687.1,513.4 690.6,524.2 				"/>
				<polygon class="st5" points="644.7,499 634.2,494.5 637,505.6 				"/>
				<polygon class="st5" points="671,540.9 660.4,536.8 663.5,547.7 				"/>
			</g>
			<polygon class="st5" points="606.8,432.3 596.1,428.6 599.6,439.4 			"/>
			<polygon class="st5" points="561.3,400.2 551.6,394.4 552.8,405.7 			"/>
			<polygon class="st5" points="580,456.1 569.4,452 572.5,462.9 			"/>
			<polygon class="st5" points="545.7,342.1 536.1,336.1 537.1,347.4 			"/>
			<polygon class="st5" points="507.6,317.3 498.3,310.7 498.6,322.1 			"/>
			<polygon class="st5" points="514.2,359.2 504.8,352.8 505.4,364.2 			"/>
			<polygon class="st5" points="487.4,263.3 477.2,258.3 479.3,269.4 			"/>
			<polygon class="st5" points="430.8,230.4 421,224.8 422.4,236 			"/>
			<polygon class="st5" points="457.8,283.4 447.4,278.8 450,289.9 			"/>
		</g>
	</g>
</g>
<g id="Layer_2" class="st6">
	<rect x="364" y="163" class="st7" width="428" height="512"/>
</g>
</svg>
