<?xml version="1.0" encoding="utf-8"?>
<!-- Generator: Adobe Illustrator 22.0.1, SVG Export Plug-In . SVG Version: 6.00 Build 0)  -->
<svg version="1.1" xmlns="http://www.w3.org/2000/svg" xmlns:xlink="http://www.w3.org/1999/xlink" x="0px" y="0px"
	 viewBox="0 0 1160 768" style="enable-background:new 0 0 1160 768;" xml:space="preserve" preserveAspectRatio="xMidYMid slice"  width="100%">
<style type="text/css">
	.st0{fill:#0C2340;}
	.st1{fill:#3D4F66;}
	.st2{fill:#CED3D9;}
	.st3{fill:none;}
	.st4{fill:#F05B72;}
	.st5{font-family:'Elysio-Regular';}
	.st6{font-size:22px;}
	.st7{fill:none;stroke:#F05B72;stroke-width:2;stroke-miterlimit:10;}
	.st8{display:none;}
	.st9{display:inline;opacity:0.46;fill:#F05B72;}
</style>
<g id="Layer_1">
	<rect x="-8.8" y="-15.3" class="st0" width="1176" height="805.3"/>
</g>
<g id="Layer_2">
	<g>
		<path class="st1" d="M750,428.6c-3.1-24.1-10-47.7-19.2-70.1c-18.3-44.5-26.8-61.9-57.4-98.8c0,0-19.8-22.7-29.2-3.2
			c-4.2,7.8-8,16-11.4,24.4c-7.5-9.5-15.4-20.6-17.8-28.1c0,0-3-9.4-3-33.7h0c0,0,0,0,0,0c0-1.9-6.4-3.4-14.4-3.4
			c-7.9,0-14.4,1.5-14.4,3.4c0,0,0,0,0,0c0,24.3-3,33.7-3,33.7c-2.4,7.5-10.4,18.7-17.9,28.2h-0.4c-3.4-8.4-7.2-16.7-11.4-24.5
			c-9.4-19.6-29.2,3.2-29.2,3.2c-30.7,36.9-39.2,54.3-57.4,98.8c-9.2,22.5-16.1,46-19.2,70.1c-2.1,16.5-8.1,52.7,6.5,65
			c6.2,5.2,16.2,9.4,24.1,6.4c3.8-1.4,7.1-3.9,10.3-6.4c28.6-22,57.5-43.7,86.4-65.5c0,0,23.8-22.2,14.8-55c0,0-5-34.6-17.4-72.1
			c8.2-8.6,18.3-17,28.3-19.6c9.8,2.6,19.8,10.7,27.9,19.2c-12.5,37.6-17.5,72.4-17.5,72.4c-9,32.9,14.8,55,14.8,55
			c28.9,21.8,57.7,43.4,86.4,65.5c3.2,2.5,6.5,5,10.3,6.4c7.9,3,17.9-1.2,24.1-6.4C758.1,481.2,752.1,445,750,428.6z"/>
		<path class="st2" d="M744.7,432.9c-0.2-1.3-0.3-2.5-0.5-3.6c-2.8-21.9-9.2-45-18.9-68.7c-17.9-43.6-26.2-60.8-56.5-97.2
			c-2.7-3-9.6-9.1-14.3-9.1c-0.8,0-3,0-5.3,4.7l-0.1,0.1l-0.1,0.1c-3.9,7.1-7.6,15.1-11.1,23.8l-2.6,6.5c-0.5,1.2-2.1,1.5-3,0.4
			l-4.3-5.5c-10.3-13-16.6-23-18.8-30c-0.1-0.4-2.7-8.8-3.2-29v-9.1c-2.4-0.4-5.4-0.7-8.6-0.7c-3.2,0-6.2,0.3-8.6,0.7v9.2
			c-0.5,20.2-3,28.6-3.2,29c-2.2,6.9-8.6,17-18.9,30l-4.5,5.8c-0.8,1-2.4,0.8-3-0.4l-2.9-6.8c-3.5-8.7-7.3-16.8-11.1-23.9l-0.1-0.1
			l-0.1-0.1c-2.2-4.7-4.4-4.7-5.3-4.7c-4.8,0-11.7,6.1-14.3,9.1c-30.3,36.4-38.6,53.6-56.5,97.2c-9.7,23.6-16,46.7-18.9,68.7
			c-0.1,1.1-0.3,2.3-0.5,3.6c-2,15.2-6.3,46.8,4.9,56.2c4.4,3.7,10.2,6.1,14.7,6.1c1.4,0,2.6-0.2,3.7-0.6c3-1.1,5.9-3.4,8.8-5.6
			c24.2-18.6,48.9-37.2,72.9-55.3l13.2-9.9c0.1,0,0.1-0.1,0.2-0.1c2.6-2.6,20.4-21.5,12.9-49l-0.1-0.3l-0.1-0.4
			c0-0.3-5.1-34.5-17.2-71.1l-0.8-2.3c-0.2-0.6-0.1-1.3,0.4-1.7l1.7-1.8c11.1-11.6,21.5-18.7,31-21.2l1-0.3c0.3-0.1,0.6-0.1,0.9,0
			l1,0.3c9.4,2.5,19.7,9.4,30.6,20.8l1.7,1.8c0.4,0.5,0.6,1.1,0.4,1.7l-0.8,2.3c-12.2,36.6-17.2,71.1-17.3,71.4l-0.1,0.4l-0.1,0.3
			c-7.6,27.5,10.4,46.5,12.9,49c0.1,0.1,0.1,0.1,0.2,0.1l13.2,9.9c23.9,18,48.7,36.7,72.9,55.3c2.8,2.2,5.8,4.4,8.8,5.6
			c1.1,0.4,2.3,0.6,3.7,0.6c0,0,0,0,0,0c4.5,0,10.3-2.4,14.7-6C750.9,479.7,746.7,448.1,744.7,432.9z"/>
	</g>
	<g>
		<rect x="363" y="352.6" class="st3" width="53.5" height="18.3"/>
		<text transform="matrix(1 0 0 1 363 369.4561)" class="st4 st5 st6">200m</text>
	</g>
	<line class="st7" x1="423.7" y1="361.8" x2="438.3" y2="361.8"/>
</g>
<g id="marker" class="st8">
	<rect x="364" y="163" class="st9" width="428" height="512"/>
</g>
</svg>
