<?xml version="1.0" encoding="utf-8"?>
<!-- Generator: Adobe Illustrator 22.0.1, SVG Export Plug-In . SVG Version: 6.00 Build 0)  -->
<svg version="1.1" xmlns="http://www.w3.org/2000/svg" xmlns:xlink="http://www.w3.org/1999/xlink" x="0px" y="0px"
	 viewBox="0 0 1160 768" style="enable-background:new 0 0 1160 768;" xml:space="preserve" preserveAspectRatio="xMidYMid slice"  width="100%">
<style type="text/css">
	.st0{fill:#E6E9EB;}
	.st1{fill:#0C2340;}
	.st2{fill:#CED3D9;}
	.st3{fill:#3D4F66;}
	.st4{fill:none;}
	.st5{fill:#F05B72;}
	.st6{font-family:'Elysio-Regular';}
	.st7{font-size:22px;}
	.st8{fill:#FFFFFF;}
	.st9{fill:none;stroke:#FFFFFF;stroke-width:2;stroke-miterlimit:10;}
	.st10{fill:none;stroke:#F05B72;stroke-width:2;stroke-miterlimit:10;}
	.st11{display:none;}
	.st12{display:inline;opacity:0.46;fill:#F05B72;}
</style>
<g id="Bg">
	<g>
		<rect x="-6" y="-8" class="st0" width="1170" height="794"/>
	</g>
</g>
<g id="Sea">
	<path class="st1" d="M1167.2,190v208.6H-8.8V190v1.3c73.5,0,73.5,22.2,147,22.2c73.5,0,73.5-22.2,147-22.2s73.5,22.2,147,22.2
		c73.5,0,73.5-22.2,147-22.2c73.5,0,73.5,22.2,147,22.2c73.5,0,73.5-22.2,147-22.2c73.5,0,73.5,22.2,147,22.2s73.5-22.2,147-22.2
		V190z"/>
	<rect x="-8.8" y="393" class="st1" width="1176" height="397"/>
</g>
<g id="images">
	<g>
		<g>
			<path class="st2" d="M721.8,210.5c-1.9-1.9-4.3-3.9-6.9-4.6c-1.6-0.4-3.1-0.3-4.7-0.5c-2-0.2-3.9-1.9-5.7-2.9c0,0-0.1,0-0.1-0.1
				c-6.9-3.9-14.2-6.7-21.6-9.5c-7.2-2.7-14.5-5.1-21.9-7.2c-14.7-4.2-29.8-7-45.1-7.9c0,0-39.2-4.2-70.1,1.7c0,0-4.4,0.7-8.9-3.1
				c-1.3-1-2.7-1.9-4.2-2.7c-1.4-0.7-3-1.4-4.6-1.6c-0.8-0.1-1.6-0.2-2.4-0.1c-0.7,0.1-1.8,0.1-2.3,0.6c-0.6,0.5-0.1,1.2,0.4,1.6
				c1,0.6,2,1.3,2.4,2.5c0.2,0.6,0.2,1.3,0.1,2c0,0.8-0.1,3.7-0.3,4.2c-0.4,0.9-1.4,1.4-2.3,1.7c0,0-18.3,7.1-27,10.8
				c0,0-22.2,10.5-34.9,18c-1.5,0.9-2.9,1.9-4.3,2.9c-2.9,2-5.7,4.2-8.3,6.7c-0.7,0.7-1.4,1.4-2.1,2.2c-0.7,0.8-1.2,1.7-2.3,2
				c-0.9,0.2-1.9,0-2.8-0.3c-2.4-0.9-7.9-3.4-12.7-2.8c0,0-1.7,0.2-0.1,1.1c0,0,0.1,0.1,0.2,0.2c0.3,0.4,1.1,1.9-0.9,3.7
				c0,0-3.1,3.2,0,10.7c0,0,2.2,4.7-1.9,9.5c0,0-0.9,1.6-2.7,3.2c0,0-3.9,1.9,1.2,1.7c0,0,15.6-2.3,23.4-16.8
				c0.7-1.4,1.9-1.4,1.9-1.4s7.1,0.2,15.9-0.1c4.6-0.2,9-0.9,14.3-0.9c4.2-0.1,41.2,0.9,41.2,0.9c9.5-0.1,18.5,1.5,18.5,1.5
				c31.6,4.8,78.4,8.3,102.8,6.2c0,0,1,0.1-0.2,1.2c0,0-2.5,2.1-0.3,2.1c0,0,10.4,1.1,19-5.4c0,0,12-1.3,24.9-4.1
				c0,0,17.9-0.6,31.5-1.7c0,0,1.5-0.2,7-0.1c2.8,0.1,9.6,0.7,10.6-2.7c0.8-2.6-2.2-3.9-3.5-5.6
				C732.3,227.1,723.9,212.6,721.8,210.5z"/>
			<g>
				<path class="st3" d="M667.8,156.1c0.4,0.1,0.6,0.3,0.7,0.4c0.1,0.1,0.2,0.3,0.2,0.4c0,0.1-0.1,0.3-0.2,0.4
					c-0.1,0.1-0.4,0.3-0.7,0.4c-0.4-0.1-0.6-0.3-0.7-0.4c-0.1-0.1-0.2-0.3-0.2-0.4c0-0.1,0.1-0.3,0.2-0.4
					C667.2,156.3,667.4,156.2,667.8,156.1z"/>
				<path class="st3" d="M665.2,158.5c0.4-0.2,0.6-0.2,0.7-0.2c0.2,0,0.2,0,0.3,0.1c0,0.1,0,0.1-0.1,0.3c-0.1,0.1-0.2,0.3-0.5,0.6
					c-0.4,0.2-0.6,0.2-0.7,0.2c-0.2,0-0.2,0-0.3-0.1c0-0.1,0-0.1,0.1-0.3C664.8,158.9,664.9,158.7,665.2,158.5z"/>
				<path class="st3" d="M664.9,156.1c0.4-0.2,0.6-0.2,0.8-0.2c0.2,0,0.3,0,0.4,0.1c0.1,0.1,0.1,0.2,0.1,0.4c0,0.2-0.1,0.4-0.2,0.8
					c-0.4,0.2-0.6,0.2-0.8,0.2c-0.2,0-0.3,0-0.4-0.1c-0.1-0.1-0.1-0.2-0.1-0.4C664.6,156.7,664.7,156.4,664.9,156.1z"/>
				<path class="st3" d="M663.7,164.7c0.2-0.4,0.4-0.5,0.5-0.6c0.2-0.1,0.3-0.1,0.4-0.1c0.1,0,0.2,0.1,0.3,0.3
					c0.1,0.2,0.2,0.4,0.2,0.8c-0.2,0.4-0.4,0.5-0.5,0.6c-0.2,0.1-0.3,0.1-0.4,0.1c-0.1,0-0.2-0.1-0.3-0.3
					C663.8,165.3,663.7,165.1,663.7,164.7z"/>
				<path class="st3" d="M665.6,160.6c0.1-0.4,0.3-0.6,0.4-0.7c0.1-0.1,0.2-0.2,0.2-0.2c0.1,0,0.1,0.1,0.1,0.2c0,0.2,0.1,0.4,0,0.8
					c-0.1,0.4-0.3,0.6-0.4,0.7c-0.1,0.1-0.2,0.2-0.2,0.2c-0.1,0-0.1-0.1-0.1-0.2C665.6,161.2,665.6,160.9,665.6,160.6z"/>
				<path class="st3" d="M660.4,150.3c-0.1,0.4-0.3,0.6-0.4,0.7c-0.1,0.1-0.3,0.2-0.4,0.2c-0.1,0-0.3-0.1-0.4-0.2
					c-0.1-0.1-0.3-0.4-0.4-0.7c0.1-0.4,0.3-0.6,0.4-0.7c0.1-0.1,0.3-0.2,0.4-0.2c0.1,0,0.3,0.1,0.4,0.2
					C660.2,149.7,660.3,149.9,660.4,150.3z"/>
				<path class="st3" d="M658,147.8c0.2,0.4,0.2,0.6,0.2,0.7c0,0.2,0,0.2-0.1,0.3c-0.1,0-0.1,0-0.3-0.1c-0.1-0.1-0.3-0.2-0.6-0.5
					c-0.2-0.4-0.2-0.6-0.2-0.7c0-0.2,0-0.2,0.1-0.3c0.1,0,0.1,0,0.3,0.1C657.6,147.3,657.8,147.5,658,147.8z"/>
				<path class="st3" d="M660.4,147.4c0.2,0.4,0.2,0.6,0.2,0.8c0,0.2,0,0.3-0.1,0.4c-0.1,0.1-0.2,0.1-0.4,0.1
					c-0.2,0-0.4-0.1-0.8-0.2c-0.2-0.4-0.2-0.6-0.2-0.8c0-0.2,0-0.3,0.1-0.4c0.1-0.1,0.2-0.1,0.4-0.1
					C659.8,147.2,660,147.2,660.4,147.4z"/>
				<path class="st3" d="M655.9,148.1c0.4,0.1,0.6,0.3,0.7,0.4c0.1,0.1,0.2,0.2,0.2,0.2c0,0.1-0.1,0.1-0.2,0.1c-0.2,0-0.4,0.1-0.8,0
					c-0.4-0.1-0.6-0.3-0.7-0.4c-0.1-0.1-0.2-0.2-0.2-0.2c0-0.1,0.1-0.1,0.2-0.1C655.3,148.2,655.5,148.1,655.9,148.1z"/>
				<path class="st3" d="M684.4,165.9c0.4,0.1,0.6,0.3,0.7,0.4c0.1,0.1,0.2,0.3,0.2,0.4c0,0.1-0.1,0.3-0.2,0.4
					c-0.1,0.1-0.4,0.3-0.7,0.4c-0.4-0.1-0.6-0.3-0.7-0.4c-0.1-0.1-0.2-0.3-0.2-0.4c0-0.1,0.1-0.3,0.2-0.4
					C683.8,166.2,684,166.1,684.4,165.9z"/>
				<path class="st3" d="M678.3,162.6c0.1,0.4,0.1,0.6,0.1,0.8c0,0.2-0.1,0.3-0.2,0.4c-0.1,0.1-0.3,0.1-0.4,0
					c-0.2-0.1-0.4-0.2-0.7-0.4c-0.1-0.4-0.1-0.6-0.1-0.8c0-0.2,0.1-0.3,0.2-0.4c0.1-0.1,0.3-0.1,0.4,0
					C677.8,162.2,678,162.3,678.3,162.6z"/>
				<path class="st3" d="M681.9,168.3c0.4-0.2,0.6-0.2,0.7-0.2c0.2,0,0.2,0,0.3,0.1c0,0.1,0,0.1-0.1,0.3c-0.1,0.1-0.2,0.3-0.5,0.6
					c-0.4,0.2-0.6,0.2-0.7,0.2c-0.2,0-0.2,0-0.3-0.1c0-0.1,0-0.1,0.1-0.3C681.4,168.7,681.6,168.6,681.9,168.3z"/>
				<path class="st3" d="M674.6,160c-0.4,0.2-0.6,0.2-0.7,0.2c-0.2,0-0.2,0-0.3-0.1c0-0.1,0-0.1,0.1-0.3c0.1-0.1,0.2-0.3,0.5-0.6
					c0.4-0.2,0.6-0.2,0.7-0.2c0.2,0,0.2,0,0.3,0.1c0,0.1,0,0.1-0.1,0.3C675,159.5,674.9,159.7,674.6,160z"/>
				<path class="st3" d="M681.5,165.9c0.4-0.2,0.6-0.2,0.8-0.2c0.2,0,0.3,0,0.4,0.1c0.1,0.1,0.1,0.2,0.1,0.4c0,0.2-0.1,0.4-0.2,0.8
					c-0.4,0.2-0.6,0.2-0.8,0.2c-0.2,0-0.3,0-0.4-0.1c-0.1-0.1-0.1-0.2-0.1-0.4C681.3,166.5,681.3,166.3,681.5,165.9z"/>
				<path class="st3" d="M656.6,141.9c0.4,0.2,0.5,0.4,0.6,0.5c0.1,0.2,0.1,0.3,0.1,0.4c0,0.1-0.1,0.2-0.3,0.3
					c-0.2,0.1-0.4,0.2-0.8,0.2c-0.4-0.2-0.5-0.4-0.6-0.5c-0.1-0.2-0.1-0.3-0.1-0.4c0-0.1,0.1-0.2,0.3-0.3
					C656,142.1,656.2,142,656.6,141.9z"/>
				<path class="st3" d="M682.3,170.4c0.1-0.4,0.3-0.6,0.4-0.7c0.1-0.1,0.2-0.2,0.2-0.2c0.1,0,0.1,0.1,0.1,0.2c0,0.2,0.1,0.4,0,0.8
					c-0.1,0.4-0.3,0.6-0.4,0.7c-0.1,0.1-0.2,0.2-0.2,0.2c-0.1,0-0.1-0.1-0.1-0.2C682.3,171,682.2,170.8,682.3,170.4z"/>
				<path class="st3" d="M677.1,154.9c0.1,0.4,0.1,0.6,0.1,0.8c0,0.2-0.1,0.3-0.2,0.4c-0.1,0.1-0.3,0.1-0.4,0
					c-0.2-0.1-0.4-0.2-0.7-0.4c-0.1-0.4-0.1-0.6-0.1-0.8c0-0.2,0.1-0.3,0.2-0.4c0.1-0.1,0.3-0.1,0.4,0
					C676.6,154.5,676.8,154.6,677.1,154.9z"/>
				<path class="st3" d="M677.6,158.4c0.4,0.1,0.6,0.3,0.7,0.4c0.1,0.1,0.2,0.2,0.2,0.2c0,0.1-0.1,0.1-0.2,0.1c-0.2,0-0.4,0.1-0.8,0
					c-0.4-0.1-0.6-0.3-0.7-0.4c-0.1-0.1-0.2-0.2-0.2-0.2c0-0.1,0.1-0.1,0.2-0.1C677,158.4,677.2,158.4,677.6,158.4z"/>
				<path class="st3" d="M682.1,137.7c0.4-0.1,0.6-0.1,0.8-0.1c0.2,0,0.3,0.1,0.4,0.2c0.1,0.1,0.1,0.3,0,0.4
					c-0.1,0.2-0.2,0.4-0.4,0.7c-0.4,0.1-0.6,0.1-0.8,0.1c-0.2,0-0.3-0.1-0.4-0.2c-0.1-0.1-0.1-0.3,0-0.4
					C681.8,138.3,681.9,138.1,682.1,137.7z"/>
				<path class="st3" d="M679.3,139.6c0.2,0.4,0.2,0.6,0.2,0.7c0,0.2,0,0.2-0.1,0.3c-0.1,0-0.1,0-0.3-0.1c-0.1-0.1-0.3-0.2-0.6-0.5
					c-0.2-0.4-0.2-0.6-0.2-0.7c0-0.2,0-0.2,0.1-0.3c0.1,0,0.1,0,0.3,0.1C678.9,139.2,679.1,139.3,679.3,139.6z"/>
				<path class="st3" d="M682.9,152c-0.4,0.2-0.6,0.2-0.7,0.2c-0.2,0-0.2,0-0.3-0.1c0-0.1,0-0.1,0.1-0.3c0.1-0.1,0.2-0.3,0.5-0.6
					c0.4-0.2,0.6-0.2,0.7-0.2c0.2,0,0.2,0,0.3,0.1c0,0.1,0,0.1-0.1,0.3C683.3,151.5,683.2,151.7,682.9,152z"/>
				<path class="st3" d="M710,149.9c0.4,0.2,0.5,0.4,0.6,0.5c0.1,0.2,0.1,0.3,0.1,0.4c0,0.1-0.1,0.2-0.3,0.3
					c-0.2,0.1-0.4,0.2-0.8,0.2c-0.4-0.2-0.5-0.4-0.6-0.5c-0.1-0.2-0.1-0.3-0.1-0.4c0-0.1,0.1-0.2,0.3-0.3
					C709.3,150,709.6,150,710,149.9z"/>
				<path class="st3" d="M706.7,149.3c-0.1,0.4-0.3,0.6-0.4,0.7c-0.1,0.1-0.2,0.2-0.2,0.2c-0.1,0-0.1-0.1-0.1-0.2
					c0-0.2-0.1-0.4,0-0.8c0.1-0.4,0.3-0.6,0.4-0.7c0.1-0.1,0.2-0.2,0.2-0.2c0.1,0,0.1,0.1,0.1,0.2
					C706.7,148.7,706.7,148.9,706.7,149.3z"/>
				<path class="st3" d="M685.4,146.9c0.1,0.4,0.1,0.6,0.1,0.8c0,0.2-0.1,0.3-0.2,0.4c-0.1,0.1-0.3,0.1-0.4,0
					c-0.2-0.1-0.4-0.2-0.7-0.4c-0.1-0.4-0.1-0.6-0.1-0.8c0-0.2,0.1-0.3,0.2-0.4c0.1-0.1,0.3-0.1,0.4,0
					C684.9,146.5,685.1,146.6,685.4,146.9z"/>
				<path class="st3" d="M681.7,144.3c-0.4,0.2-0.6,0.2-0.7,0.2c-0.2,0-0.2,0-0.3-0.1c0-0.1,0-0.1,0.1-0.3c0.1-0.1,0.2-0.3,0.5-0.6
					c0.4-0.2,0.6-0.2,0.7-0.2c0.2,0,0.2,0,0.3,0.1c0,0.1,0,0.1-0.1,0.3C682.1,143.9,682,144,681.7,144.3z"/>
				<path class="st3" d="M681.7,148.5c0.4,0.2,0.5,0.4,0.6,0.5c0.1,0.2,0.1,0.3,0.1,0.4c0,0.1-0.1,0.2-0.3,0.3
					c-0.2,0.1-0.4,0.2-0.8,0.2c-0.4-0.2-0.5-0.4-0.6-0.5c-0.1-0.2-0.1-0.3-0.1-0.4c0-0.1,0.1-0.2,0.3-0.3
					C681.1,148.6,681.3,148.5,681.7,148.5z"/>
				<path class="st3" d="M678.4,147.8c-0.1,0.4-0.3,0.6-0.4,0.7c-0.1,0.1-0.2,0.2-0.2,0.2c-0.1,0-0.1-0.1-0.1-0.2
					c0-0.2-0.1-0.4,0-0.8c0.1-0.4,0.3-0.6,0.4-0.7c0.1-0.1,0.2-0.2,0.2-0.2c0.1,0,0.1,0.1,0.1,0.2
					C678.4,147.2,678.5,147.4,678.4,147.8z"/>
				<path class="st3" d="M684.8,156.1c0.4-0.1,0.6-0.1,0.8-0.1c0.2,0,0.3,0.1,0.4,0.2c0.1,0.1,0.1,0.3,0,0.4
					c-0.1,0.2-0.2,0.4-0.4,0.7c-0.4,0.1-0.6,0.1-0.8,0.1c-0.2,0-0.3-0.1-0.4-0.2c-0.1-0.1-0.1-0.3,0-0.4
					C684.5,156.6,684.6,156.4,684.8,156.1z"/>
				<path class="st3" d="M682.1,158c0.2,0.4,0.2,0.6,0.2,0.7c0,0.2,0,0.2-0.1,0.3c-0.1,0-0.1,0-0.3-0.1c-0.1-0.1-0.3-0.2-0.6-0.5
					c-0.2-0.4-0.2-0.6-0.2-0.7c0-0.2,0-0.2,0.1-0.3c0.1,0,0.1,0,0.3,0.1C681.6,157.5,681.8,157.7,682.1,158z"/>
				<path class="st3" d="M686.7,162.1c0.2,0.4,0.2,0.6,0.2,0.8c0,0.2,0,0.3-0.1,0.4c-0.1,0.1-0.2,0.1-0.4,0.1
					c-0.2,0-0.4-0.1-0.8-0.2c-0.2-0.4-0.2-0.6-0.2-0.8c0-0.2,0-0.3,0.1-0.4c0.1-0.1,0.2-0.1,0.4-0.1
					C686.1,161.9,686.3,161.9,686.7,162.1z"/>
				<path class="st3" d="M679.2,161.6c0.4,0.2,0.5,0.4,0.6,0.5c0.1,0.2,0.1,0.3,0.1,0.4c0,0.1-0.1,0.2-0.3,0.3
					c-0.2,0.1-0.4,0.2-0.8,0.2c-0.4-0.2-0.5-0.4-0.6-0.5c-0.1-0.2-0.1-0.3-0.1-0.4c0-0.1,0.1-0.2,0.3-0.3
					C678.6,161.7,678.8,161.6,679.2,161.6z"/>
				<path class="st3" d="M683.2,162c0.4,0.1,0.6,0.3,0.7,0.4c0.1,0.1,0.2,0.2,0.2,0.2c0,0.1-0.1,0.1-0.2,0.1c-0.2,0-0.4,0.1-0.8,0
					c-0.4-0.1-0.6-0.3-0.7-0.4c-0.1-0.1-0.2-0.2-0.2-0.2c0-0.1,0.1-0.1,0.2-0.1C682.6,162,682.8,162,683.2,162z"/>
				<path class="st3" d="M674.7,162.4c-0.1,0.4-0.3,0.6-0.4,0.7c-0.1,0.1-0.2,0.2-0.2,0.2c-0.1,0-0.1-0.1-0.1-0.2
					c0-0.2-0.1-0.4,0-0.8c0.1-0.4,0.3-0.6,0.4-0.7c0.1-0.1,0.2-0.2,0.2-0.2c0.1,0,0.1,0.1,0.1,0.2
					C674.7,161.8,674.7,162,674.7,162.4z"/>
				<path class="st3" d="M684.7,160.1c0.4,0.1,0.6,0.3,0.7,0.4c0.1,0.1,0.2,0.3,0.2,0.4c0,0.1-0.1,0.3-0.2,0.4
					c-0.1,0.1-0.4,0.3-0.7,0.4c-0.4-0.1-0.6-0.3-0.7-0.4c-0.1-0.1-0.2-0.3-0.2-0.4c0-0.1,0.1-0.3,0.2-0.4
					C684.1,160.3,684.3,160.2,684.7,160.1z"/>
				<path class="st3" d="M659.7,143.1c0.4-0.1,0.6-0.1,0.8-0.1c0.2,0,0.3,0.1,0.4,0.2c0.1,0.1,0.1,0.3,0,0.4
					c-0.1,0.2-0.2,0.4-0.4,0.7c-0.4,0.1-0.6,0.1-0.8,0.1c-0.2,0-0.3-0.1-0.4-0.2c-0.1-0.1-0.1-0.3,0-0.4
					C659.4,143.6,659.5,143.4,659.7,143.1z"/>
				<path class="st3" d="M664,141.5c0.4-0.2,0.6-0.2,0.7-0.2c0.2,0,0.2,0,0.3,0.1c0,0.1,0,0.1-0.1,0.3c-0.1,0.1-0.2,0.3-0.5,0.6
					c-0.4,0.2-0.6,0.2-0.7,0.2c-0.2,0-0.2,0-0.3-0.1c0-0.1,0-0.1,0.1-0.3C663.6,142,663.7,141.8,664,141.5z"/>
				<path class="st3" d="M656.9,145c0.2,0.4,0.2,0.6,0.2,0.7c0,0.2,0,0.2-0.1,0.3c-0.1,0-0.1,0-0.3-0.1c-0.1-0.1-0.3-0.2-0.6-0.5
					c-0.2-0.4-0.2-0.6-0.2-0.7c0-0.2,0-0.2,0.1-0.3c0.1,0,0.1,0,0.3,0.1C656.5,144.5,656.7,144.7,656.9,145z"/>
				<path class="st3" d="M680.4,157.5c0.2,0.4,0.2,0.6,0.2,0.8c0,0.2,0,0.3-0.1,0.4c-0.1,0.1-0.2,0.1-0.4,0.1
					c-0.2,0-0.4-0.1-0.8-0.2c-0.2-0.4-0.2-0.6-0.2-0.8c0-0.2,0-0.3,0.1-0.4c0.1-0.1,0.2-0.1,0.4-0.1
					C679.8,157.3,680.1,157.4,680.4,157.5z"/>
				<path class="st3" d="M690.6,140.4c0.2,0.4,0.2,0.6,0.2,0.8c0,0.2,0,0.3-0.1,0.4c-0.1,0.1-0.2,0.1-0.4,0.1
					c-0.2,0-0.4-0.1-0.8-0.2c-0.2-0.4-0.2-0.6-0.2-0.8c0-0.2,0-0.3,0.1-0.4c0.1-0.1,0.2-0.1,0.4-0.1
					C690,140.2,690.2,140.2,690.6,140.4z"/>
				<path class="st3" d="M703.4,142c0.2,0.4,0.2,0.6,0.2,0.8c0,0.2,0,0.3-0.1,0.4c-0.1,0.1-0.2,0.1-0.4,0.1c-0.2,0-0.4-0.1-0.8-0.2
					c-0.2-0.4-0.2-0.6-0.2-0.8c0-0.2,0-0.3,0.1-0.4c0.1-0.1,0.2-0.1,0.4-0.1C702.8,141.7,703,141.8,703.4,142z"/>
				<path class="st3" d="M695.9,141.4c0.4,0.2,0.5,0.4,0.6,0.5c0.1,0.2,0.1,0.3,0.1,0.4c0,0.1-0.1,0.2-0.3,0.3
					c-0.2,0.1-0.4,0.2-0.8,0.2c-0.4-0.2-0.5-0.4-0.6-0.5c-0.1-0.2-0.1-0.3-0.1-0.4c0-0.1,0.1-0.2,0.3-0.3
					C695.3,141.6,695.5,141.5,695.9,141.4z"/>
				<path class="st3" d="M699.9,141.8c0.4,0.1,0.6,0.3,0.7,0.4c0.1,0.1,0.2,0.2,0.2,0.2c0,0.1-0.1,0.1-0.2,0.1c-0.2,0-0.4,0.1-0.8,0
					c-0.4-0.1-0.6-0.3-0.7-0.4c-0.1-0.1-0.2-0.2-0.2-0.2c0-0.1,0.1-0.1,0.2-0.1C699.3,141.8,699.5,141.8,699.9,141.8z"/>
				<path class="st3" d="M691.4,142.2c-0.1,0.4-0.3,0.6-0.4,0.7c-0.1,0.1-0.2,0.2-0.2,0.2c-0.1,0-0.1-0.1-0.1-0.2
					c0-0.2-0.1-0.4,0-0.8c0.1-0.4,0.3-0.6,0.4-0.7c0.1-0.1,0.2-0.2,0.2-0.2c0.1,0,0.1,0.1,0.1,0.2
					C691.4,141.6,691.4,141.8,691.4,142.2z"/>
				<path class="st3" d="M701.4,139.9c0.4,0.1,0.6,0.3,0.7,0.4c0.1,0.1,0.2,0.3,0.2,0.4c0,0.1-0.1,0.3-0.2,0.4
					c-0.1,0.1-0.4,0.3-0.7,0.4c-0.4-0.1-0.6-0.3-0.7-0.4c-0.1-0.1-0.2-0.3-0.2-0.4c0-0.1,0.1-0.3,0.2-0.4
					C700.8,140.2,701,140,701.4,139.9z"/>
				<path class="st3" d="M694.4,145.2c0.4-0.1,0.6-0.1,0.8-0.1c0.2,0,0.3,0.1,0.4,0.2c0.1,0.1,0.1,0.3,0,0.4
					c-0.1,0.2-0.2,0.4-0.4,0.7c-0.4,0.1-0.6,0.1-0.8,0.1c-0.2,0-0.3-0.1-0.4-0.2c-0.1-0.1-0.1-0.3,0-0.4
					C694.1,145.7,694.2,145.5,694.4,145.2z"/>
				<path class="st3" d="M698.7,143.6c0.4-0.2,0.6-0.2,0.7-0.2c0.2,0,0.2,0,0.3,0.1c0,0.1,0,0.1-0.1,0.3c-0.1,0.1-0.2,0.3-0.5,0.6
					c-0.4,0.2-0.6,0.2-0.7,0.2c-0.2,0-0.2,0-0.3-0.1c0-0.1,0-0.1,0.1-0.3C698.3,144,698.4,143.9,698.7,143.6z"/>
				<path class="st3" d="M691.6,147c0.2,0.4,0.2,0.6,0.2,0.7c0,0.2,0,0.2-0.1,0.3c-0.1,0-0.1,0-0.3-0.1c-0.1-0.1-0.3-0.2-0.6-0.5
					c-0.2-0.4-0.2-0.6-0.2-0.7c0-0.2,0-0.2,0.1-0.3c0.1,0,0.1,0,0.3,0.1C691.2,146.6,691.4,146.7,691.6,147z"/>
				<path class="st3" d="M697.1,137.4c0.2,0.4,0.2,0.6,0.2,0.8c0,0.2,0,0.3-0.1,0.4c-0.1,0.1-0.2,0.1-0.4,0.1
					c-0.2,0-0.4-0.1-0.8-0.2c-0.2-0.4-0.2-0.6-0.2-0.8c0-0.2,0-0.3,0.1-0.4c0.1-0.1,0.2-0.1,0.4-0.1
					C696.5,137.1,696.8,137.2,697.1,137.4z"/>
				<path class="st3" d="M693.7,137.3c0.4,0.1,0.6,0.3,0.7,0.4c0.1,0.1,0.2,0.2,0.2,0.2c0,0.1-0.1,0.1-0.2,0.1c-0.2,0-0.4,0.1-0.8,0
					c-0.4-0.1-0.6-0.3-0.7-0.4c-0.1-0.1-0.2-0.2-0.2-0.2c0-0.1,0.1-0.1,0.2-0.1C693.1,137.3,693.3,137.2,693.7,137.3z"/>
				<path class="st3" d="M695.1,135.3c0.4,0.1,0.6,0.3,0.7,0.4c0.1,0.1,0.2,0.3,0.2,0.4c0,0.1-0.1,0.3-0.2,0.4
					c-0.1,0.1-0.4,0.3-0.7,0.4c-0.4-0.1-0.6-0.3-0.7-0.4c-0.1-0.1-0.2-0.3-0.2-0.4c0-0.1,0.1-0.3,0.2-0.4
					C694.5,135.6,694.7,135.5,695.1,135.3z"/>
				<path class="st3" d="M692.5,139c0.4-0.2,0.6-0.2,0.7-0.2c0.2,0,0.2,0,0.3,0.1c0,0.1,0,0.1-0.1,0.3c-0.1,0.1-0.2,0.3-0.5,0.6
					c-0.4,0.2-0.6,0.2-0.7,0.2c-0.2,0-0.2,0-0.3-0.1c0-0.1,0-0.1,0.1-0.3C692,139.5,692.2,139.3,692.5,139z"/>
				<path class="st3" d="M694.2,149.1c0.4,0.1,0.6,0.3,0.7,0.4c0.1,0.1,0.2,0.3,0.2,0.4c0,0.1-0.1,0.3-0.2,0.4
					c-0.1,0.1-0.4,0.3-0.7,0.4c-0.4-0.1-0.6-0.3-0.7-0.4c-0.1-0.1-0.2-0.3-0.2-0.4c0-0.1,0.1-0.3,0.2-0.4
					C693.6,149.4,693.8,149.3,694.2,149.1z"/>
				<path class="st3" d="M690,146.6c0.2,0.4,0.2,0.6,0.2,0.8c0,0.2,0,0.3-0.1,0.4c-0.1,0.1-0.2,0.1-0.4,0.1c-0.2,0-0.4-0.1-0.8-0.2
					c-0.2-0.4-0.2-0.6-0.2-0.8c0-0.2,0-0.3,0.1-0.4c0.1-0.1,0.2-0.1,0.4-0.1C689.4,146.4,689.6,146.4,690,146.6z"/>
				<path class="st3" d="M677,157.4c0.4,0.1,0.6,0.3,0.7,0.4c0.1,0.1,0.2,0.2,0.2,0.2c0,0.1-0.1,0.1-0.2,0.1c-0.2,0-0.4,0.1-0.8,0
					c-0.4-0.1-0.6-0.3-0.7-0.4c-0.1-0.1-0.2-0.2-0.2-0.2c0-0.1,0.1-0.1,0.2-0.1C676.3,157.4,676.6,157.4,677,157.4z"/>
				<path class="st3" d="M678.4,155.5c0.4,0.1,0.6,0.3,0.7,0.4c0.1,0.1,0.2,0.3,0.2,0.4c0,0.1-0.1,0.3-0.2,0.4
					c-0.1,0.1-0.4,0.3-0.7,0.4c-0.4-0.1-0.6-0.3-0.7-0.4c-0.1-0.1-0.2-0.3-0.2-0.4c0-0.1,0.1-0.3,0.2-0.4
					C677.8,155.8,678,155.6,678.4,155.5z"/>
				<path class="st3" d="M675.7,159.2c0.4-0.2,0.6-0.2,0.7-0.2c0.2,0,0.2,0,0.3,0.1c0,0.1,0,0.1-0.1,0.3c-0.1,0.1-0.2,0.3-0.5,0.6
					c-0.4,0.2-0.6,0.2-0.7,0.2c-0.2,0-0.2,0-0.3-0.1c0-0.1,0-0.1,0.1-0.3C675.3,159.6,675.4,159.5,675.7,159.2z"/>
				<path class="st3" d="M716.8,152.9c-0.4-0.1-0.6-0.3-0.7-0.4c-0.1-0.1-0.2-0.3-0.2-0.4c0-0.1,0.1-0.3,0.2-0.4
					c0.1-0.1,0.4-0.3,0.7-0.4c0.4,0.1,0.6,0.3,0.7,0.4c0.1,0.1,0.2,0.3,0.2,0.4c0,0.1-0.1,0.3-0.2,0.4
					C717.3,152.6,717.1,152.8,716.8,152.9z"/>
				<path class="st3" d="M722.4,148c-0.4,0.1-0.6,0.1-0.8,0.1c-0.2,0-0.3-0.1-0.4-0.2c-0.1-0.1-0.1-0.3,0-0.4
					c0.1-0.2,0.2-0.4,0.4-0.7c0.4-0.1,0.6-0.1,0.8-0.1c0.2,0,0.3,0.1,0.4,0.2c0.1,0.1,0.1,0.3,0,0.4
					C722.8,147.4,722.7,147.6,722.4,148z"/>
				<path class="st3" d="M719.3,150.5c-0.4,0.2-0.6,0.2-0.7,0.2c-0.2,0-0.2,0-0.3-0.1c0-0.1,0-0.1,0.1-0.3c0.1-0.1,0.2-0.3,0.5-0.6
					c0.4-0.2,0.6-0.2,0.7-0.2c0.2,0,0.2,0,0.3,0.1c0,0.1,0,0.1-0.1,0.3C719.7,150.1,719.6,150.2,719.3,150.5z"/>
				<path class="st3" d="M665.8,151.3c-0.4,0.2-0.6,0.2-0.7,0.2c-0.2,0-0.2,0-0.3-0.1c0-0.1,0-0.1,0.1-0.3c0.1-0.1,0.2-0.3,0.5-0.6
					c0.4-0.2,0.6-0.2,0.7-0.2c0.2,0,0.2,0,0.3,0.1c0,0.1,0,0.1-0.1,0.3C666.2,150.8,666.1,151,665.8,151.3z"/>
				<path class="st3" d="M719.6,152.9c-0.4,0.2-0.6,0.2-0.8,0.2c-0.2,0-0.3,0-0.4-0.1c-0.1-0.1-0.1-0.2-0.1-0.4
					c0-0.2,0.1-0.4,0.2-0.8c0.4-0.2,0.6-0.2,0.8-0.2c0.2,0,0.3,0,0.4,0.1c0.1,0.1,0.1,0.2,0.1,0.4
					C719.9,152.3,719.8,152.5,719.6,152.9z"/>
				<path class="st3" d="M720.8,144.3c-0.2,0.4-0.4,0.5-0.5,0.6c-0.2,0.1-0.3,0.1-0.4,0.1c-0.1,0-0.2-0.1-0.3-0.3
					c-0.1-0.2-0.2-0.4-0.2-0.8c0.2-0.4,0.4-0.5,0.5-0.6c0.2-0.1,0.3-0.1,0.4-0.1c0.1,0,0.2,0.1,0.3,0.3
					C720.7,143.6,720.8,143.8,720.8,144.3z"/>
				<path class="st3" d="M718.9,148.4c-0.1,0.4-0.3,0.6-0.4,0.7c-0.1,0.1-0.2,0.2-0.2,0.2c-0.1,0-0.1-0.1-0.1-0.2
					c0-0.2-0.1-0.4,0-0.8c0.1-0.4,0.3-0.6,0.4-0.7c0.1-0.1,0.2-0.2,0.2-0.2c0.1,0,0.1,0.1,0.1,0.2
					C718.9,147.8,718.9,148,718.9,148.4z"/>
				<path class="st3" d="M664.6,155.2c0.4,0.1,0.6,0.3,0.7,0.4c0.1,0.1,0.2,0.2,0.2,0.2c0,0.1-0.1,0.1-0.2,0.1c-0.2,0-0.4,0.1-0.8,0
					c-0.4-0.1-0.6-0.3-0.7-0.4c-0.1-0.1-0.2-0.2-0.2-0.2c0-0.1,0.1-0.1,0.2-0.1C664,155.2,664.2,155.1,664.6,155.2z"/>
				<path class="st3" d="M724.4,151.7c-0.4-0.1-0.6-0.3-0.7-0.4c-0.1-0.1-0.2-0.3-0.2-0.4c0-0.1,0.1-0.3,0.2-0.4
					c0.1-0.1,0.4-0.3,0.7-0.4c0.4,0.1,0.6,0.3,0.7,0.4c0.1,0.1,0.2,0.3,0.2,0.4c0,0.1-0.1,0.3-0.2,0.4
					C725,151.4,724.8,151.6,724.4,151.7z"/>
				<path class="st3" d="M668.3,146.2c0.1,0.4,0.1,0.6,0.1,0.8c0,0.2-0.1,0.3-0.2,0.4c-0.1,0.1-0.3,0.1-0.4,0
					c-0.2-0.1-0.4-0.2-0.7-0.4c-0.1-0.4-0.1-0.6-0.1-0.8c0-0.2,0.1-0.3,0.2-0.4c0.1-0.1,0.3-0.1,0.4,0
					C667.8,145.8,668,145.9,668.3,146.2z"/>
				<path class="st3" d="M670.9,149.3c0.2,0.4,0.2,0.6,0.2,0.7c0,0.2,0,0.2-0.1,0.3c-0.1,0-0.1,0-0.3-0.1c-0.1-0.1-0.3-0.2-0.6-0.5
					c-0.2-0.4-0.2-0.6-0.2-0.7c0-0.2,0-0.2,0.1-0.3c0.1,0,0.1,0,0.3,0.1C670.4,148.9,670.6,149,670.9,149.3z"/>
				<path class="st3" d="M664.6,143.6c-0.4,0.2-0.6,0.2-0.7,0.2c-0.2,0-0.2,0-0.3-0.1c0-0.1,0-0.1,0.1-0.3c0.1-0.1,0.2-0.3,0.5-0.6
					c0.4-0.2,0.6-0.2,0.7-0.2c0.2,0,0.2,0,0.3,0.1c0,0.1,0,0.1-0.1,0.3C665,143.2,664.9,143.3,664.6,143.6z"/>
				<path class="st3" d="M673.3,149c0.2,0.4,0.2,0.6,0.2,0.8c0,0.2,0,0.3-0.1,0.4c-0.1,0.1-0.2,0.1-0.4,0.1c-0.2,0-0.4-0.1-0.8-0.2
					c-0.2-0.4-0.2-0.6-0.2-0.8c0-0.2,0-0.3,0.1-0.4c0.1-0.1,0.2-0.1,0.4-0.1C672.6,148.8,672.9,148.8,673.3,149z"/>
				<path class="st3" d="M664.6,147.8c0.4,0.2,0.5,0.4,0.6,0.5c0.1,0.2,0.1,0.3,0.1,0.4c0,0.1-0.1,0.2-0.3,0.3
					c-0.2,0.1-0.4,0.2-0.8,0.2c-0.4-0.2-0.5-0.4-0.6-0.5c-0.1-0.2-0.1-0.3-0.1-0.4c0-0.1,0.1-0.2,0.3-0.3
					C664,147.9,664.2,147.8,664.6,147.8z"/>
				<path class="st3" d="M668.8,149.7c0.4,0.1,0.6,0.3,0.7,0.4c0.1,0.1,0.2,0.2,0.2,0.2c0,0.1-0.1,0.1-0.2,0.1c-0.2,0-0.4,0.1-0.8,0
					c-0.4-0.1-0.6-0.3-0.7-0.4c-0.1-0.1-0.2-0.2-0.2-0.2c0-0.1,0.1-0.1,0.2-0.1C668.2,149.7,668.4,149.7,668.8,149.7z"/>
				<path class="st3" d="M661.3,147.1c-0.1,0.4-0.3,0.6-0.4,0.7c-0.1,0.1-0.2,0.2-0.2,0.2c-0.1,0-0.1-0.1-0.1-0.2
					c0-0.2-0.1-0.4,0-0.8c0.1-0.4,0.3-0.6,0.4-0.7c0.1-0.1,0.2-0.2,0.2-0.2c0.1,0,0.1,0.1,0.1,0.2
					C661.3,146.5,661.4,146.7,661.3,147.1z"/>
				<path class="st3" d="M670.8,154.8c0.4,0.1,0.6,0.3,0.7,0.4c0.1,0.1,0.2,0.3,0.2,0.4c0,0.1-0.1,0.3-0.2,0.4
					c-0.1,0.1-0.4,0.3-0.7,0.4c-0.4-0.1-0.6-0.3-0.7-0.4c-0.1-0.1-0.2-0.3-0.2-0.4c0-0.1,0.1-0.3,0.2-0.4
					C670.2,155.1,670.4,154.9,670.8,154.8z"/>
				<path class="st3" d="M665.1,159.7c0.4-0.1,0.6-0.1,0.8-0.1c0.2,0,0.3,0.1,0.4,0.2s0.1,0.3,0,0.4c-0.1,0.2-0.2,0.4-0.4,0.7
					c-0.4,0.1-0.6,0.1-0.8,0.1c-0.2,0-0.3-0.1-0.4-0.2c-0.1-0.1-0.1-0.3,0-0.4C664.8,160.3,664.9,160.1,665.1,159.7z"/>
				<path class="st3" d="M668.3,157.2c0.4-0.2,0.6-0.2,0.7-0.2c0.2,0,0.2,0,0.3,0.1c0,0.1,0,0.1-0.1,0.3c-0.1,0.1-0.2,0.3-0.5,0.6
					c-0.4,0.2-0.6,0.2-0.7,0.2c-0.2,0-0.2,0-0.3-0.1c0-0.1,0-0.1,0.1-0.3C667.8,157.6,668,157.5,668.3,157.2z"/>
				<path class="st3" d="M667.9,154.8c0.4-0.2,0.6-0.2,0.8-0.2c0.2,0,0.3,0,0.4,0.1c0.1,0.1,0.1,0.2,0.1,0.4c0,0.2-0.1,0.4-0.2,0.8
					c-0.4,0.2-0.6,0.2-0.8,0.2c-0.2,0-0.3,0-0.4-0.1c-0.1-0.1-0.1-0.2-0.1-0.4C667.7,155.4,667.7,155.2,667.9,154.8z"/>
				<path class="st3" d="M666.7,163.4c0.2-0.4,0.4-0.5,0.5-0.6c0.2-0.1,0.3-0.1,0.4-0.1c0.1,0,0.2,0.1,0.3,0.3
					c0.1,0.2,0.2,0.4,0.2,0.8c-0.2,0.4-0.4,0.5-0.5,0.6c-0.2,0.1-0.3,0.1-0.4,0.1c-0.1,0-0.2-0.1-0.3-0.3
					C666.9,164.1,666.8,163.9,666.7,163.4z"/>
				<path class="st3" d="M668.7,159.3c0.1-0.4,0.3-0.6,0.4-0.7c0.1-0.1,0.2-0.2,0.2-0.2c0.1,0,0.1,0.1,0.1,0.2c0,0.2,0.1,0.4,0,0.8
					c-0.1,0.4-0.3,0.6-0.4,0.7c-0.1,0.1-0.2,0.2-0.2,0.2c-0.1,0-0.1-0.1-0.1-0.2C668.7,159.9,668.6,159.7,668.7,159.3z"/>
				<path class="st3" d="M681.2,165c0.4,0.1,0.6,0.3,0.7,0.4c0.1,0.1,0.2,0.2,0.2,0.2c0,0.1-0.1,0.1-0.2,0.1c-0.2,0-0.4,0.1-0.8,0
					c-0.4-0.1-0.6-0.3-0.7-0.4c-0.1-0.1-0.2-0.2-0.2-0.2c0-0.1,0.1-0.1,0.2-0.1C680.6,165,680.9,165,681.2,165z"/>
				<path class="st3" d="M663.1,156c0.4,0.1,0.6,0.3,0.7,0.4c0.1,0.1,0.2,0.3,0.2,0.4c0,0.1-0.1,0.3-0.2,0.4
					c-0.1,0.1-0.4,0.3-0.7,0.4c-0.4-0.1-0.6-0.3-0.7-0.4c-0.1-0.1-0.2-0.3-0.2-0.4c0-0.1,0.1-0.3,0.2-0.4
					C662.5,156.3,662.8,156.1,663.1,156z"/>
				<path class="st3" d="M656.8,147.7c0.1,0.4,0.1,0.6,0.1,0.8c0,0.2-0.1,0.3-0.2,0.4c-0.1,0.1-0.3,0.1-0.4,0
					c-0.2-0.1-0.4-0.2-0.7-0.4c-0.1-0.4-0.1-0.6-0.1-0.8c0-0.2,0.1-0.3,0.2-0.4c0.1-0.1,0.3-0.1,0.4,0
					C656.2,147.3,656.4,147.4,656.8,147.7z"/>
				<path class="st3" d="M659.3,150.8c0.2,0.4,0.2,0.6,0.2,0.7c0,0.2,0,0.2-0.1,0.3c-0.1,0-0.1,0-0.3-0.1c-0.1-0.1-0.3-0.2-0.6-0.5
					c-0.2-0.4-0.2-0.6-0.2-0.7c0-0.2,0-0.2,0.1-0.3c0.1,0,0.1,0,0.3,0.1C658.9,150.4,659,150.5,659.3,150.8z"/>
				<path class="st3" d="M661.7,150.5c0.2,0.4,0.2,0.6,0.2,0.8c0,0.2,0,0.3-0.1,0.4c-0.1,0.1-0.2,0.1-0.4,0.1
					c-0.2,0-0.4-0.1-0.8-0.2c-0.2-0.4-0.2-0.6-0.2-0.8c0-0.2,0-0.3,0.1-0.4c0.1-0.1,0.2-0.1,0.4-0.1
					C661.1,150.2,661.3,150.3,661.7,150.5z"/>
				<path class="st3" d="M661,160.5c0.1-0.4,0.3-0.6,0.4-0.7c0.1-0.1,0.2-0.2,0.2-0.2c0.1,0,0.1,0.1,0.1,0.2c0,0.2,0.1,0.4,0,0.8
					c-0.1,0.4-0.3,0.6-0.4,0.7c-0.1,0.1-0.2,0.2-0.2,0.2c-0.1,0-0.1-0.1-0.1-0.2C661,161.1,661,160.9,661,160.5z"/>
				<path class="st3" d="M691,138.7c0.4-0.1,0.6-0.1,0.8-0.1c0.2,0,0.3,0.1,0.4,0.2c0.1,0.1,0.1,0.3,0,0.4c-0.1,0.2-0.2,0.4-0.4,0.7
					c-0.4,0.1-0.6,0.1-0.8,0.1c-0.2,0-0.3-0.1-0.4-0.2c-0.1-0.1-0.1-0.3,0-0.4C690.6,139.3,690.7,139.1,691,138.7z"/>
				<path class="st3" d="M688.2,140.6c0.2,0.4,0.2,0.6,0.2,0.7c0,0.2,0,0.2-0.1,0.3c-0.1,0-0.1,0-0.3-0.1c-0.1-0.1-0.3-0.2-0.6-0.5
					c-0.2-0.4-0.2-0.6-0.2-0.7c0-0.2,0-0.2,0.1-0.3c0.1,0,0.1,0,0.3,0.1C687.8,140.2,687.9,140.3,688.2,140.6z"/>
				<path class="st3" d="M692.8,144.8c0.2,0.4,0.2,0.6,0.2,0.8c0,0.2,0,0.3-0.1,0.4c-0.1,0.1-0.2,0.1-0.4,0.1
					c-0.2,0-0.4-0.1-0.8-0.2c-0.2-0.4-0.2-0.6-0.2-0.8c0-0.2,0-0.3,0.1-0.4c0.1-0.1,0.2-0.1,0.4-0.1
					C692.2,144.5,692.5,144.6,692.8,144.8z"/>
				<path class="st3" d="M685.4,144.2c0.4,0.2,0.5,0.4,0.6,0.5c0.1,0.2,0.1,0.3,0.1,0.4c0,0.1-0.1,0.2-0.3,0.3
					c-0.2,0.1-0.4,0.2-0.8,0.2c-0.4-0.2-0.5-0.4-0.6-0.5c-0.1-0.2-0.1-0.3-0.1-0.4c0-0.1,0.1-0.2,0.3-0.3
					C684.7,144.4,684.9,144.3,685.4,144.2z"/>
				<path class="st3" d="M689.4,144.6c0.4,0.1,0.6,0.3,0.7,0.4c0.1,0.1,0.2,0.2,0.2,0.2c0,0.1-0.1,0.1-0.2,0.1c-0.2,0-0.4,0.1-0.8,0
					c-0.4-0.1-0.6-0.3-0.7-0.4c-0.1-0.1-0.2-0.2-0.2-0.2c0-0.1,0.1-0.1,0.2-0.1C688.8,144.6,689,144.6,689.4,144.6z"/>
				<path class="st3" d="M680.9,145c-0.1,0.4-0.3,0.6-0.4,0.7c-0.1,0.1-0.2,0.2-0.2,0.2c-0.1,0-0.1-0.1-0.1-0.2c0-0.2-0.1-0.4,0-0.8
					c0.1-0.4,0.3-0.6,0.4-0.7c0.1-0.1,0.2-0.2,0.2-0.2c0.1,0,0.1,0.1,0.1,0.2C680.9,144.4,680.9,144.6,680.9,145z"/>
				<path class="st3" d="M690.8,142.7c0.4,0.1,0.6,0.3,0.7,0.4c0.1,0.1,0.2,0.3,0.2,0.4c0,0.1-0.1,0.3-0.2,0.4
					c-0.1,0.1-0.4,0.3-0.7,0.4c-0.4-0.1-0.6-0.3-0.7-0.4c-0.1-0.1-0.2-0.3-0.2-0.4c0-0.1,0.1-0.3,0.2-0.4
					C690.2,143,690.4,142.8,690.8,142.7z"/>
				<path class="st3" d="M683.9,148c0.4-0.1,0.6-0.1,0.8-0.1c0.2,0,0.3,0.1,0.4,0.2c0.1,0.1,0.1,0.3,0,0.4c-0.1,0.2-0.2,0.4-0.4,0.7
					c-0.4,0.1-0.6,0.1-0.8,0.1c-0.2,0-0.3-0.1-0.4-0.2c-0.1-0.1-0.1-0.3,0-0.4C683.5,148.5,683.6,148.3,683.9,148z"/>
				<path class="st3" d="M688.2,146.4c0.4-0.2,0.6-0.2,0.7-0.2c0.2,0,0.2,0,0.3,0.1c0,0.1,0,0.1-0.1,0.3c-0.1,0.1-0.2,0.3-0.5,0.6
					c-0.4,0.2-0.6,0.2-0.7,0.2c-0.2,0-0.2,0-0.3-0.1c0-0.1,0-0.1,0.1-0.3C687.7,146.8,687.9,146.7,688.2,146.4z"/>
				<path class="st3" d="M681.1,149.8c0.2,0.4,0.2,0.6,0.2,0.7c0,0.2,0,0.2-0.1,0.3c-0.1,0-0.1,0-0.3-0.1c-0.1-0.1-0.3-0.2-0.6-0.5
					c-0.2-0.4-0.2-0.6-0.2-0.7c0-0.2,0-0.2,0.1-0.3c0.1,0,0.1,0,0.3,0.1C680.6,149.4,680.8,149.5,681.1,149.8z"/>
				<path class="st3" d="M686.6,140.2c0.2,0.4,0.2,0.6,0.2,0.8c0,0.2,0,0.3-0.1,0.4c-0.1,0.1-0.2,0.1-0.4,0.1
					c-0.2,0-0.4-0.1-0.8-0.2c-0.2-0.4-0.2-0.6-0.2-0.8c0-0.2,0-0.3,0.1-0.4c0.1-0.1,0.2-0.1,0.4-0.1
					C686,139.9,686.2,140,686.6,140.2z"/>
				<path class="st3" d="M679.1,139.6c0.4,0.2,0.5,0.4,0.6,0.5c0.1,0.2,0.1,0.3,0.1,0.4c0,0.1-0.1,0.2-0.3,0.3
					c-0.2,0.1-0.4,0.2-0.8,0.2c-0.4-0.2-0.5-0.4-0.6-0.5c-0.1-0.2-0.1-0.3-0.1-0.4c0-0.1,0.1-0.2,0.3-0.3
					C678.4,139.8,678.7,139.7,679.1,139.6z"/>
				<path class="st3" d="M683.1,140.1c0.4,0.1,0.6,0.3,0.7,0.4c0.1,0.1,0.2,0.2,0.2,0.2c0,0.1-0.1,0.1-0.2,0.1c-0.2,0-0.4,0.1-0.8,0
					c-0.4-0.1-0.6-0.3-0.7-0.4c-0.1-0.1-0.2-0.2-0.2-0.2c0-0.1,0.1-0.1,0.2-0.1C682.5,140.1,682.7,140,683.1,140.1z"/>
				<path class="st3" d="M674.6,140.5c-0.1,0.4-0.3,0.6-0.4,0.7c-0.1,0.1-0.2,0.2-0.2,0.2c-0.1,0-0.1-0.1-0.1-0.2
					c0-0.2-0.1-0.4,0-0.8c0.1-0.4,0.3-0.6,0.4-0.7c0.1-0.1,0.2-0.2,0.2-0.2c0.1,0,0.1,0.1,0.1,0.2
					C674.6,139.9,674.6,140.1,674.6,140.5z"/>
				<path class="st3" d="M684.5,138.1c0.4,0.1,0.6,0.3,0.7,0.4c0.1,0.1,0.2,0.3,0.2,0.4c0,0.1-0.1,0.3-0.2,0.4
					c-0.1,0.1-0.4,0.3-0.7,0.4c-0.4-0.1-0.6-0.3-0.7-0.4c-0.1-0.1-0.2-0.3-0.2-0.4c0-0.1,0.1-0.3,0.2-0.4
					C683.9,138.4,684.1,138.3,684.5,138.1z"/>
				<path class="st3" d="M677.6,143.4c0.4-0.1,0.6-0.1,0.8-0.1c0.2,0,0.3,0.1,0.4,0.2c0.1,0.1,0.1,0.3,0,0.4
					c-0.1,0.2-0.2,0.4-0.4,0.7c-0.4,0.1-0.6,0.1-0.8,0.1c-0.2,0-0.3-0.1-0.4-0.2c-0.1-0.1-0.1-0.3,0-0.4
					C677.2,143.9,677.3,143.7,677.6,143.4z"/>
				<path class="st3" d="M681.9,141.8c0.4-0.2,0.6-0.2,0.7-0.2c0.2,0,0.2,0,0.3,0.1c0,0.1,0,0.1-0.1,0.3c-0.1,0.1-0.2,0.3-0.5,0.6
					c-0.4,0.2-0.6,0.2-0.7,0.2c-0.2,0-0.2,0-0.3-0.1c0-0.1,0-0.1,0.1-0.3C681.5,142.2,681.6,142.1,681.9,141.8z"/>
				<path class="st3" d="M674.8,145.3c0.2,0.4,0.2,0.6,0.2,0.7c0,0.2,0,0.2-0.1,0.3c-0.1,0-0.1,0-0.3-0.1c-0.1-0.1-0.3-0.2-0.6-0.5
					c-0.2-0.4-0.2-0.6-0.2-0.7c0-0.2,0-0.2,0.1-0.3c0.1,0,0.1,0,0.3,0.1C674.4,144.8,674.5,145,674.8,145.3z"/>
				<path class="st3" d="M698.6,164.4c-0.1,0.4-0.3,0.6-0.4,0.7c-0.1,0.1-0.3,0.2-0.4,0.2c-0.1,0-0.3-0.1-0.4-0.2
					c-0.1-0.1-0.3-0.4-0.4-0.7c0.1-0.4,0.3-0.6,0.4-0.7c0.1-0.1,0.3-0.2,0.4-0.2c0.1,0,0.3,0.1,0.4,0.2
					C698.3,163.8,698.5,164,698.6,164.4z"/>
				<path class="st3" d="M693.7,158.7c0.1,0.4,0.1,0.6,0.1,0.8c0,0.2-0.1,0.3-0.2,0.4c-0.1,0.1-0.3,0.1-0.4,0
					c-0.2-0.1-0.4-0.2-0.7-0.4c-0.1-0.4-0.1-0.6-0.1-0.8c0-0.2,0.1-0.3,0.2-0.4c0.1-0.1,0.3-0.1,0.4,0
					C693.1,158.4,693.4,158.5,693.7,158.7z"/>
				<path class="st3" d="M696.2,161.9c0.2,0.4,0.2,0.6,0.2,0.7c0,0.2,0,0.2-0.1,0.3c-0.1,0-0.1,0-0.3-0.1c-0.1-0.1-0.3-0.2-0.6-0.5
					c-0.2-0.4-0.2-0.6-0.2-0.7c0-0.2,0-0.2,0.1-0.3c0.1,0,0.1,0,0.3,0.1C695.8,161.4,696,161.6,696.2,161.9z"/>
				<path class="st3" d="M689.9,156.1c-0.4,0.2-0.6,0.2-0.7,0.2c-0.2,0-0.2,0-0.3-0.1c0-0.1,0-0.1,0.1-0.3c0.1-0.1,0.2-0.3,0.5-0.6
					c0.4-0.2,0.6-0.2,0.7-0.2c0.2,0,0.2,0,0.3,0.1c0,0.1,0,0.1-0.1,0.3C690.3,155.7,690.2,155.9,689.9,156.1z"/>
				<path class="st3" d="M698.6,161.5c0.2,0.4,0.2,0.6,0.2,0.8c0,0.2,0,0.3-0.1,0.4c-0.1,0.1-0.2,0.1-0.4,0.1
					c-0.2,0-0.4-0.1-0.8-0.2c-0.2-0.4-0.2-0.6-0.2-0.8c0-0.2,0-0.3,0.1-0.4c0.1-0.1,0.2-0.1,0.4-0.1
					C698,161.3,698.2,161.3,698.6,161.5z"/>
				<path class="st3" d="M690,160.3c0.4,0.2,0.5,0.4,0.6,0.5c0.1,0.2,0.1,0.3,0.1,0.4c0,0.1-0.1,0.2-0.3,0.3
					c-0.2,0.1-0.4,0.2-0.8,0.2c-0.4-0.2-0.5-0.4-0.6-0.5c-0.1-0.2-0.1-0.3-0.1-0.4c0-0.1,0.1-0.2,0.3-0.3
					C689.3,160.4,689.6,160.4,690,160.3z"/>
				<path class="st3" d="M694.1,162.2c0.4,0.1,0.6,0.3,0.7,0.4c0.1,0.1,0.2,0.2,0.2,0.2c0,0.1-0.1,0.1-0.2,0.1c-0.2,0-0.4,0.1-0.8,0
					c-0.4-0.1-0.6-0.3-0.7-0.4c-0.1-0.1-0.2-0.2-0.2-0.2c0-0.1,0.1-0.1,0.2-0.1C693.5,162.2,693.7,162.2,694.1,162.2z"/>
				<path class="st3" d="M713.7,153.4c-0.1,0.4-0.3,0.6-0.4,0.7c-0.1,0.1-0.2,0.2-0.2,0.2c-0.1,0-0.1-0.1-0.1-0.2
					c0-0.2-0.1-0.4,0-0.8c0.1-0.4,0.3-0.6,0.4-0.7c0.1-0.1,0.2-0.2,0.2-0.2c0.1,0,0.1,0.1,0.1,0.2
					C713.7,152.8,713.8,153,713.7,153.4z"/>
				<path class="st3" d="M697.4,156.7c-0.1,0.4-0.3,0.6-0.4,0.7c-0.1,0.1-0.3,0.2-0.4,0.2c-0.1,0-0.3-0.1-0.4-0.2
					c-0.1-0.1-0.3-0.4-0.4-0.7c0.1-0.4,0.3-0.6,0.4-0.7c0.1-0.1,0.3-0.2,0.4-0.2c0.1,0,0.3,0.1,0.4,0.2
					C697.1,156.1,697.3,156.3,697.4,156.7z"/>
				<path class="st3" d="M692.5,151.1c0.1,0.4,0.1,0.6,0.1,0.8c0,0.2-0.1,0.3-0.2,0.4c-0.1,0.1-0.3,0.1-0.4,0
					c-0.2-0.1-0.4-0.2-0.7-0.4c-0.1-0.4-0.1-0.6-0.1-0.8c0-0.2,0.1-0.3,0.2-0.4c0.1-0.1,0.3-0.1,0.4,0
					C691.9,150.7,692.2,150.8,692.5,151.1z"/>
				<path class="st3" d="M695,154.2c0.2,0.4,0.2,0.6,0.2,0.7c0,0.2,0,0.2-0.1,0.3c-0.1,0-0.1,0-0.3-0.1c-0.1-0.1-0.3-0.2-0.6-0.5
					c-0.2-0.4-0.2-0.6-0.2-0.7c0-0.2,0-0.2,0.1-0.3c0.1,0,0.1,0,0.3,0.1C694.6,153.8,694.8,153.9,695,154.2z"/>
				<path class="st3" d="M688.7,148.5c-0.4,0.2-0.6,0.2-0.7,0.2c-0.2,0-0.2,0-0.3-0.1c0-0.1,0-0.1,0.1-0.3c0.1-0.1,0.2-0.3,0.5-0.6
					c0.4-0.2,0.6-0.2,0.7-0.2c0.2,0,0.2,0,0.3,0.1c0,0.1,0,0.1-0.1,0.3C689.1,148,689,148.2,688.7,148.5z"/>
				<path class="st3" d="M697.4,153.8c0.2,0.4,0.2,0.6,0.2,0.8c0,0.2,0,0.3-0.1,0.4c-0.1,0.1-0.2,0.1-0.4,0.1
					c-0.2,0-0.4-0.1-0.8-0.2c-0.2-0.4-0.2-0.6-0.2-0.8c0-0.2,0-0.3,0.1-0.4c0.1-0.1,0.2-0.1,0.4-0.1
					C696.8,153.6,697,153.7,697.4,153.8z"/>
				<path class="st3" d="M688.8,152.6c0.4,0.2,0.5,0.4,0.6,0.5c0.1,0.2,0.1,0.3,0.1,0.4c0,0.1-0.1,0.2-0.3,0.3
					c-0.2,0.1-0.4,0.2-0.8,0.2c-0.4-0.2-0.5-0.4-0.6-0.5c-0.1-0.2-0.1-0.3-0.1-0.4c0-0.1,0.1-0.2,0.3-0.3
					C688.1,152.8,688.4,152.7,688.8,152.6z"/>
				<path class="st3" d="M692.9,154.6c0.4,0.1,0.6,0.3,0.7,0.4c0.1,0.1,0.2,0.2,0.2,0.2c0,0.1-0.1,0.1-0.2,0.1c-0.2,0-0.4,0.1-0.8,0
					c-0.4-0.1-0.6-0.3-0.7-0.4c-0.1-0.1-0.2-0.2-0.2-0.2c0-0.1,0.1-0.1,0.2-0.1C692.3,154.6,692.5,154.6,692.9,154.6z"/>
				<path class="st3" d="M685.5,152c-0.1,0.4-0.3,0.6-0.4,0.7c-0.1,0.1-0.2,0.2-0.2,0.2c-0.1,0-0.1-0.1-0.1-0.2c0-0.2-0.1-0.4,0-0.8
					c0.1-0.4,0.3-0.6,0.4-0.7c0.1-0.1,0.2-0.2,0.2-0.2c0.1,0,0.1,0.1,0.1,0.2C685.5,151.4,685.5,151.6,685.5,152z"/>
				<path class="st3" d="M714.1,159.6c-0.1,0.4-0.3,0.6-0.4,0.7c-0.1,0.1-0.3,0.2-0.4,0.2c-0.1,0-0.3-0.1-0.4-0.2
					c-0.1-0.1-0.3-0.4-0.4-0.7c0.1-0.4,0.3-0.6,0.4-0.7c0.1-0.1,0.3-0.2,0.4-0.2c0.1,0,0.3,0.1,0.4,0.2
					C713.8,159,713.9,159.3,714.1,159.6z"/>
				<path class="st3" d="M709.1,154c0.1,0.4,0.1,0.6,0.1,0.8c0,0.2-0.1,0.3-0.2,0.4c-0.1,0.1-0.3,0.1-0.4,0
					c-0.2-0.1-0.4-0.2-0.7-0.4c-0.1-0.4-0.1-0.6-0.1-0.8c0-0.2,0.1-0.3,0.2-0.4c0.1-0.1,0.3-0.1,0.4,0
					C708.6,153.6,708.8,153.7,709.1,154z"/>
				<path class="st3" d="M711.7,157.1c0.2,0.4,0.2,0.6,0.2,0.7c0,0.2,0,0.2-0.1,0.3c-0.1,0-0.1,0-0.3-0.1c-0.1-0.1-0.3-0.2-0.6-0.5
					c-0.2-0.4-0.2-0.6-0.2-0.7c0-0.2,0-0.2,0.1-0.3c0.1,0,0.1,0,0.3,0.1C711.3,156.7,711.4,156.8,711.7,157.1z"/>
				<path class="st3" d="M705.4,151.4c-0.4,0.2-0.6,0.2-0.7,0.2c-0.2,0-0.2,0-0.3-0.1c0-0.1,0-0.1,0.1-0.3c0.1-0.1,0.2-0.3,0.5-0.6
					c0.4-0.2,0.6-0.2,0.7-0.2c0.2,0,0.2,0,0.3,0.1c0,0.1,0,0.1-0.1,0.3C705.8,150.9,705.7,151.1,705.4,151.4z"/>
				<path class="st3" d="M714.1,156.8c0.2,0.4,0.2,0.6,0.2,0.8c0,0.2,0,0.3-0.1,0.4c-0.1,0.1-0.2,0.1-0.4,0.1
					c-0.2,0-0.4-0.1-0.8-0.2c-0.2-0.4-0.2-0.6-0.2-0.8c0-0.2,0-0.3,0.1-0.4c0.1-0.1,0.2-0.1,0.4-0.1
					C713.5,156.5,713.7,156.6,714.1,156.8z"/>
				<path class="st3" d="M705.5,155.6c0.4,0.2,0.5,0.4,0.6,0.5c0.1,0.2,0.1,0.3,0.1,0.4c0,0.1-0.1,0.2-0.3,0.3
					c-0.2,0.1-0.4,0.2-0.8,0.2c-0.4-0.2-0.5-0.4-0.6-0.5c-0.1-0.2-0.1-0.3-0.1-0.4c0-0.1,0.1-0.2,0.3-0.3
					C704.8,155.7,705,155.6,705.5,155.6z"/>
				<path class="st3" d="M709.6,157.5c0.4,0.1,0.6,0.3,0.7,0.4c0.1,0.1,0.2,0.2,0.2,0.2c0,0.1-0.1,0.1-0.2,0.1c-0.2,0-0.4,0.1-0.8,0
					c-0.4-0.1-0.6-0.3-0.7-0.4c-0.1-0.1-0.2-0.2-0.2-0.2c0-0.1,0.1-0.1,0.2-0.1C709,157.5,709.2,157.5,709.6,157.5z"/>
				<path class="st3" d="M702.2,154.9c-0.1,0.4-0.3,0.6-0.4,0.7c-0.1,0.1-0.2,0.2-0.2,0.2c-0.1,0-0.1-0.1-0.1-0.2
					c0-0.2-0.1-0.4,0-0.8c0.1-0.4,0.3-0.6,0.4-0.7c0.1-0.1,0.2-0.2,0.2-0.2c0.1,0,0.1,0.1,0.1,0.2
					C702.2,154.3,702.2,154.5,702.2,154.9z"/>
				<path class="st3" d="M712.9,152c-0.1,0.4-0.3,0.6-0.4,0.7c-0.1,0.1-0.3,0.2-0.4,0.2c-0.1,0-0.3-0.1-0.4-0.2
					c-0.1-0.1-0.3-0.4-0.4-0.7c0.1-0.4,0.3-0.6,0.4-0.7c0.1-0.1,0.3-0.2,0.4-0.2c0.1,0,0.3,0.1,0.4,0.2
					C712.6,151.4,712.7,151.6,712.9,152z"/>
				<path class="st3" d="M680.9,152.5c0.1,0.4,0.1,0.6,0.1,0.8c0,0.2-0.1,0.3-0.2,0.4c-0.1,0.1-0.3,0.1-0.4,0
					c-0.2-0.1-0.4-0.2-0.7-0.4c-0.1-0.4-0.1-0.6-0.1-0.8c0-0.2,0.1-0.3,0.2-0.4c0.1-0.1,0.3-0.1,0.4,0
					C680.4,152.2,680.6,152.3,680.9,152.5z"/>
				<path class="st3" d="M710.5,149.4c0.2,0.4,0.2,0.6,0.2,0.7c0,0.2,0,0.2-0.1,0.3c-0.1,0-0.1,0-0.3-0.1c-0.1-0.1-0.3-0.2-0.6-0.5
					c-0.2-0.4-0.2-0.6-0.2-0.7c0-0.2,0-0.2,0.1-0.3c0.1,0,0.1,0,0.3,0.1C710.1,149,710.2,149.1,710.5,149.4z"/>
				<path class="st3" d="M677.1,149.9c-0.4,0.2-0.6,0.2-0.7,0.2c-0.2,0-0.2,0-0.3-0.1c0-0.1,0-0.1,0.1-0.3c0.1-0.1,0.2-0.3,0.5-0.6
					c0.4-0.2,0.6-0.2,0.7-0.2c0.2,0,0.2,0,0.3,0.1c0,0.1,0,0.1-0.1,0.3C677.6,149.5,677.4,149.7,677.1,149.9z"/>
				<path class="st3" d="M712.9,149.1c0.2,0.4,0.2,0.6,0.2,0.8c0,0.2,0,0.3-0.1,0.4c-0.1,0.1-0.2,0.1-0.4,0.1
					c-0.2,0-0.4-0.1-0.8-0.2c-0.2-0.4-0.2-0.6-0.2-0.8c0-0.2,0-0.3,0.1-0.4c0.1-0.1,0.2-0.1,0.4-0.1
					C712.3,148.9,712.5,148.9,712.9,149.1z"/>
				<path class="st3" d="M704.3,147.9c0.4,0.2,0.5,0.4,0.6,0.5c0.1,0.2,0.1,0.3,0.1,0.4c0,0.1-0.1,0.2-0.3,0.3
					c-0.2,0.1-0.4,0.2-0.8,0.2c-0.4-0.2-0.5-0.4-0.6-0.5c-0.1-0.2-0.1-0.3-0.1-0.4c0-0.1,0.1-0.2,0.3-0.3
					C703.6,148,703.8,147.9,704.3,147.9z"/>
				<path class="st3" d="M708.4,149.8c0.4,0.1,0.6,0.3,0.7,0.4c0.1,0.1,0.2,0.2,0.2,0.2c0,0.1-0.1,0.1-0.2,0.1c-0.2,0-0.4,0.1-0.8,0
					c-0.4-0.1-0.6-0.3-0.7-0.4c-0.1-0.1-0.2-0.2-0.2-0.2c0-0.1,0.1-0.1,0.2-0.1C707.8,149.8,708,149.8,708.4,149.8z"/>
				<path class="st3" d="M673.9,153.5c-0.1,0.4-0.3,0.6-0.4,0.7c-0.1,0.1-0.2,0.2-0.2,0.2c-0.1,0-0.1-0.1-0.1-0.2
					c0-0.2-0.1-0.4,0-0.8c0.1-0.4,0.3-0.6,0.4-0.7c0.1-0.1,0.2-0.2,0.2-0.2c0.1,0,0.1,0.1,0.1,0.2
					C673.9,152.9,673.9,153.1,673.9,153.5z"/>
				<path class="st3" d="M693.2,170.4c0.4-0.1,0.6-0.1,0.8-0.1c0.2,0,0.3,0.1,0.4,0.2c0.1,0.1,0.1,0.3,0,0.4
					c-0.1,0.2-0.2,0.4-0.4,0.7c-0.4,0.1-0.6,0.1-0.8,0.1c-0.2,0-0.3-0.1-0.4-0.2c-0.1-0.1-0.1-0.3,0-0.4
					C692.8,170.9,692.9,170.7,693.2,170.4z"/>
				<path class="st3" d="M690.4,172.3c0.2,0.4,0.2,0.6,0.2,0.7c0,0.2,0,0.2-0.1,0.3c-0.1,0-0.1,0-0.3-0.1c-0.1-0.1-0.3-0.2-0.6-0.5
					c-0.2-0.4-0.2-0.6-0.2-0.7c0-0.2,0-0.2,0.1-0.3c0.1,0,0.1,0,0.3,0.1C689.9,171.8,690.1,172,690.4,172.3z"/>
				<path class="st3" d="M693.9,184.6c-0.4,0.2-0.6,0.2-0.7,0.2c-0.2,0-0.2,0-0.3-0.1c0-0.1,0-0.1,0.1-0.3c0.1-0.1,0.2-0.3,0.5-0.6
					c0.4-0.2,0.6-0.2,0.7-0.2c0.2,0,0.2,0,0.3,0.1c0,0.1,0,0.1-0.1,0.3C694.3,184.2,694.2,184.4,693.9,184.6z"/>
				<path class="st3" d="M694,188.8c0.4,0.2,0.5,0.4,0.6,0.5c0.1,0.2,0.1,0.3,0.1,0.4c0,0.1-0.1,0.2-0.3,0.3
					c-0.2,0.1-0.4,0.2-0.8,0.2c-0.4-0.2-0.5-0.4-0.6-0.5c-0.1-0.2-0.1-0.3-0.1-0.4c0-0.1,0.1-0.2,0.3-0.3
					C693.3,188.9,693.6,188.9,694,188.8z"/>
				<path class="st3" d="M690.7,188.2c-0.1,0.4-0.3,0.6-0.4,0.7c-0.1,0.1-0.2,0.2-0.2,0.2c-0.1,0-0.1-0.1-0.1-0.2
					c0-0.2-0.1-0.4,0-0.8c0.1-0.4,0.3-0.6,0.4-0.7c0.1-0.1,0.2-0.2,0.2-0.2c0.1,0,0.1,0.1,0.1,0.2
					C690.7,187.6,690.7,187.8,690.7,188.2z"/>
				<path class="st3" d="M696.5,179.6c0.1,0.4,0.1,0.6,0.1,0.8c0,0.2-0.1,0.3-0.2,0.4c-0.1,0.1-0.3,0.1-0.4,0
					c-0.2-0.1-0.4-0.2-0.7-0.4c-0.1-0.4-0.1-0.6-0.1-0.8c0-0.2,0.1-0.3,0.2-0.4c0.1-0.1,0.3-0.1,0.4,0
					C695.9,179.2,696.2,179.3,696.5,179.6z"/>
				<path class="st3" d="M692.7,177c-0.4,0.2-0.6,0.2-0.7,0.2c-0.2,0-0.2,0-0.3-0.1c0-0.1,0-0.1,0.1-0.3c0.1-0.1,0.2-0.3,0.5-0.6
					c0.4-0.2,0.6-0.2,0.7-0.2c0.2,0,0.2,0,0.3,0.1c0,0.1,0,0.1-0.1,0.3C693.1,176.5,693,176.7,692.7,177z"/>
				<path class="st3" d="M692.8,181.1c0.4,0.2,0.5,0.4,0.6,0.5c0.1,0.2,0.1,0.3,0.1,0.4c0,0.1-0.1,0.2-0.3,0.3
					c-0.2,0.1-0.4,0.2-0.8,0.2c-0.4-0.2-0.5-0.4-0.6-0.5c-0.1-0.2-0.1-0.3-0.1-0.4c0-0.1,0.1-0.2,0.3-0.3
					C692.1,181.3,692.4,181.2,692.8,181.1z"/>
				<path class="st3" d="M689.5,180.5c-0.1,0.4-0.3,0.6-0.4,0.7c-0.1,0.1-0.2,0.2-0.2,0.2c-0.1,0-0.1-0.1-0.1-0.2
					c0-0.2-0.1-0.4,0-0.8c0.1-0.4,0.3-0.6,0.4-0.7c0.1-0.1,0.2-0.2,0.2-0.2c0.1,0,0.1,0.1,0.1,0.2
					C689.5,179.9,689.5,180.1,689.5,180.5z"/>
				<path class="st3" d="M698.2,145.8c0.4,0.2,0.5,0.4,0.6,0.5c0.1,0.2,0.1,0.3,0.1,0.4c0,0.1-0.1,0.2-0.3,0.3
					c-0.2,0.1-0.4,0.2-0.8,0.2c-0.4-0.2-0.5-0.4-0.6-0.5c-0.1-0.2-0.1-0.3-0.1-0.4c0-0.1,0.1-0.2,0.3-0.3
					C697.6,145.9,697.8,145.8,698.2,145.8z"/>
				<path class="st3" d="M693.7,146.6c-0.1,0.4-0.3,0.6-0.4,0.7c-0.1,0.1-0.2,0.2-0.2,0.2c-0.1,0-0.1-0.1-0.1-0.2
					c0-0.2-0.1-0.4,0-0.8c0.1-0.4,0.3-0.6,0.4-0.7c0.1-0.1,0.2-0.2,0.2-0.2c0.1,0,0.1,0.1,0.1,0.2
					C693.7,146,693.7,146.2,693.7,146.6z"/>
				<path class="st3" d="M696.7,149.5c0.4-0.1,0.6-0.1,0.8-0.1c0.2,0,0.3,0.1,0.4,0.2c0.1,0.1,0.1,0.3,0,0.4
					c-0.1,0.2-0.2,0.4-0.4,0.7c-0.4,0.1-0.6,0.1-0.8,0.1c-0.2,0-0.3-0.1-0.4-0.2c-0.1-0.1-0.1-0.3,0-0.4
					C696.3,150.1,696.4,149.9,696.7,149.5z"/>
				<path class="st3" d="M693.9,151.4c0.2,0.4,0.2,0.6,0.2,0.7c0,0.2,0,0.2-0.1,0.3c-0.1,0-0.1,0-0.3-0.1c-0.1-0.1-0.3-0.2-0.6-0.5
					c-0.2-0.4-0.2-0.6-0.2-0.7c0-0.2,0-0.2,0.1-0.3c0.1,0,0.1,0,0.3,0.1C693.5,151,693.6,151.1,693.9,151.4z"/>
				<path class="st3" d="M699.4,141.7c0.2,0.4,0.2,0.6,0.2,0.8c0,0.2,0,0.3-0.1,0.4c-0.1,0.1-0.2,0.1-0.4,0.1
					c-0.2,0-0.4-0.1-0.8-0.2c-0.2-0.4-0.2-0.6-0.2-0.8c0-0.2,0-0.3,0.1-0.4c0.1-0.1,0.2-0.1,0.4-0.1
					C698.8,141.5,699,141.6,699.4,141.7z"/>
				<path class="st3" d="M691.9,141.2c0.4,0.2,0.5,0.4,0.6,0.5c0.1,0.2,0.1,0.3,0.1,0.4c0,0.1-0.1,0.2-0.3,0.3
					c-0.2,0.1-0.4,0.2-0.8,0.2c-0.4-0.2-0.5-0.4-0.6-0.5c-0.1-0.2-0.1-0.3-0.1-0.4c0-0.1,0.1-0.2,0.3-0.3
					C691.3,141.3,691.5,141.3,691.9,141.2z"/>
				<path class="st3" d="M695.9,141.6c0.4,0.1,0.6,0.3,0.7,0.4c0.1,0.1,0.2,0.2,0.2,0.2c0,0.1-0.1,0.1-0.2,0.1c-0.2,0-0.4,0.1-0.8,0
					c-0.4-0.1-0.6-0.3-0.7-0.4c-0.1-0.1-0.2-0.2-0.2-0.2c0-0.1,0.1-0.1,0.2-0.1C695.3,141.6,695.5,141.6,695.9,141.6z"/>
				<path class="st3" d="M687.4,142c-0.1,0.4-0.3,0.6-0.4,0.7c-0.1,0.1-0.2,0.2-0.2,0.2c-0.1,0-0.1-0.1-0.1-0.2c0-0.2-0.1-0.4,0-0.8
					c0.1-0.4,0.3-0.6,0.4-0.7c0.1-0.1,0.2-0.2,0.2-0.2c0.1,0,0.1,0.1,0.1,0.2C687.4,141.4,687.4,141.6,687.4,142z"/>
				<path class="st3" d="M697.4,139.7c0.4,0.1,0.6,0.3,0.7,0.4c0.1,0.1,0.2,0.3,0.2,0.4c0,0.1-0.1,0.3-0.2,0.4
					c-0.1,0.1-0.4,0.3-0.7,0.4c-0.4-0.1-0.6-0.3-0.7-0.4c-0.1-0.1-0.2-0.3-0.2-0.4c0-0.1,0.1-0.3,0.2-0.4
					C696.8,140,697,139.8,697.4,139.7z"/>
				<path class="st3" d="M690.4,145c0.4-0.1,0.6-0.1,0.8-0.1c0.2,0,0.3,0.1,0.4,0.2c0.1,0.1,0.1,0.3,0,0.4c-0.1,0.2-0.2,0.4-0.4,0.7
					c-0.4,0.1-0.6,0.1-0.8,0.1c-0.2,0-0.3-0.1-0.4-0.2c-0.1-0.1-0.1-0.3,0-0.4C690.1,145.5,690.2,145.3,690.4,145z"/>
				<path class="st3" d="M694.7,143.4c0.4-0.2,0.6-0.2,0.7-0.2c0.2,0,0.2,0,0.3,0.1c0,0.1,0,0.1-0.1,0.3c-0.1,0.1-0.2,0.3-0.5,0.6
					c-0.4,0.2-0.6,0.2-0.7,0.2c-0.2,0-0.2,0-0.3-0.1c0-0.1,0-0.1,0.1-0.3C694.3,143.8,694.4,143.7,694.7,143.4z"/>
				<path class="st3" d="M687.6,146.8c0.2,0.4,0.2,0.6,0.2,0.7c0,0.2,0,0.2-0.1,0.3c-0.1,0-0.1,0-0.3-0.1c-0.1-0.1-0.3-0.2-0.6-0.5
					c-0.2-0.4-0.2-0.6-0.2-0.7c0-0.2,0-0.2,0.1-0.3c0.1,0,0.1,0,0.3,0.1C687.2,146.4,687.4,146.5,687.6,146.8z"/>
				<path class="st3" d="M699.5,161.2c-0.1,0.4-0.3,0.6-0.4,0.7c-0.1,0.1-0.2,0.2-0.2,0.2c-0.1,0-0.1-0.1-0.1-0.2
					c0-0.2-0.1-0.4,0-0.8c0.1-0.4,0.3-0.6,0.4-0.7c0.1-0.1,0.2-0.2,0.2-0.2c0.1,0,0.1,0.1,0.1,0.2
					C699.5,160.6,699.5,160.8,699.5,161.2z"/>
				<path class="st3" d="M698.3,153.6c-0.1,0.4-0.3,0.6-0.4,0.7c-0.1,0.1-0.2,0.2-0.2,0.2c-0.1,0-0.1-0.1-0.1-0.2
					c0-0.2-0.1-0.4,0-0.8c0.1-0.4,0.3-0.6,0.4-0.7c0.1-0.1,0.2-0.2,0.2-0.2c0.1,0,0.1,0.1,0.1,0.2
					C698.3,153,698.3,153.2,698.3,153.6z"/>
				<path class="st3" d="M699.9,167.4c-0.1,0.4-0.3,0.6-0.4,0.7c-0.1,0.1-0.3,0.2-0.4,0.2c-0.1,0-0.3-0.1-0.4-0.2
					c-0.1-0.1-0.3-0.4-0.4-0.7c0.1-0.4,0.3-0.6,0.4-0.7c0.1-0.1,0.3-0.2,0.4-0.2c0.1,0,0.3,0.1,0.4,0.2
					C699.6,166.9,699.7,167.1,699.9,167.4z"/>
				<path class="st3" d="M694.9,161.8c0.1,0.4,0.1,0.6,0.1,0.8c0,0.2-0.1,0.3-0.2,0.4c-0.1,0.1-0.3,0.1-0.4,0
					c-0.2-0.1-0.4-0.2-0.7-0.4c-0.1-0.4-0.1-0.6-0.1-0.8c0-0.2,0.1-0.3,0.2-0.4c0.1-0.1,0.3-0.1,0.4,0
					C694.4,161.4,694.6,161.5,694.9,161.8z"/>
				<path class="st3" d="M697.5,164.9c0.2,0.4,0.2,0.6,0.2,0.7c0,0.2,0,0.2-0.1,0.3c-0.1,0-0.1,0-0.3-0.1c-0.1-0.1-0.3-0.2-0.6-0.5
					c-0.2-0.4-0.2-0.6-0.2-0.7c0-0.2,0-0.2,0.1-0.3c0.1,0,0.1,0,0.3,0.1C697.1,164.5,697.2,164.6,697.5,164.9z"/>
				<path class="st3" d="M691.2,159.2c-0.4,0.2-0.6,0.2-0.7,0.2c-0.2,0-0.2,0-0.3-0.1c0-0.1,0-0.1,0.1-0.3c0.1-0.1,0.2-0.3,0.5-0.6
					c0.4-0.2,0.6-0.2,0.7-0.2c0.2,0,0.2,0,0.3,0.1c0,0.1,0,0.1-0.1,0.3C691.6,158.7,691.5,158.9,691.2,159.2z"/>
				<path class="st3" d="M699.9,164.6c0.2,0.4,0.2,0.6,0.2,0.8c0,0.2,0,0.3-0.1,0.4c-0.1,0.1-0.2,0.1-0.4,0.1
					c-0.2,0-0.4-0.1-0.8-0.2c-0.2-0.4-0.2-0.6-0.2-0.8c0-0.2,0-0.3,0.1-0.4c0.1-0.1,0.2-0.1,0.4-0.1
					C699.3,164.3,699.5,164.4,699.9,164.6z"/>
				<path class="st3" d="M691.2,163.4c0.4,0.2,0.5,0.4,0.6,0.5c0.1,0.2,0.1,0.3,0.1,0.4c0,0.1-0.1,0.2-0.3,0.3
					c-0.2,0.1-0.4,0.2-0.8,0.2c-0.4-0.2-0.5-0.4-0.6-0.5c-0.1-0.2-0.1-0.3-0.1-0.4c0-0.1,0.1-0.2,0.3-0.3
					C690.6,163.5,690.8,163.4,691.2,163.4z"/>
				<path class="st3" d="M695.4,165.3c0.4,0.1,0.6,0.3,0.7,0.4c0.1,0.1,0.2,0.2,0.2,0.2c0,0.1-0.1,0.1-0.2,0.1c-0.2,0-0.4,0.1-0.8,0
					c-0.4-0.1-0.6-0.3-0.7-0.4c-0.1-0.1-0.2-0.2-0.2-0.2c0-0.1,0.1-0.1,0.2-0.1C694.8,165.3,695,165.3,695.4,165.3z"/>
				<path class="st3" d="M715,156.5c-0.1,0.4-0.3,0.6-0.4,0.7c-0.1,0.1-0.2,0.2-0.2,0.2c-0.1,0-0.1-0.1-0.1-0.2c0-0.2-0.1-0.4,0-0.8
					c0.1-0.4,0.3-0.6,0.4-0.7c0.1-0.1,0.2-0.2,0.2-0.2c0.1,0,0.1,0.1,0.1,0.2C715,155.9,715,156.1,715,156.5z"/>
				<path class="st3" d="M698.7,159.8c-0.1,0.4-0.3,0.6-0.4,0.7c-0.1,0.1-0.3,0.2-0.4,0.2c-0.1,0-0.3-0.1-0.4-0.2
					c-0.1-0.1-0.3-0.4-0.4-0.7c0.1-0.4,0.3-0.6,0.4-0.7c0.1-0.1,0.3-0.2,0.4-0.2c0.1,0,0.3,0.1,0.4,0.2
					C698.4,159.2,698.5,159.4,698.7,159.8z"/>
				<path class="st3" d="M693.7,154.1c0.1,0.4,0.1,0.6,0.1,0.8c0,0.2-0.1,0.3-0.2,0.4c-0.1,0.1-0.3,0.1-0.4,0
					c-0.2-0.1-0.4-0.2-0.7-0.4c-0.1-0.4-0.1-0.6-0.1-0.8c0-0.2,0.1-0.3,0.2-0.4c0.1-0.1,0.3-0.1,0.4,0
					C693.2,153.7,693.4,153.8,693.7,154.1z"/>
				<path class="st3" d="M696.3,157.2c0.2,0.4,0.2,0.6,0.2,0.7c0,0.2,0,0.2-0.1,0.3c-0.1,0-0.1,0-0.3-0.1c-0.1-0.1-0.3-0.2-0.6-0.5
					c-0.2-0.4-0.2-0.6-0.2-0.7c0-0.2,0-0.2,0.1-0.3c0.1,0,0.1,0,0.3,0.1C695.9,156.8,696,156.9,696.3,157.2z"/>
				<path class="st3" d="M690,151.5c-0.4,0.2-0.6,0.2-0.7,0.2c-0.2,0-0.2,0-0.3-0.1c0-0.1,0-0.1,0.1-0.3c0.1-0.1,0.2-0.3,0.5-0.6
					c0.4-0.2,0.6-0.2,0.7-0.2c0.2,0,0.2,0,0.3,0.1c0,0.1,0,0.1-0.1,0.3C690.4,151.1,690.3,151.2,690,151.5z"/>
				<path class="st3" d="M698.7,156.9c0.2,0.4,0.2,0.6,0.2,0.8c0,0.2,0,0.3-0.1,0.4c-0.1,0.1-0.2,0.1-0.4,0.1
					c-0.2,0-0.4-0.1-0.8-0.2c-0.2-0.4-0.2-0.6-0.2-0.8c0-0.2,0-0.3,0.1-0.4c0.1-0.1,0.2-0.1,0.4-0.1
					C698.1,156.7,698.3,156.7,698.7,156.9z"/>
				<path class="st3" d="M690,155.7c0.4,0.2,0.5,0.4,0.6,0.5c0.1,0.2,0.1,0.3,0.1,0.4c0,0.1-0.1,0.2-0.3,0.3
					c-0.2,0.1-0.4,0.2-0.8,0.2c-0.4-0.2-0.5-0.4-0.6-0.5c-0.1-0.2-0.1-0.3-0.1-0.4c0-0.1,0.1-0.2,0.3-0.3
					C689.4,155.8,689.6,155.7,690,155.7z"/>
				<path class="st3" d="M694.2,157.6c0.4,0.1,0.6,0.3,0.7,0.4c0.1,0.1,0.2,0.2,0.2,0.2c0,0.1-0.1,0.1-0.2,0.1c-0.2,0-0.4,0.1-0.8,0
					c-0.4-0.1-0.6-0.3-0.7-0.4c-0.1-0.1-0.2-0.2-0.2-0.2c0-0.1,0.1-0.1,0.2-0.1C693.6,157.6,693.8,157.6,694.2,157.6z"/>
				<path class="st3" d="M713.8,148.8c-0.1,0.4-0.3,0.6-0.4,0.7c-0.1,0.1-0.2,0.2-0.2,0.2c-0.1,0-0.1-0.1-0.1-0.2
					c0-0.2-0.1-0.4,0-0.8c0.1-0.4,0.3-0.6,0.4-0.7c0.1-0.1,0.2-0.2,0.2-0.2c0.1,0,0.1,0.1,0.1,0.2
					C713.8,148.2,713.8,148.4,713.8,148.8z"/>
			</g>
		</g>
		<g>
			<path class="st1" d="M705.1,221.7c0-0.1-1-1.4-2.2-1.5c-1.3,0-2.3,1.3-2.3,1.4l-0.2,0.2l0.2,0.2c0,0.1,1,1.4,2.2,1.5
				c1.3,0,2.3-1.3,2.3-1.4l0.2-0.2L705.1,221.7z"/>
		</g>
	</g>
	<g>
		<rect x="363" y="228.1" class="st4" width="34" height="18.3"/>
		<text transform="matrix(1 0 0 1 363 244.9561)" class="st5 st6 st7">0m</text>
	</g>
	<g>
		<rect x="363" y="536.7" class="st4" width="49" height="18.3"/>
		<text transform="matrix(1 0 0 1 363 553.4978)" class="st8 st6 st7">100m</text>
	</g>
	<line class="st9" x1="423.7" y1="545.8" x2="438.3" y2="545.8"/>
	<line class="st10" x1="402.7" y1="237.3" x2="417.3" y2="237.3"/>
</g>
<g id="image_space" class="st11">
	<rect x="290" y="163" class="st12" width="578" height="512"/>
</g>
</svg>
