<?xml version="1.0" encoding="utf-8"?>
<!-- Generator: Adobe Illustrator 22.0.1, SVG Export Plug-In . SVG Version: 6.00 Build 0)  -->
<svg version="1.1" xmlns="http://www.w3.org/2000/svg" xmlns:xlink="http://www.w3.org/1999/xlink" x="0px" y="0px"
	 viewBox="0 0 1160 768" style="enable-background:new 0 0 1160 768;" xml:space="preserve" preserveAspectRatio="xMidYMid slice"  width="100%">
	    <defs>
                  <style type="text/css">
                  	 @font-face {
                  				font-family: 'Elysio-Regular';
                                     src: url('type_dynamic_-_elysio-webfont.eot');
                                     src: url('type_dynamic_-_elysio-webfont.eot?#iefix') format('embedded-opentype'),
                                     url('type_dynamic_-_elysio-webfont.woff2') format('woff2'),
                                     url('type_dynamic_-_elysio-webfont.woff') format('woff'),
                                     url('type_dynamic_-_elysio-webfont.ttf') format('truetype'),
                                     url('type_dynamic_-_elysio-webfont.svg#elysioregular') format('svg');
                                     font-weight: normal;
                                     font-style: normal;
                  		        }
                  	 </style>
                 </defs>
<style type="text/css">
	.st0{fill:#E6E9EB;}
	.st1{fill:#0C2340;}
	.st2{fill:#CED3D9;}
	.st3{display:none;}
	.st4{display:inline;opacity:0.46;fill:#F05B72;}
</style>
<g id="Layer_1">
	<g>
		<rect x="-6" y="-8" class="st0" width="1170" height="794"/>
	</g>
	<rect x="-8.8" y="-15.3" class="st1" width="1176" height="805.3"/>
</g>
<g id="Layer_3">
	<path class="st2" d="M665.2,594.4c3.4-23.9,0-63.3,0-63.3c-5.2-140.8-95.7-226-95.7-226c-6.8-5.9-7-14.8-4.8-22.7
		c4.2-15.2,5.7-31,4.5-46.7c-0.6-7.9-2.3-26.9-10.6-30.7c-2.5,2.6-1.9,11.5-2.7,15.4c-2.9,14-8.9,25.8-16.1,38
		c-3.5,5.9-7,11.7-10,17.8c-0.9,1.7-6.5,17.9-7,18c-15.9,2.2-30.9,10-45.4,16.3c-12,5.3-23.8,8.4-36.3,11.8
		c1.5,5.3,10,8.5,14.8,10.8c5.9,2.8,16.8,3.8,23.4,4.1c11.1,0.6,22.1-1.4,31.2-7.8c6.5-4.6,18.5-13.2,26.7-8.7c2.4,1.3,4,3.6,5.2,6
		c8,16,10.6,33,11.6,50.7c2.8,50.4-37.2,170.9-56.1,217H665.2z"/>
</g>
<g id="Layer_2" class="st3">
	<rect x="364" y="163" class="st4" width="428" height="512"/>
</g>
</svg>
