<?xml version="1.0" encoding="utf-8"?>
<!-- Generator: Adobe Illustrator 22.0.1, SVG Export Plug-In . SVG Version: 6.00 Build 0)  -->
<svg version="1.1" xmlns="http://www.w3.org/2000/svg" xmlns:xlink="http://www.w3.org/1999/xlink" x="0px" y="0px"
	 viewBox="0 0 1160 768" style="enable-background:new 0 0 1160 768;" xml:space="preserve" preserveAspectRatio="xMidYMid slice"  width="100%">
<style type="text/css">
	.st0{fill:#0C2340;}
	.st1{fill:none;}
	.st2{fill:#FFFFFF;}
	.st3{font-family:'Elysio-Regular';}
	.st4{font-size:22px;}
	.st5{fill:none;stroke:#FFFFFF;stroke-width:2;stroke-miterlimit:10;}
	.st6{fill:#CED3D9;}
	.st7{enable-background:new    ;}
	.st8{fill:#F05B72;}
	.st9{fill:none;stroke:#F05B72;stroke-width:2;stroke-miterlimit:10;}
	.st10{font-family:'Akkurat';}
	.st11{font-size:28px;}
	.st12{fill:#3D4F66;}
	.st13{display:none;}
	.st14{display:inline;opacity:0.46;fill:#F05B72;}
</style>
<g id="Layer_1">
	<rect x="-8.8" y="-15.3" class="st0" width="1176" height="805.3"/>
	<g>
		<rect x="363" y="536.7" class="st1" width="49" height="18.3"/>
		<text transform="matrix(1 0 0 1 363 553.4978)" class="st2 st3 st4">100m</text>
	</g>
	<line class="st5" x1="423.7" y1="545.8" x2="438.3" y2="545.8"/>
</g>
<g id="Layer_2">
	<rect x="-8.8" y="393" class="st0" width="1176" height="397"/>
	<g>
		<g>
			<path class="st6" d="M706.7,486.6c-0.2-2.7-0.6-5.7-2.2-8c-0.9-1.4-2.1-2.3-3.3-3.4c-1.4-1.4-1.7-4-2.4-5.9c0,0,0-0.1,0-0.1
				c-2.6-7.4-6.3-14.3-10-21.3c-3.6-6.7-7.6-13.3-11.8-19.7c-8.4-12.7-17.9-24.8-28.8-35.4c0,0-26.8-28.7-53.8-44.5
				c0,0-3.8-2.4-4.7-8.1c-0.3-1.6-0.8-3.3-1.4-4.8c-0.6-1.5-1.3-3-2.4-4.2c-0.5-0.6-1.1-1.2-1.8-1.7c-0.6-0.4-1.4-1.1-2.2-1.1
				c-0.8,0-0.9,0.9-0.7,1.5c0.4,1.1,0.7,2.3,0.1,3.4c-0.3,0.6-0.7,1.1-1.2,1.6c-0.6,0.6-2.5,2.7-2.9,3c-0.9,0.4-2,0.1-2.8-0.2
				c0,0-18.4-6.5-27.4-9.4c0,0-23.5-6.6-38-9.2c-1.7-0.3-3.4-0.5-5.1-0.7c-3.5-0.4-7.1-0.6-10.6-0.4c-1,0.1-2,0.1-3,0.3
				c-1,0.1-2.1,0.5-3,0c-0.8-0.4-1.4-1.3-1.9-2c-1.2-2.2-3.8-7.7-7.7-10.4c0,0-1.4-1-0.8,0.7c0,0,0,0.2,0,0.3
				c-0.1,0.5-0.4,2.1-3.1,2.2c0,0-4.5,0.4-7,8c0,0-1.4,5-7.7,5.9c0,0-1.7,0.6-4.1,0.7c0,0-4.1-1.1-0.2,2c0,0,13.2,8.4,28.5,2.6
				c1.4-0.5,2.3,0.2,2.3,0.2s5.2,4.8,12,10.3c3.5,2.9,7.4,5.2,11.4,8.6c3.2,2.7,30.4,27.6,30.4,27.6c7.2,6.1,13,13.2,13,13.2
				c20.7,24.2,53.6,57.4,73.3,71.8c0,0,0.7,0.7-1,0.8c0,0-3.3,0-1.6,1.4c0,0,7.1,7.6,17.8,8.4c0,0,9.8,6.8,21.4,13.2
				c0,0,13.9,11.2,24.8,19.2c0,0,1.3,0.8,5.4,4.5c2.1,1.9,6.8,6.8,9.8,4.9c2.3-1.5,0.9-4.4,1-6.5
				C703.7,505.9,706.9,489.6,706.7,486.6z"/>
		</g>
		<g>
			<g>
				<path class="st0" d="M686.8,484.1c0-0.1,0.2-1.7-0.7-2.6s-2.6-0.5-2.6-0.5l-0.3,0.1l0,0.3c0,0.1-0.2,1.7,0.7,2.6
					c0.9,0.9,2.6,0.5,2.6,0.5l0.3-0.1L686.8,484.1z"/>
			</g>
		</g>
	</g>
	<g>
		<rect x="363" y="536.7" class="st1" width="49" height="18.3"/>
		<text transform="matrix(1 0 0 1 363 553.4978)" class="st7"><tspan x="0" y="0" class="st8 st3 st4">1</tspan><tspan x="8.5" y="0" class="st8 st3 st4">,8</tspan><tspan x="25" y="0" class="st8 st3 st4">0</tspan><tspan x="36.8" y="0" class="st8 st3 st4">0</tspan><tspan x="49.9" y="0" class="st8 st3 st4">m</tspan></text>
	</g>
	<line class="st9" x1="437.7" y1="545.8" x2="452.3" y2="545.8"/>
	<line class="st5" x1="437.7" y1="238.2" x2="452.3" y2="238.2"/>
	<g>
		<rect x="363" y="228.1" class="st1" width="34" height="18.3"/>
	</g>
	<text transform="matrix(1 0 0 1 363 244.9561)" class="st7"><tspan x="0" y="0" class="st2 st3 st4">1</tspan><tspan x="8.5" y="0" class="st2 st3 st4">,7</tspan><tspan x="22.6" y="0" class="st2 st3 st4">0</tspan><tspan x="34.4" y="0" class="st2 st3 st4">0</tspan><tspan x="47.5" y="0" class="st2 st3 st4">m</tspan></text>
	<g>
		<rect x="496.4" y="580.2" class="st1" width="167.7" height="21.8"/>
		<text transform="matrix(1 0 0 1 505.0171 600.4131)" class="st8 st10 st11">Time to rise</text>
	</g>
	<g>
		<g>
			<path class="st8" d="M588.7,561c-4.7,0-12.3,0-17,0h-46.2c-4.7,0-6.6-3.3-4.3-7.4l23.1-40c2.3-4.1,6.2-10.7,8.5-14.7l23.1-40
				c2.3-4.1,6.2-4.1,8.5,0l23.1,40c2.3,4.1,6.2,10.7,8.5,14.7l23.1,40c2.3,4.1,0.4,7.4-4.3,7.4H588.7z"/>
		</g>
		<g>
			<g>
				<g>
					<path class="st0" d="M587.8,544.9c0,3.1-2.6,5.7-5.7,5.7h-3.9c-3.1,0-5.7-2.6-5.7-5.7v-4.8c0-3.1,2.6-5.7,5.7-5.7h3.9
						c3.1,0,5.7,2.6,5.7,5.7V544.9z M585.3,522c-0.3,3.1-2.6,5.6-5,5.6c-2.4,0-4.7-2.5-5-5.6l-1.6-15.6c-0.3-3.1-0.6-8.2-0.6-11.3
						v-3c0-3.1,2.6-5.7,5.7-5.7h3.2c3.1,0,5.7,2.6,5.7,5.7v3c0,3.1-0.3,8.2-0.6,11.3L585.3,522z"/>
				</g>
			</g>
		</g>
	</g>
	<path class="st12" d="M631.4,285.1c-1.5-0.4-4.5,0.3-6,1.1c-1.5,0.8-4.2,2.8-5,3.2s-3.2,3.6-3.7,4.6c-0.5,1.1-0.8,4.2-0.9,5.7
		c-0.1,1.5,0.7,4.4,1,5.3c0.3,0.9,1.3,3,2.5,3.8c1.2,0.8,1.9,1.6,2.3,1.9c0,0,0.4,0.5,1,1.6c0.6,1.1,0.5,0.6,1.2,0.4
		c0.7-0.3,1-0.5,1.6-0.8c0.6-0.3,1.5-0.6,2.2-0.6c0.7,0,0.4,0.4,0.6,0.8c0.1,0.5,0,0.9,0,1.8s0.4,2.8,0.6,4.2s-0.1,2.2-0.7,4
		c-0.6,1.7-0.2,1.7,0.7,3.4c0.8,1.7,1,0.9,1.9,1.6c0.9,0.7,0.7,1.1,1.5,2c0.8,0.9,2.5,2.6,2.9,3s0.5,1,0.9,2.1s0.8,1.2,1.5,2
		c0.7,0.8,1.3,1,2,1.5c0.7,0.5,0.7,0.8,0.8,1.1c0,0.3,0.2,0.8,0.7,0.4c0.5-0.3,0-0.8-0.6-1.4c-0.6-0.6-1.1-1.1-1.9-1.6
		c-0.8-0.5-0.6-0.8-1-1.5c-0.4-0.7-0.8-1.7-1-2.7c-0.2-1-0.2-0.7-0.3-1.9c-0.1-1.2-0.2-0.7-0.7-1.5s-1.3-1.5-2-2.1
		c-0.7-0.7-0.8-0.8-1.2-1.3s-0.2-0.8-0.3-1.4c-0.2-0.6-0.3-1.1-0.7-1.4c-0.3-0.3-0.7-0.7-0.9-1.2s0-0.9-0.1-1.4
		c0-0.6,0.2-0.1,0.5,0.3s0.9,1.3,1.3,1.8s0.7,0.8,1.3,1.6s0.5,0.7,1,1.2c0.5,0.5,0.5,0.7,0.9,1.4c0.4,0.7,0.6,1,0.9,2.1
		c0.3,1.1,0.9,1.5,1.6,2c0.7,0.4,0.5,0.4,0.7,0.7c0.2,0.3,0.3,0.6,0.6,1.3c0.3,0.6,1.4,2.2,1.8,2.7c0.5,0.5,1,1.2,1.5,1.6
		c0.4,0.4,0.4,0.7,0.8,1.3c0.3,0.6,0.6,0.9,1,1c0.4,0.1,0.3-0.5,0-1.2c-0.3-0.7-0.6-1-1.2-1.5c-0.5-0.5-0.7-1.1-1-1.6
		c-0.2-0.5-1.1-1.7-1.3-2.2c-0.1-0.5-0.2-0.8-0.3-1.3c-0.1-0.4,0-0.3,0.4,0c0.3,0.2,0.3,0.5,0.7,1.6c0.4,1.1,0.9,1.2,1.5,1.5
		s1.7,0.7,2.2,0.9c0.5,0.3,0.6,0.4,1,1c0.4,0.6,0.6,1.3,1,1c0.4-0.4-0.6-1.8-1-2c-0.4-0.2-1.6-0.9-1.9-0.9c-0.2,0-1-0.6-1.4-1
		c-0.5-0.4-0.5-0.8-0.8-1.1c-0.4-0.4-0.6-0.9-0.8-1.4c-0.2-0.6-0.3-0.9-0.7-1.4c-0.4-0.5-0.6-0.9-0.7-1.4s0-0.5,0-1.4
		c0-0.8-0.1-1.4-0.2-1.9c-0.1-0.5-0.2-0.9,0.1-0.9c0.3,0,0.8,1.2,1.8,2.2s1.7,1,2,1.3c0.4,0.3,0.4,0.6,0.7,1.1
		c0.3,0.5,0.4,0.7,0.8,1.6c0.4,0.9,0.7,1,1.3,2c0.6,1,1.1,3.5,1.2,4.2c0.1,0.6,0.1,1.3,0.1,1.6c0,0.3,0.3,0.6,0.6,0.3
		c0.3-0.2,0.4-1.7,0.3-2.3s-0.3-0.7-0.5-1.4s-0.1-0.7-0.4-1.4c-0.2-0.6-0.3-1.2-0.4-1.5s-0.6-1.3-0.8-1.6c-0.2-0.3-0.7-1.4-1-1.9
		c-0.3-0.5-0.4-0.9,0-1.2c0.4-0.4,1,1,1.3,1.5c0.2,0.4,0.4,1.3,0.7,2s0.6,1.1,0.8,2.7c0.3,1.6,0.2,2,0.4,2.5s0.5,1,1,0.8
		s-0.1-1.1-0.3-1.8c-0.2-0.7-0.1-1.1-0.3-1.6s-0.2-1-0.4-1.9c-0.2-0.8-0.6-3.3-0.8-3.8s-0.1-0.7,0-1.4c0.1-0.6,0.1-0.5,0.1-1
		c0-0.5,0.5-0.6,0.7-0.1c0.3,0.4,0.3,0.6,0.6,1.2c0.2,0.6,1.1,2.5,1.3,3.1c0.2,0.7,0.5,1.6,0.8,2.3c0.3,0.7,0.5,1,0.9,1.6
		c0.4,0.6,0.7,1,1,1.4c0.3,0.4,0.5,0.1,0.6-0.2s-1-1.8-1.6-2.3c-0.5-0.5-0.3-1-0.4-1.5c-0.1-0.5-0.3-0.9-0.5-1.7
		c-0.1-0.7-0.1-0.9-0.2-1.4c0-0.5,0-0.7,0.1-1.5c0.1-0.8,0-0.9-0.2-1.7c-0.1-0.8-0.3-1.4-0.4-2.2c-0.1-0.8-0.3-0.7-0.6-1.4
		c-0.3-0.7-0.2-0.7-0.2-1.5c-0.1-0.8-0.2-0.9-0.5-1.9c-0.3-1-0.4-1.2-0.8-1.9c-0.4-0.7-0.8-1.9-0.8-2.5s0.4-0.1,0.8,0.5
		c0.4,0.6,0.6,1.4,0.8,2.1c0.2,0.7,0.7,0.9,1.3,1.8c0.6,0.9,0.5,2.1,0.6,3c0.1,0.9,0.5,2.7,0.8,3.6c0.3,0.8,1.4,1.7,2.2,2.8
		c0.8,1.1,0.8,1.7,1.3,2.5c0.5,0.8,0.6,1.8,0.8,2.8c0.2,1,0.3,2.4,0.6,2.9c0.4,0.5,0.7,0.4,0.9,0.1c0.2-0.3-0.9-1.6-0.8-2.4
		c0.1-0.8-0.3-1.1-0.5-3.2c-0.2-2-0.7-2.8-1.1-3.6c-0.4-0.7-0.8-1.1-0.8-1.7c0-0.5,0.3-1.2,0.2-2.3c0-1-0.7-2.2-1-3.1s0.1-1.7,0-2.7
		c-0.1-1-0.7-2.1-1.4-3c-0.7-1-3.1-1-4.1-1.6s-2.2-2.3-3.3-3.3c-1.1-1-3.7-3-3.7-3s0.3-0.7,0.5-1.4s0.4-0.3,1.7-0.4
		c1.3,0,0.4-0.8,0.9-1.6c0.5-0.9,1-1.4,1.5-2.4c0.5-1.1-0.7-1.5-1.3-2.3c-0.6-0.9-0.9-2.4-1.5-3.9c-0.6-1.5-1.5-2.4-3.8-4.5
		C637,285.6,632.9,285.5,631.4,285.1z M632.5,309.1c0.5,0,0.3,0.5,0.4,0.8c0.1,0.4,0.3,0.9,0.3,1.5c0.1,0.6,0.1,1.2,0.1,1.8
		c0,0.6,0,1.2-0.2,1.4s-1.1-0.4-1.4-0.7c-0.3-0.2-0.2-0.7-0.2-1.4c-0.1-0.7-0.4-3.2-0.4-3.2C631,309.1,631.9,309.2,632.5,309.1z
		 M630.5,314c0.1,0.9,0,1-0.2,1.6c-0.1,0.7-0.3,0.4-0.7,0.1c-0.4-0.3,0-0.6,0-1.5c0-0.9-0.1-1.1-0.2-2.1c-0.1-0.9-0.1-1.4-0.1-1.7
		c0-0.7,0.5-0.5,0.7-0.3S630.4,313.1,630.5,314z M635.7,315.2c0.1,0.4,0.1,0.8,0.1,1.2c0,0.4-0.5,0.2-0.8-0.1s-0.2-1.1-0.2-1.4
		s0-0.8,0.1-1c0.1-0.4,0.1-0.3,0.3-0.2S635.6,314.8,635.7,315.2z M636.3,310.5c0.1,0.3,0.6,1,0.3,1.3s-0.5,0.7-0.9,0.8
		c-0.4,0.2-0.7,0.4-0.7,0.1c0-0.4,0.3-0.1,0.2-0.9c-0.1-0.8-0.2-0.7-0.3-1.1c-0.1-0.4-0.2-0.7-0.2-1.1c-0.1-0.4-0.4-1.2-0.3-1.3
		c0,0,0.3-0.3,0.6-0.2c0.3,0.1,0.1-0.1,0.5,0.5C635.8,309.2,636.2,310.1,636.3,310.5z M640.1,311.2c0.4,0.2,0.8,0.5,0.6,0.5
		c-0.2,0.1-0.8,0-1.4-0.2c-0.5-0.3-1.2-0.3-1.3-0.8c-0.2-0.5-0.6-1.2-0.8-1.5c-0.2-0.3-0.5-0.9-0.6-1.3c0,0-0.2-0.4,0.1-0.7
		c0.3-0.2,0.5,0.2,0.7,0.5s0.9,1.7,1.2,2S639.7,311,640.1,311.2z M642.5,310c0.6,0.4,0.6,0.7,1,1.1c0.3,0.4,0.1,0.7-0.3,0.7
		c-0.4,0.1-0.8-0.7-1.3-1.2c-0.6-0.5-2.1-1.8-2.1-2c-0.1-0.7,0.7,0,1.2,0.5C641.4,309.6,641.9,309.6,642.5,310z M640,305
		c0.6,0.4,1.9,1.3,2.5,1.8c0.6,0.4,0.6,0.6,1.2,1.2c0.6,0.7,1,0.9,1.5,1.4c0.5,0.5,0.7,0.7,0.7,1c0,0.3-0.9-0.3-1.7-1
		c-0.8-0.7-3.5-2.8-3.9-3.1c-0.4-0.3-0.9-0.7-0.9-1.1C639.4,304.8,639.4,304.7,640,305z"/>
	<path class="st12" d="M471.3,442.3c0,0,2-4.2,8.1-5.5c6.2-1.3,15.9-1,15.9-1s3.6-2.3,6.2-2.9c0,0-0.2,2.3,0,2.8s2.1,1.9,2.1,1.9
		h-1.6c0,0,4.4,2.4,7.1,2.8c2.7,0.5,3.8,0.8,3.8,0.8s7.8-5.7,9.5-6.4c0,0,0.1,2.8-1.3,4.9c-1.4,2.1-1.6,2.6-1.6,2.6s2.7,2.7,3.5,4.5
		c0.8,1.9,0.8,3.6,0.8,3.6s-9.5-4.8-11.1-4.9c-1.6-0.1-5.6,0-5.6,0s0.7,0.8,1.9,0.8c0,0-2.9,0.9-3.5,2.3s-0.8,3.4-0.8,3.4
		s-3.8-2.7-4.8-3s-5.9-0.1-6.3-0.1c0,0,1.2,1.3,1,2.1c-0.1,0.8-1.2,3.8-1.7,3.7c-0.6-0.1-3.4-4.6-3.3-5.9c0,0-8.8-1.2-10.6-1.7
		C477.3,446.5,473.6,446.6,471.3,442.3z"/>
	<path class="st12" d="M649.2,240.3c0,0,1.2-0.6,3.4,0c2.1,0.6,2.6,1.2,3.8,1.5c1.2,0.4,3.2,0.1,5,0.8s4.6,1.3,6.1,2.5
		c1.5,1.1,1.3,1.1,2.6,1.9s1.5,0.7,2.4,1.5c0.9,0.8,1.3,1.1,1.4,1.5c0.1,0.5,0.5,2.4-1.7,3.1s-5.5,2-6.7,2.1c-1.1,0.1-9,0.3-9.7,0.5
		c-0.7,0.2-2.1,1.1-2.6,0.9c-0.5-0.2-1.5-0.8-0.8-0.8s2-0.3,2.1-0.5c0.1-0.2-2.1-0.3-2.8-0.4s-2.2,0.4-2.5,0.6
		c-0.2,0.2-0.9,2.2-1.3,1.8c-0.4-0.4-0.2-1.3,0-1.8c0.2-0.5,1.5-0.9,0.9-1.1c-0.6-0.1-2.5,0.7-3.2,1s-2,0.1-2.1-0.3s0.4-1.2,0-2
		s0.4-1.5,0-1.8s-2.2-0.1-2.2-0.1s-3.7,0.5-5.6,2.8c-1.9,2.3-2.7,2.5-3.4,2.5s0.5-4.4,1.4-5.3c0.8-0.9,1.5-2,1.2-2.6
		c-0.2-0.5-1.8-4.5-2.8-5.5c-1-1-1.7-1.8-0.6-1.8c1.1,0,3.8,1.5,4.3,2c0.5,0.5,1.3,0.7,2.1,1.5c0.8,0.8,0.5,1.4,2.3,1.4
		s5.1-0.7,6.1-1.1s2.2-0.5,2.6-1.2C650.1,241.3,648.5,240.5,649.2,240.3z"/>
	<path class="st12" d="M632.5,213.1c-0.6-0.1-4.8-1.6-8.3-1.8s-4.8,0-4.8,0s-2.7-1-3.1-1s-0.4,0.2-0.4,0.5c0,0.3,0,0.9,0,0.9
		s-2.7,0.2-3.4,0.3c-0.7,0.1-0.7,0.1-0.7,0.1s-0.8-0.8-1.2-0.7c-0.4,0-0.6,0.4-0.6,0.6s-0.7,0.2-0.9,0.2c-0.2,0-0.8,0-1.8,0
		c-1-0.1-4.2-1.5-4.9-1.4c-0.6,0.1,1.1,1,1,2.9c-0.1,1.9-0.8,2.6-0.9,2.8s0.3,0.6,1.1,0.2c0.8-0.4,2.6-1.5,3.2-1.7
		c0.6-0.2,2.9,0,3.3,0c0,0-0.4,1.7,0.3,1.8c0.7,0.1,2.4-0.3,2.8-0.4c0.3-0.1,3.3,1.3,5.3,1.4c0,0-0.7,1.3-0.4,1.3
		c0.3,0,1.5-0.3,2.2-1.1c0,0,5.9,0,8.5-1.1s3.3-1.4,3.7-1.7c0.4-0.3,1.3-0.8,0.6-0.8c-0.7,0-0.9,0.1-1.3,0c-0.3-0.1,0.8-0.6,1.1-0.8
		S632.9,213.2,632.5,213.1z"/>
	<path class="st12" d="M603.3,194.8c-0.6-0.1-4.5-1.6-7.7-1.8c-3.3-0.2-4.5,0-4.5,0s-2.5-1-2.8-1c-0.4,0-0.4,0.2-0.4,0.5
		c0,0.3,0,0.9,0,0.9s-2.5,0.2-3.2,0.3c-0.6,0.1-0.6,0.1-0.6,0.1s-0.8-0.8-1.2-0.7s-0.5,0.4-0.6,0.6s-0.7,0.2-0.9,0.2s-0.8,0-1.7,0
		c-0.9-0.1-3.9-1.5-4.5-1.4c-0.6,0.1,1,1,1,2.9c-0.1,1.9-0.7,2.6-0.8,2.8c-0.1,0.2,0.2,0.6,1,0.2s2.4-1.5,3-1.7c0.5-0.2,2.7,0,3.1,0
		c0,0-0.4,1.7,0.3,1.8c0.6,0.1,2.2-0.3,2.6-0.4s3.1,1.3,5,1.4c0,0-0.7,1.3-0.4,1.3c0.3,0,1.4-0.3,2.1-1.1c0,0,5.5,0,7.9-1.1
		c2.4-1.1,3.1-1.4,3.5-1.7c0.4-0.3,1.2-0.8,0.6-0.8c-0.6,0-0.9,0.1-1.2,0c-0.3-0.1,0.8-0.6,1-0.8C604,195.1,603.7,194.8,603.3,194.8
		z"/>
	<path class="st12" d="M647.1,185.9c-0.6-0.1-4.5-1.6-7.7-1.8s-4.5,0-4.5,0s-2.5-1-2.8-1s-0.4,0.2-0.4,0.5c0,0.3,0,0.9,0,0.9
		s-2.5,0.2-3.2,0.3c-0.6,0.1-0.6,0.1-0.6,0.1s-0.8-0.8-1.2-0.7s-0.5,0.4-0.6,0.6s-0.7,0.2-0.9,0.2s-0.8,0-1.7,0
		c-0.9-0.1-3.9-1.5-4.5-1.4c-0.6,0.1,1,1,1,2.9c-0.1,1.9-0.7,2.6-0.8,2.8c-0.1,0.2,0.2,0.6,1,0.2s2.4-1.5,3-1.7s2.7,0,3.1,0
		c0,0-0.4,1.7,0.3,1.8c0.6,0.1,2.2-0.3,2.6-0.4c0.3-0.1,3.1,1.3,5,1.4c0,0-0.7,1.3-0.4,1.3s1.4-0.3,2.1-1.1c0,0,5.5,0,7.9-1.1
		c2.4-1.1,3.1-1.4,3.5-1.7c0.4-0.3,1.2-0.8,0.6-0.8c-0.6,0-0.9,0.1-1.2,0c-0.3-0.1,0.8-0.6,1-0.8C647.8,186.3,647.4,186,647.1,185.9
		z"/>
	<path class="st12" d="M556.8,244.4c1.7-0.6,1-0.5,2.8,0.2c1.7,0.7,4.9,1.9,6.1,1.4c1.2-0.6,2.3-1.4,3-1.1c0.6,0.3,1.9,1.3,1.9,1.3
		c0.7,0.2,1.4-0.3,2.2,0.4c0.8,0.7,1.8,2.6,0.9,3.1c-0.9,0.6-1.8,0.5-2.5,0.1c-0.7-0.4-1.6-0.4-2.2-0.2c-0.6,0.2-1.6,0.8-1.9,0.7
		c-0.4-0.2-0.9-0.5-1,0.2c-0.1,0.7-0.2,1.5-0.3,2.2s-0.7,2-1.3,2.2s-1.6,0.3-2,1.1c-0.3,0.8-0.3,1-0.4,2.3c-0.2,1.4-0.7,2.5-1.4,3.4
		c-0.8,0.9-6.5,4.4-7.5,5.5c-0.9,1.1-2,2.6-3.3,2.5c-1.2-0.1-4.3,0.9-5.2,1.2c-0.9,0.2-3.3,1.1-5.5,2.9c-2.2,1.7-1.9,2-1.6,2.5
		s2.4,0.4,3,0.2c0.7-0.2,1.1,0.3,0.6,0.9c-0.5,0.6-0.8,0.9-1.6,0.5c-0.8-0.4-1.3-0.1-2.2-0.7c-0.9-0.6-1.1-1-1.2-1.7
		c-0.1-0.7,0-1.1,0.4-1.6c0.4-0.5,2-1.7,2-1.7l0.6-0.7c0,0-3.4-0.2-4.3,1.1s-1,1.7-0.7,2.3c0.3,0.5,0.7,1.3,0.1,1.1
		c-0.6-0.1-0.9,0-1-0.6c-0.1-0.6-0.7-3,1-4c0,0-1.7-0.2-3.3,3.1s-2.4,6.2-3.1,7c-0.7,0.7-1.4,2.4-1.6,1.8s-0.4-0.3,0.1-1.4
		c0.5-1.2,1.6-3,2.3-5.5c0.7-2.5,1.3-5.4,2.8-6.9c1.5-1.5,2.1-1.5,2.1-1.5s-0.3-3.4,1.2-5.1c1.4-1.7,5.5-4.7,7.4-5.5
		c1.9-0.8,6.8-3.3,9.3-3.7s5.5-1.7,5.9-1.7c0,0-3.6-2.4-3.8-3.5C553.4,247.3,555.2,245,556.8,244.4z M535,270.7c0,0,2.1,0,3.6-0.3
		c1.5-0.3,2.8-0.2,3.4-1.5c0.6-1.4,2.9-3.3,2.9-4.4c0-1.1,0-1.1,0-1.1L535,270.7z M545,259.9c-1.1-1.2-2.3,0.6-3.3,1
		c-1,0.4-2.6,0.9-4.1,0.9c-1.5,0-1.2,0.6-2.1,1.5s-0.6,3.2-0.6,3.2S545.2,260.1,545,259.9z"/>
</g>
<g id="marker" class="st13">
	<rect x="364" y="163" class="st14" width="428" height="512"/>
</g>
</svg>
