<?xml version="1.0" encoding="utf-8"?>
<!-- Generator: Adobe Illustrator 22.0.1, SVG Export Plug-In . SVG Version: 6.00 Build 0)  -->
<svg version="1.1" xmlns="http://www.w3.org/2000/svg" xmlns:xlink="http://www.w3.org/1999/xlink" x="0px" y="0px"
	 viewBox="0 0 1160 768" style="enable-background:new 0 0 1160 768;" xml:space="preserve" preserveAspectRatio="xMidYMid slice"  width="100%">
	       <defs>
             <style type="text/css">
             	 @font-face {
             				font-family: 'Elysio-Regular';
                                src: url('type_dynamic_-_elysio-webfont.eot');
                                src: url('type_dynamic_-_elysio-webfont.eot?#iefix') format('embedded-opentype'),
                                url('type_dynamic_-_elysio-webfont.woff2') format('woff2'),
                                url('type_dynamic_-_elysio-webfont.woff') format('woff'),
                                url('type_dynamic_-_elysio-webfont.ttf') format('truetype'),
                                url('type_dynamic_-_elysio-webfont.svg#elysioregular') format('svg');
                                font-weight: normal;
                                font-style: normal;
             		        }
             	 </style>
            </defs>
<style type="text/css">
	.st0{fill:#E6E9EB;}
	.st1{fill:#0C2340;}
	.st2{fill:none;}
	.st3{fill:#F05B72;}
	.st4{font-family:'Elysio-Regular';}
	.st5{font-size:22px;}
	.st6{fill:#FFFFFF;}
	.st7{fill:#CED3D9;}
	.st8{fill:#9EA7B3;stroke:#0C2340;stroke-width:2;stroke-miterlimit:10;}
	.st9{fill:#FFFFFF;stroke:#FFFFFF;stroke-miterlimit:10;}
	.st10{fill:none;stroke:#F05B72;stroke-width:10;stroke-miterlimit:10;}
	.st11{font-family:'Elysio-Regular';}
	.st12{font-size:28px;}
	.st13{fill:none;stroke:#FFFFFF;stroke-width:2;stroke-miterlimit:10;}
	.st14{fill:none;stroke:#F05B72;stroke-width:2;stroke-miterlimit:10;}
	.st15{display:none;}
	.st16{display:inline;opacity:0.46;fill:#F05B72;}
</style>
<g id="Layer_1">
	<g>
		<rect x="-6" y="-8" class="st0" width="1170" height="794"/>
	</g>
	<path class="st1" d="M1167.2,190v208.6H-8.8V190v1.3c73.5,0,73.5,22.2,147,22.2c73.5,0,73.5-22.2,147-22.2s73.5,22.2,147,22.2
		c73.5,0,73.5-22.2,147-22.2c73.5,0,73.5,22.2,147,22.2c73.5,0,73.5-22.2,147-22.2c73.5,0,73.5,22.2,147,22.2s73.5-22.2,147-22.2
		V190z"/>
	<rect x="-8.8" y="393" class="st1" width="1176" height="397"/>
	<g>
		<rect x="363" y="228.1" class="st2" width="34" height="18.3"/>
		<text transform="matrix(1 0 0 1 363 244.9561)" class="st3 st4 st5">0m</text>
	</g>
	<g>
		<rect x="363" y="536.7" class="st2" width="49" height="18.3"/>
		<text transform="matrix(1 0 0 1 363 553.4978)" class="st6 st4 st5">100m</text>
	</g>
	<g>
		<g>
			<path class="st7" d="M721.1,210.7c-1.9-1.9-4.2-3.9-6.9-4.6c-1.6-0.4-3.1-0.3-4.7-0.5c-2-0.2-3.9-1.9-5.7-2.9c0,0-0.1,0-0.1-0.1
				c-6.9-3.9-14.2-6.7-21.5-9.5c-7.2-2.7-14.4-5.1-21.8-7.2c-14.7-4.1-29.7-7-44.9-7.8c0,0-39.1-4.2-69.8,1.7c0,0-4.4,0.7-8.9-3.1
				c-1.3-1-2.7-1.9-4.2-2.7c-1.4-0.7-3-1.4-4.6-1.6c-0.8-0.1-1.6-0.2-2.4-0.1c-0.7,0.1-1.8,0.1-2.3,0.6c-0.6,0.5-0.1,1.2,0.4,1.6
				c1,0.6,2,1.3,2.4,2.5c0.2,0.6,0.2,1.3,0.1,2c0,0.8-0.1,3.7-0.3,4.2c-0.4,0.9-1.4,1.4-2.3,1.7c0,0-18.2,7.1-26.9,10.8
				c0,0-22.1,10.4-34.7,17.9c-1.5,0.9-2.9,1.9-4.3,2.9c-2.9,2-5.7,4.2-8.2,6.6c-0.7,0.7-1.4,1.4-2.1,2.2c-0.7,0.8-1.2,1.7-2.3,2
				c-0.9,0.2-1.9,0-2.7-0.3c-2.4-0.9-7.9-3.4-12.6-2.8c0,0-1.7,0.2-0.1,1.1c0,0,0.1,0.1,0.2,0.2c0.3,0.4,1.1,1.9-0.9,3.7
				c0,0-3.1,3.2,0,10.6c0,0,2.2,4.7-1.9,9.5c0,0-0.9,1.6-2.7,3.2c0,0-3.9,1.8,1.2,1.7c0,0,15.5-2.3,23.3-16.7
				c0.7-1.4,1.8-1.4,1.8-1.4s7.1,0.2,15.8-0.1c4.5-0.2,9-0.9,14.3-0.9c4.2-0.1,41.1,0.9,41.1,0.9c9.4-0.1,18.5,1.5,18.5,1.5
				c31.5,4.7,78.1,8.3,102.4,6.2c0,0,1,0.1-0.2,1.2c0,0-2.5,2.1-0.3,2.1c0,0,10.3,1.1,18.9-5.4c0,0,11.9-1.3,24.8-4.1
				c0,0,17.8-0.6,31.3-1.7c0,0,1.5-0.2,7-0.1c2.8,0.1,9.6,0.7,10.6-2.7c0.8-2.6-2.2-3.9-3.5-5.6
				C731.5,227.2,723.3,212.8,721.1,210.7z"/>
		</g>
		<g>
			<g>
				<path class="st1" d="M704.5,221.8c0-0.1-1-1.4-2.2-1.5c-1.3,0-2.3,1.3-2.3,1.3l-0.2,0.2l0.1,0.2c0,0.1,1,1.4,2.2,1.5
					c1.3,0,2.3-1.3,2.3-1.3l0.2-0.2L704.5,221.8z"/>
			</g>
		</g>
	</g>
	<path class="st8" d="M680.1,224.6c-9.8,5.3-23.5,7.3-23.5,7.3c-6.6,1.8-11.1-3-11.1-3c-4.4-5.8-8.8-11.6-13.2-17.4
		c-0.5-0.6-1-1.3-1.3-2.1c-0.6-1.6,0.3-3.6,1.3-4.9c2.5-3,9.8-1.7,13.1-1.3c4.9,0.6,9.6,2,14.1,3.9c9,3.7,12.5,5.4,19.9,11.6
		C679.4,218.7,684,222.7,680.1,224.6z"/>
	<line class="st9" x1="664.6" y1="257" x2="664.6" y2="221.8"/>
	<rect x="642.1" y="260.8" class="st2" width="49.9" height="19.2"/>
	<text transform="matrix(1 0 0 1 643.9402 277.6699)" class="st6 st4 st5">lungs</text>
	<g>
		<path class="st3" d="M590.3,360.2c0,0-1.6-29.2,13.2-30.9c12.1-1.4,21.7,6.1,31.3,23.3c9.6,17.2,7,49,6.7,53.5
			c-0.4,4.6-0.7,17.9-5.7,22.1c-5,4.2-14.6-3.1-21.4-7.5c-7.5-4.9-19.9-12.2-23-26.4C589.3,384.9,590.3,360.2,590.3,360.2z"/>
		<path class="st3" d="M569.6,360.2c0,0,1.6-29.2-13.2-30.9c-12.1-1.4-21.7,6.1-31.3,23.3c-9.6,17.2-7,49-6.7,53.5
			c0.4,4.6,0.7,17.9,5.7,22.1c5,4.2,14.6-3.1,21.4-7.5c7.5-4.9,19.9-12.2,23-26.4C570.7,384.9,569.6,360.2,569.6,360.2z"/>
		<path class="st10" d="M580.1,322v25.9c0,0-5.2,6-10.9,6"/>
		<path class="st10" d="M580.1,322v25.9c0,0,5.2,6,10.9,6"/>
	</g>
	<g>
		<rect x="513" y="450.2" class="st2" width="133.9" height="21.8"/>
		<text transform="matrix(1 0 0 1 513.1523 470.4131)" class="st3 st11 st12">Breathe in</text>
	</g>
	<line class="st13" x1="423.7" y1="545.8" x2="438.3" y2="545.8"/>
	<line class="st14" x1="402.7" y1="237.3" x2="417.3" y2="237.3"/>
</g>
<g id="marker" class="st15">
	<rect x="364" y="163" class="st16" width="428" height="512"/>
</g>
</svg>
