<?xml version="1.0" encoding="utf-8"?>
<!-- Generator: Adobe Illustrator 22.0.1, SVG Export Plug-In . SVG Version: 6.00 Build 0)  -->
<svg version="1.1" xmlns="http://www.w3.org/2000/svg" xmlns:xlink="http://www.w3.org/1999/xlink" x="0px" y="0px"
	 viewBox="0 0 1160 768" style="enable-background:new 0 0 1160 768;" xml:space="preserve" preserveAspectRatio="xMidYMid slice"  width="100%">
<style type="text/css">
	.st0{fill:#0C2340;}
	.st1{fill:none;}
	.st2{fill:#FFFFFF;}
	.st3{font-family:'Elysio-Regular';}
	.st4{font-size:22px;}
	.st5{fill:none;stroke:#FFFFFF;stroke-width:2;stroke-miterlimit:10;}
	.st6{fill:#CED3D9;}
	.st7{fill:#F05B72;}
	.st8{font-family:'Akkurat';}
	.st9{font-size:28px;}
	.st10{enable-background:new    ;}
	.st11{fill:none;stroke:#F05B72;stroke-width:2;stroke-miterlimit:10;}
	.st12{display:none;}
	.st13{display:inline;opacity:0.46;fill:#F05B72;}
</style>
<g id="Layer_1">
	<rect x="-8.8" y="-15.3" class="st0" width="1176" height="805.3"/>
	<g>
		<rect x="363" y="536.7" class="st1" width="49" height="18.3"/>
		<text transform="matrix(1 0 0 1 363 553.4978)" class="st2 st3 st4">100m</text>
	</g>
	<line class="st5" x1="423.7" y1="545.8" x2="438.3" y2="545.8"/>
</g>
<g id="Layer_2">
	<rect x="-8.8" y="393" class="st0" width="1176" height="397"/>
	<g>
		<g>
			<path class="st6" d="M706.7,366.6c-0.2-2.7-0.6-5.7-2.2-8c-0.9-1.4-2.1-2.3-3.3-3.4c-1.4-1.4-1.7-4-2.4-5.9c0,0,0-0.1,0-0.1
				c-2.6-7.4-6.3-14.3-10-21.3c-3.6-6.7-7.6-13.3-11.8-19.7c-8.4-12.7-17.9-24.8-28.8-35.4c0,0-26.8-28.7-53.8-44.5
				c0,0-3.8-2.4-4.7-8.1c-0.3-1.6-0.8-3.3-1.4-4.8c-0.6-1.5-1.3-3-2.4-4.2c-0.5-0.6-1.1-1.2-1.8-1.7c-0.6-0.4-1.4-1.1-2.2-1.1
				c-0.8,0-0.9,0.9-0.7,1.5c0.4,1.1,0.7,2.3,0.1,3.4c-0.3,0.6-0.7,1.1-1.2,1.6c-0.6,0.6-2.5,2.7-2.9,3c-0.9,0.4-2,0.1-2.8-0.2
				c0,0-18.4-6.5-27.4-9.4c0,0-23.5-6.6-38-9.2c-1.7-0.3-3.4-0.5-5.1-0.7c-3.5-0.4-7.1-0.6-10.6-0.4c-1,0.1-2,0.1-3,0.3
				c-1,0.1-2.1,0.5-3,0c-0.8-0.4-1.4-1.3-1.9-2c-1.2-2.2-3.8-7.7-7.7-10.4c0,0-1.4-1-0.8,0.7c0,0,0,0.2,0,0.3
				c-0.1,0.5-0.4,2.1-3.1,2.2c0,0-4.5,0.4-7,8c0,0-1.4,5-7.7,5.9c0,0-1.7,0.6-4.1,0.7c0,0-4.1-1.1-0.2,2c0,0,13.2,8.4,28.5,2.6
				c1.4-0.5,2.3,0.2,2.3,0.2s5.2,4.8,12,10.3c3.5,2.9,7.4,5.2,11.4,8.6c3.2,2.7,30.4,27.6,30.4,27.6c7.2,6.1,13,13.2,13,13.2
				c20.7,24.2,53.6,57.4,73.3,71.8c0,0,0.7,0.7-1,0.8c0,0-3.3,0-1.6,1.4c0,0,7.1,7.6,17.8,8.4c0,0,9.8,6.8,21.4,13.2
				c0,0,13.9,11.2,24.8,19.2c0,0,1.3,0.8,5.4,4.5c2.1,1.9,6.8,6.8,9.8,4.9c2.3-1.5,0.9-4.4,1-6.5
				C703.7,385.9,706.9,369.6,706.7,366.6z"/>
		</g>
		<g>
			<g>
				<path class="st0" d="M686.8,364.1c0-0.1,0.2-1.7-0.7-2.6s-2.6-0.5-2.6-0.5l-0.3,0.1l0,0.3c0,0.1-0.2,1.7,0.7,2.6
					c0.9,0.9,2.6,0.5,2.6,0.5l0.3-0.1L686.8,364.1z"/>
			</g>
		</g>
	</g>
	<g>
		<rect x="505.5" y="550.2" class="st1" width="133.9" height="21.8"/>
		<text transform="matrix(1 0 0 1 505.6085 570.4131)" class="st7 st8 st9">Snack zone</text>
	</g>
	<g>
		<circle class="st7" cx="579.2" cy="475" r="54.1"/>
		<g>
			<path class="st0" d="M550.1,473.8c0,5,18.8,11.6,34.4,11.6s30.5-9.2,30.5-11.6c0-3-14.9-11.6-30.5-11.6S550.1,470.9,550.1,473.8z
				"/>
			<path class="st0" d="M556.9,473.8l-12.7,9.4c-0.5,0.4-0.9,0.2-1-0.5l1.2-7.8c0.1-0.6,0.1-1.6,0-2.2l-1.2-7.8c0-0.6,0.5-0.8,1-0.5
				L556.9,473.8"/>
			<g>
				<path class="st0" d="M568.3,487.4c-0.3,0.8,0.1,1.2,0.9,1l8.7-2.7c0.8-0.2,1-1,0.6-1.7l-5.1-7.6c-0.5-0.7-1.1-0.6-1.3,0.2
					L568.3,487.4z"/>
			</g>
		</g>
	</g>
	<g>
		<rect x="363" y="536.7" class="st1" width="49" height="18.3"/>
		<text transform="matrix(1 0 0 1 363 553.4978)" class="st10"><tspan x="0" y="0" class="st7 st3 st4">1</tspan><tspan x="8.5" y="0" class="st7 st3 st4">,1</tspan><tspan x="20.7" y="0" class="st7 st3 st4">0</tspan><tspan x="32.5" y="0" class="st7 st3 st4">0</tspan><tspan x="45.6" y="0" class="st7 st3 st4">m</tspan></text>
	</g>
	<line class="st11" x1="435.7" y1="545.8" x2="450.3" y2="545.8"/>
	<line class="st5" x1="435.7" y1="238.2" x2="450.3" y2="238.2"/>
	<g>
		<rect x="363" y="228.1" class="st1" width="34" height="18.3"/>
	</g>
	<text transform="matrix(1 0 0 1 363 244.9561)" class="st10"><tspan x="0" y="0" class="st2 st3 st4">10</tspan><tspan x="19.8" y="0" class="st2 st3 st4">0</tspan><tspan x="31.6" y="0" class="st2 st3 st4">0</tspan><tspan x="44.7" y="0" class="st2 st3 st4">m</tspan></text>
</g>
<g id="marker" class="st12">
	<rect x="364" y="163" class="st13" width="428" height="512"/>
</g>
</svg>
