<?xml version="1.0" encoding="utf-8"?>
<!-- Generator: Adobe Illustrator 22.0.1, SVG Export Plug-In . SVG Version: 6.00 Build 0)  -->
<svg version="1.1" xmlns="http://www.w3.org/2000/svg" xmlns:xlink="http://www.w3.org/1999/xlink" x="0px" y="0px"
	 viewBox="0 0 1160 768" style="enable-background:new 0 0 1160 768;" xml:space="preserve" preserveAspectRatio="xMidYMid slice"  width="100%">
<style type="text/css">
	.st0{fill:#0C2340;}
	.st1{fill:none;}
	.st2{fill:#F05B72;}
	.st3{font-family:'Elysio-Regular';}
	.st4{font-size:22px;}
	.st5{fill:#FFFFFF;}
	.st6{font-family:'Akkurat';}
	.st7{font-size:28px;}
	.st8{fill:#9EA7B3;}
	.st9{fill:#CED3D9;}
	.st10{fill:none;stroke:#F05B72;stroke-width:2;stroke-miterlimit:10;}
	.st11{display:none;}
	.st12{display:inline;opacity:0.46;fill:#F05B72;}
</style>
<g id="Layer_1">
	<rect x="-8.8" y="-15.3" class="st0" width="1176" height="805.3"/>
</g>
<g id="Layer_2">
	<rect x="-8.8" y="393" class="st0" width="1176" height="397"/>
	<g>
		<rect x="363" y="412.7" class="st1" width="63.5" height="18.3"/>
		<text transform="matrix(1 0 0 1 363 429.4978)" class="st2 st3 st4">200m</text>
	</g>
	<g>
		<rect x="545.6" y="530.2" class="st1" width="139.3" height="21.8"/>
		<text transform="matrix(1 0 0 1 557.9917 550.4131)" class="st5 st6 st7">pressure</text>
	</g>
	<g>
		
			<rect x="751.2" y="359" transform="matrix(-1.836970e-16 1 -1 -1.836970e-16 1127.6206 -394.5812)" class="st8" width="19.8" height="15"/>
		<polygon class="st8" points="736.5,366.5 755.8,349.6 755.8,383.4 		"/>
	</g>
	<g>
		
			<rect x="456.8" y="358.8" transform="matrix(6.123234e-17 -1 1 6.123234e-17 100.1624 833.2018)" class="st8" width="19.8" height="15.4"/>
		<polygon class="st8" points="491,366.5 471.8,383.4 471.8,349.6 		"/>
	</g>
	<g>
		
			<rect x="708.1" y="206" transform="matrix(0.7071 0.7071 -0.7071 0.7071 361.5213 -445.0912)" class="st8" width="19.8" height="15.8"/>
		<polygon class="st8" points="701,230.9 702.6,205.4 726.5,229.3 		"/>
	</g>
	<g>
		
			<rect x="497.2" y="512.8" transform="matrix(-0.7071 -0.7071 0.7071 -0.7071 498.0407 1245.9358)" class="st8" width="19.8" height="14"/>
		<polygon class="st8" points="524.8,502.1 523.1,527.6 499.2,503.8 		"/>
	</g>
	<g>
		
			<rect x="708.2" y="511.5" transform="matrix(-0.7071 0.7071 -0.7071 -0.7071 1593.0652 378.6628)" class="st8" width="19.8" height="15.6"/>
		<polygon class="st8" points="701,502.1 726.5,503.8 702.6,527.6 		"/>
	</g>
	<g>
		
			<rect x="497.2" y="206.2" transform="matrix(0.7071 -0.7071 0.7071 0.7071 -2.2536 420.9975)" class="st8" width="19.8" height="14"/>
		<polygon class="st8" points="524.8,230.9 499.2,229.3 523.1,205.4 		"/>
	</g>
	<path class="st9" d="M727.8,409.6c-0.1-1.2-0.3-2.4-0.4-3.5c-2.1-21.2-6.9-43.6-14.2-66.4c-13.4-42.1-19.7-58.7-42.4-93.8
		c-1.6-2.3-3.7-4.6-5.5-6.1c-1.7-1.4-4.4-0.8-5.2,1.3c-0.1,0.2-0.1,0.3-0.2,0.5l0,0.1l-0.1,0.1c-1.3,3.2-2.7,6.7-4,10.3l-1.8,4.9
		c-0.9,2.5-4.2,3-5.8,0.9l-3.2-4.1c-9.8-12.6-15.6-22.2-17.8-29.1c-0.1-0.4-2.8-9-3.4-29.5v-11.4c-2.6-0.5-5.8-0.7-9.3-0.7
		c-3.5,0-6.7,0.3-9.3,0.7v8.8c0,0.1,0,0.2,0,0.3c-0.5,22.2-3.3,31.4-3.4,31.9c-2.3,7.3-8.9,17.8-19.6,31.3l-3.2,4.1
		c-1.6,2.1-4.9,1.5-5.7-0.9l-1.8-4.9c-1.6-4.4-3.2-8.6-4.8-12.4l-0.1-0.1l0-0.1c-0.1-0.2-0.1-0.3-0.2-0.5c-0.8-2.1-3.5-2.7-5.2-1.3
		c-1.8,1.5-4,3.8-5.5,6.1c-22.7,35.1-28.9,51.7-42.4,93.8c-7.3,22.9-12.1,45.2-14.2,66.4c-0.1,1.1-0.2,2.3-0.4,3.5
		c-1.4,13.6-4.7,45.4,3.6,54.4c2.9,3.1,6.6,5.2,9.3,5.2c0.6,0,1.1-0.1,1.6-0.3c1.9-0.9,4-3,6-5c18.1-17.9,36.7-35.9,54.7-53.3
		l9.8-9.5c0.1-0.1,0.2-0.2,0.3-0.4c2.3-3.1,15.1-21.2,9.5-47.4l-0.1-0.3l0-0.3c0-0.4-4.4-38.6-15-76.7l-0.4-1.6
		c-0.3-1.1,0-2.3,0.8-3.2l1.1-1.2c11.8-12.3,22.9-19.9,33.1-22.5l0.7-0.2c0.6-0.1,1.1-0.1,1.7,0l0.7,0.2c9.6,2.5,20,9.4,31,20.4
		l1.2,1.2c0.9,0.9,1.2,2.1,0.8,3.3l-0.5,1.6c-11,38.8-15.5,78.2-15.6,78.6l0,0.3l-0.1,0.3c-5.6,26.2,7.2,44.4,9.5,47.4
		c0.1,0.1,0.2,0.3,0.3,0.4l9.7,9.4c18,17.4,36.6,35.4,54.7,53.4c2,2,4.1,4.1,6,5c0.5,0.2,1,0.3,1.6,0.3c0,0,0,0,0,0
		c2.7,0,6.4-2.1,9.2-5.1C732.6,455,729.3,423.2,727.8,409.6z"/>
	<line class="st10" x1="423.7" y1="421.8" x2="438.3" y2="421.8"/>
</g>
<g id="marker" class="st11">
	<rect x="364" y="163" class="st12" width="428" height="512"/>
</g>
</svg>
