<?xml version="1.0" encoding="utf-8"?>
<!-- Generator: Adobe Illustrator 22.0.1, SVG Export Plug-In . SVG Version: 6.00 Build 0)  -->
<svg version="1.1" xmlns="http://www.w3.org/2000/svg" xmlns:xlink="http://www.w3.org/1999/xlink" x="0px" y="0px"
	 viewBox="0 0 1160 768" style="enable-background:new 0 0 1160 768;" xml:space="preserve" preserveAspectRatio="xMidYMid slice"  width="100%">
	    <defs>
                  <style type="text/css">
                  	 @font-face {
                  				font-family: 'Elysio-Regular';
                                     src: url('type_dynamic_-_elysio-webfont.eot');
                                     src: url('type_dynamic_-_elysio-webfont.eot?#iefix') format('embedded-opentype'),
                                     url('type_dynamic_-_elysio-webfont.woff2') format('woff2'),
                                     url('type_dynamic_-_elysio-webfont.woff') format('woff'),
                                     url('type_dynamic_-_elysio-webfont.ttf') format('truetype'),
                                     url('type_dynamic_-_elysio-webfont.svg#elysioregular') format('svg');
                                     font-weight: normal;
                                     font-style: normal;
                  		        }
                  	 </style>
                 </defs>
<style type="text/css">
	.st0{fill:#0C2340;}
	.st1{fill:none;}
	.st2{fill:#FFFFFF;}
	.st3{font-family:'Elysio-Regular';}
	.st4{font-size:22px;}
	.st5{fill:none;stroke:#FFFFFF;stroke-width:2;stroke-miterlimit:10;}
	.st6{fill:#CED3D9;}
	.st7{fill:#F05B72;}
	.st8{font-family:'Elysio-Regular';}
	.st9{font-size:28px;}
	.st10{enable-background:new    ;}
	.st11{fill:none;stroke:#F05B72;stroke-width:2;stroke-miterlimit:10;}
	.st12{fill:#EA516D;}
	.st13{fill:#3D4F66;}
	.st14{display:none;}
	.st15{display:inline;opacity:0.46;fill:#F05B72;}
</style>
<g id="Layer_1">
	<rect x="-8.8" y="-15.3" class="st0" width="1176" height="805.3"/>
	<g>
		<rect x="363" y="536.7" class="st1" width="49" height="18.3"/>
		<text transform="matrix(1 0 0 1 363 553.4978)" class="st2 st3 st4">100m</text>
	</g>
	<line class="st5" x1="423.7" y1="545.8" x2="438.3" y2="545.8"/>
</g>
<g id="Layer_2">
	<rect x="-8.8" y="393" class="st0" width="1176" height="397"/>
	<g>
		<g>
			<path class="st6" d="M706.7,356.6c-0.2-2.7-0.6-5.7-2.2-8c-0.9-1.4-2.1-2.3-3.3-3.4c-1.4-1.4-1.7-4-2.4-5.9c0,0,0-0.1,0-0.1
				c-2.6-7.4-6.3-14.3-10-21.3c-3.6-6.7-7.6-13.3-11.8-19.7c-8.4-12.7-17.9-24.8-28.8-35.4c0,0-26.8-28.7-53.8-44.5
				c0,0-3.8-2.4-4.7-8.1c-0.3-1.6-0.8-3.3-1.4-4.8c-0.6-1.5-1.3-3-2.4-4.2c-0.5-0.6-1.1-1.2-1.8-1.7c-0.6-0.4-1.4-1.1-2.2-1.1
				c-0.8,0-0.9,0.9-0.7,1.5c0.4,1.1,0.7,2.3,0.1,3.4c-0.3,0.6-0.7,1.1-1.2,1.6c-0.6,0.6-2.5,2.7-2.9,3c-0.9,0.4-2,0.1-2.8-0.2
				c0,0-18.4-6.5-27.4-9.4c0,0-23.5-6.6-38-9.2c-1.7-0.3-3.4-0.5-5.1-0.7c-3.5-0.4-7.1-0.6-10.6-0.4c-1,0.1-2,0.1-3,0.3
				c-1,0.1-2.1,0.5-3,0c-0.8-0.4-1.4-1.3-1.9-2c-1.2-2.2-3.8-7.7-7.7-10.4c0,0-1.4-1-0.8,0.7c0,0,0,0.2,0,0.3
				c-0.1,0.5-0.4,2.1-3.1,2.2c0,0-4.5,0.4-7,8c0,0-1.4,5-7.7,5.9c0,0-1.7,0.6-4.1,0.7c0,0-4.1-1.1-0.2,2c0,0,13.2,8.4,28.5,2.6
				c1.4-0.5,2.3,0.2,2.3,0.2s5.2,4.8,12,10.3c3.5,2.9,7.4,5.2,11.4,8.6c3.2,2.7,30.4,27.6,30.4,27.6c7.2,6.1,13,13.2,13,13.2
				c20.7,24.2,53.6,57.4,73.3,71.8c0,0,0.7,0.7-1,0.8c0,0-3.3,0-1.6,1.4c0,0,7.1,7.6,17.8,8.4c0,0,9.8,6.8,21.4,13.2
				c0,0,13.9,11.2,24.8,19.2c0,0,1.3,0.8,5.4,4.5c2.1,1.9,6.8,6.8,9.8,4.9c2.3-1.5,0.9-4.4,1-6.5
				C703.7,375.9,706.9,359.6,706.7,356.6z"/>
		</g>
		<g>
			<g>
				<path class="st0" d="M686.8,354.1c0-0.1,0.2-1.7-0.7-2.6s-2.6-0.5-2.6-0.5l-0.3,0.1l0,0.3c0,0.1-0.2,1.7,0.7,2.6
					c0.9,0.9,2.6,0.5,2.6,0.5l0.3-0.1L686.8,354.1z"/>
			</g>
		</g>
	</g>
	<g>
		<rect x="505.5" y="582.2" class="st1" width="133.9" height="21.8"/>
		<text transform="matrix(1 0 0 1 505.6085 602.4131)" class="st7 st8 st9">Snack zone</text>
	</g>
	<g>
		<circle class="st7" cx="579.2" cy="507" r="54.1"/>
		<g>
			<path class="st0" d="M550.1,505.8c0,5,18.8,11.6,34.4,11.6s30.5-9.2,30.5-11.6c0-3-14.9-11.6-30.5-11.6S550.1,502.9,550.1,505.8z
				"/>
			<path class="st0" d="M556.9,505.8l-12.7,9.4c-0.5,0.4-0.9,0.2-1-0.5l1.2-7.8c0.1-0.6,0.1-1.6,0-2.2l-1.2-7.8c0-0.6,0.5-0.8,1-0.5
				L556.9,505.8"/>
			<g>
				<path class="st0" d="M568.3,519.4c-0.3,0.8,0.1,1.2,0.9,1l8.7-2.7c0.8-0.2,1-1,0.6-1.7l-5.1-7.6c-0.5-0.7-1.1-0.6-1.3,0.2
					L568.3,519.4z"/>
			</g>
		</g>
	</g>
	<g>
		<rect x="363" y="536.7" class="st1" width="49" height="18.3"/>
		<text transform="matrix(1 0 0 1 363 553.4978)" class="st10"><tspan x="0" y="0" class="st7 st3 st4">1</tspan><tspan x="8.5" y="0" class="st7 st3 st4">,4</tspan><tspan x="24.5" y="0" class="st7 st3 st4">0</tspan><tspan x="36.3" y="0" class="st7 st3 st4">0</tspan><tspan x="49.4" y="0" class="st7 st3 st4">m</tspan></text>
	</g>
	<line class="st11" x1="437.7" y1="545.8" x2="452.3" y2="545.8"/>
	<line class="st5" x1="437.7" y1="238.2" x2="452.3" y2="238.2"/>
	<g>
		<rect x="363" y="228.1" class="st1" width="34" height="18.3"/>
	</g>
	<text transform="matrix(1 0 0 1 363 244.9561)" class="st10"><tspan x="0" y="0" class="st2 st3 st4">1</tspan><tspan x="8.5" y="0" class="st2 st3 st4">,3</tspan><tspan x="24.1" y="0" class="st2 st3 st4">0</tspan><tspan x="35.9" y="0" class="st2 st3 st4">0</tspan><tspan x="49" y="0" class="st2 st3 st4">m</tspan></text>
	<path class="st6" d="M553.1,381.5c-0.3,0.2-0.7,0.4-1,0.5c-0.5,0.2-1.1,0.4-1.7,0.5c-0.9,0.2-1.7,0.4-2.6,0.5
		c-1.3,0.2-2.5,0.4-3.8,0.5c-0.1,0-0.1,0-0.2,0c-2,0.1-3,0.6-3,0.6c-3.7,1.6-7.9,2.2-12,1.7c-1-0.1-1.9-0.3-2.9-0.5
		c-0.8-0.2-1.8-0.3-2.4,0.3c-0.4,0.3-0.6,0.7-1.2,1c-0.5,0.2-1,0.4-1.5,0.4c-0.6,0.1-1.3,0.2-2,0.1c-6.2,0.1-7.1,1.9-7.1,1.9
		c-0.1,0.8-0.7,0.9-1.4,1.1c-3.5,0.7-8.6,2.8-9.7,6.5c-0.1,0.3-0.1,0.6-0.5,0.6c-2.3,0.3-5.5-4-5.5-4c-0.8-1.1-2.9-1.1-4.1-1.1
		c-1.3,0-2.7,0.1-4,0c-0.7-0.1-1.6-0.4-1.4-1.3c0.2-0.8,0.8-1.5,1.4-2.1c2.4-2.3,5.2-4.4,6.8-7.5c0.5-1,0.9-2.1,1.2-3.3
		c0.3-1.3,0.7-2.5,1.3-3.7c0.3-0.6,0.7-1.2,1.2-1.6c1.8-1.6,3.6,1.3,4.8,2.2c3.5,2.6,8.1,3.4,12.5,2.8c1.8-0.2,3.7-0.6,5.6-0.7
		c1.6-0.1,3.2,0.2,4.7,0.8c1.1,0.4,2.2,1.1,3.3,1.5c0.4,0.1,0.7,0.2,1.1,0.3c3.3,0.6,6.4-1.2,9.7-0.7c1.6,0.2,2.6,0.7,4.6,0.3
		c2.6-0.5,3.8-0.7,3.8-0.7s1.9-0.3,3.1,0.4c0.3,0.2,0.5,0.5,0.1,0.7c-0.9,0.5-2,0-3,0.2c-0.4,0.1-0.9,0.1-1.2,0.5
		c-0.1,0.1,0,0.4,0,0.5c0.1,0.2,0.3,0.4,0.5,0.5c0.4,0.2,0.9,0.2,1.4,0.2c0.5,0,1.1,0,1.6-0.1c1-0.1,2-0.3,3-0.6
		c0.2-0.1,0.6-0.3,0.8-0.2c0.1,0.1,0.1,0.4,0,0.5C553.4,381.3,553.3,381.4,553.1,381.5z"/>
	<path class="st6" d="M640.9,426.6c-0.7-0.1-5.4-1.8-9.3-2c-4-0.2-5.4,0-5.4,0s-3-1.1-3.4-1.2c-0.4-0.1-0.5,0.2-0.4,0.6s0,1,0,1
		s-3,0.2-3.8,0.4c-0.8,0.2-0.8,0.2-0.8,0.2s-0.9-0.9-1.4-0.9s-0.6,0.5-0.7,0.7c0,0.3-0.8,0.3-1.1,0.3s-0.9,0.1-2-0.1
		c-1.1-0.1-4.7-1.8-5.5-1.6s1.3,1.1,1.2,3.3s-0.9,3-1,3.2s0.3,0.7,1.2,0.3c0.9-0.5,3-1.7,3.6-1.9c0.6-0.2,3.3-0.1,3.7,0
		c0,0-0.4,1.9,0.3,2.1s2.7-0.4,3.1-0.5c0.4-0.1,3.7,1.5,6,1.6c0,0-0.8,1.5-0.5,1.5s1.7-0.4,2.5-1.2c0,0,6.7,0,9.5-1.3
		c2.9-1.3,3.7-1.6,4.2-1.9c0.5-0.3,1.5-0.9,0.7-1c-0.8-0.1-1.1,0.2-1.5,0c-0.4-0.2,0.9-0.7,1.3-0.9
		C641.7,427.1,641.3,426.7,640.9,426.6z"/>
	<path class="st6" d="M572.9,420.6c-0.7-0.1-5.4-1.8-9.3-2c-4-0.2-5.4,0-5.4,0s-3-1.1-3.4-1.2c-0.4-0.1-0.5,0.2-0.4,0.6
		c0,0.4,0,1,0,1s-3,0.2-3.8,0.4s-0.8,0.2-0.8,0.2s-0.9-0.9-1.4-0.9c-0.5,0.1-0.6,0.5-0.7,0.7c0,0.3-0.8,0.3-1.1,0.3s-0.9,0.1-2-0.1
		s-4.7-1.8-5.5-1.6c-0.7,0.2,1.3,1.1,1.2,3.3s-0.9,3-1,3.2c-0.1,0.3,0.3,0.7,1.2,0.3c0.9-0.5,3-1.7,3.6-1.9s3.3-0.1,3.7,0
		c0,0-0.4,1.9,0.3,2.1c0.8,0.2,2.7-0.4,3.1-0.5c0.4-0.1,3.7,1.5,6,1.6c0,0-0.8,1.5-0.5,1.5s1.7-0.4,2.5-1.2c0,0,6.7,0,9.5-1.3
		c2.9-1.3,3.7-1.6,4.2-1.9s1.5-0.9,0.7-1c-0.8-0.1-1.1,0.2-1.5,0c-0.4-0.2,0.9-0.7,1.3-0.9C573.8,421,573.4,420.7,572.9,420.6z"/>
	<path class="st6" d="M643.4,390.5c-0.7-0.1-5.4-1.8-9.3-2s-5.4,0-5.4,0s-3-1.1-3.4-1.2c-0.4-0.1-0.5,0.2-0.4,0.6c0,0.4,0,1,0,1
		s-3,0.2-3.8,0.4c-0.8,0.2-0.8,0.2-0.8,0.2s-0.9-0.9-1.4-0.9c-0.5,0.1-0.6,0.5-0.7,0.7c0,0.3-0.8,0.3-1.1,0.3s-0.9,0.1-2-0.1
		c-1.1-0.1-4.7-1.8-5.5-1.6s1.3,1.1,1.2,3.3s-0.9,3-1,3.2c-0.1,0.3,0.3,0.7,1.2,0.3c0.9-0.5,3-1.7,3.6-1.9c0.6-0.2,3.3-0.1,3.7,0
		c0,0-0.4,1.9,0.3,2.1s2.7-0.4,3.1-0.5c0.4-0.1,3.7,1.5,6,1.6c0,0-0.8,1.5-0.5,1.5s1.7-0.4,2.5-1.2c0,0,6.7,0,9.5-1.3
		c2.9-1.3,3.7-1.6,4.2-1.9c0.5-0.3,1.5-0.9,0.7-1c-0.8-0.1-1.1,0.2-1.5,0s0.9-0.7,1.3-0.9C644.3,390.9,643.8,390.5,643.4,390.5z"/>
	<path class="st6" d="M591.9,346.8c-0.7-0.1-5.4-1.8-9.3-2s-5.4,0-5.4,0s-3-1.1-3.4-1.2c-0.4-0.1-0.5,0.2-0.4,0.6c0,0.4,0,1,0,1
		s-3,0.2-3.8,0.4s-0.8,0.2-0.8,0.2s-0.9-0.9-1.4-0.9s-0.6,0.5-0.7,0.7c0,0.3-0.8,0.3-1.1,0.3s-0.9,0.1-2-0.1
		c-1.1-0.1-4.7-1.8-5.5-1.6s1.3,1.1,1.2,3.3c-0.1,2.2-0.9,3-1,3.2c-0.1,0.3,0.3,0.7,1.2,0.3c0.9-0.5,3-1.7,3.6-1.9s3.3-0.1,3.7,0
		c0,0-0.4,1.9,0.3,2.1c0.8,0.2,2.7-0.4,3.1-0.5c0.4-0.1,3.7,1.5,6,1.6c0,0-0.8,1.5-0.5,1.5c0.3,0,1.7-0.4,2.5-1.2c0,0,6.7,0,9.5-1.3
		s3.7-1.6,4.2-1.9s1.5-0.9,0.7-1c-0.8-0.1-1.1,0.2-1.5,0s0.9-0.7,1.3-0.9C592.8,347.3,592.3,346.9,591.9,346.8z"/>
	<path class="st6" d="M725.4,471.3c-0.7-0.1-5.4-1.8-9.3-2s-5.4,0-5.4,0s-3-1.1-3.4-1.2c-0.4-0.1-0.5,0.2-0.4,0.6c0,0.4,0,1,0,1
		s-3,0.2-3.8,0.4c-0.8,0.2-0.8,0.2-0.8,0.2s-0.9-0.9-1.4-0.9c-0.5,0.1-0.6,0.5-0.7,0.7c0,0.3-0.8,0.3-1.1,0.3s-0.9,0.1-2-0.1
		s-4.7-1.8-5.5-1.6s1.3,1.1,1.2,3.3s-0.9,3-1,3.2c-0.1,0.3,0.3,0.7,1.2,0.3c0.9-0.5,3-1.7,3.6-1.9c0.6-0.2,3.3-0.1,3.7,0
		c0,0-0.4,1.9,0.3,2.1c0.8,0.2,2.7-0.4,3.1-0.5c0.4-0.1,3.7,1.5,6,1.6c0,0-0.8,1.5-0.5,1.5s1.7-0.4,2.5-1.2c0,0,6.7,0,9.5-1.3
		s3.7-1.6,4.2-1.9s1.5-0.9,0.7-1c-0.8-0.1-1.1,0.2-1.5,0s0.9-0.7,1.3-0.9S725.8,471.4,725.4,471.3z"/>
	<path class="st6" d="M512.1,310.8c-0.7-0.1-5.4-1.8-9.3-2s-5.4,0-5.4,0s-3-1.1-3.4-1.2c-0.4-0.1-0.5,0.2-0.4,0.6s0,1,0,1
		s-3,0.2-3.8,0.4c-0.8,0.2-0.8,0.2-0.8,0.2s-0.9-0.9-1.4-0.9c-0.5,0.1-0.6,0.5-0.7,0.7s-0.8,0.3-1.1,0.3s-0.9,0.1-2-0.1
		c-1.1-0.1-4.7-1.8-5.5-1.6c-0.7,0.2,1.3,1.1,1.2,3.3c-0.1,2.2-0.9,3-1,3.2c-0.1,0.3,0.3,0.7,1.2,0.3c0.9-0.5,3-1.7,3.6-1.9
		c0.6-0.2,3.3-0.1,3.7,0c0,0-0.4,1.9,0.3,2.1c0.8,0.2,2.7-0.4,3.1-0.5c0.4-0.1,3.7,1.5,6,1.6c0,0-0.8,1.5-0.5,1.5
		c0.3,0,1.7-0.4,2.5-1.2c0,0,6.7,0,9.5-1.3s3.7-1.6,4.2-1.9c0.5-0.3,1.5-0.9,0.7-1c-0.8-0.1-1.1,0.2-1.5,0c-0.4-0.2,0.9-0.7,1.3-0.9
		C513,311.2,512.5,310.8,512.1,310.8z"/>
	<path class="st6" d="M672.1,498.1c0,0,1.2-0.6,3.4,0c2.2,0.6,2.6,1.2,3.9,1.6s3.2,0.1,5,0.8c1.8,0.8,4.6,1.3,6.2,2.5
		c1.5,1.1,1.3,1.1,2.6,1.9c1.3,0.8,1.5,0.7,2.4,1.5s1.3,1.1,1.4,1.6c0.1,0.5,0.5,2.4-1.7,3.1c-2.2,0.7-5.6,2-6.7,2.1
		s-9.1,0.3-9.8,0.5s-2.1,1.1-2.6,0.9s-1.5-0.8-0.9-0.8s2-0.3,2.1-0.5c0.1-0.2-2.2-0.3-2.8-0.4c-0.6-0.1-2.2,0.4-2.5,0.6
		s-0.9,2.2-1.3,1.8c-0.4-0.4-0.2-1.3,0-1.8s1.5-0.9,0.9-1.1c-0.6-0.1-2.5,0.7-3.2,1c-0.8,0.3-2,0.1-2.1-0.3c-0.1-0.4,0.4-1.2,0-2
		c-0.4-0.8,0.4-1.6,0-1.8c-0.4-0.3-2.2-0.1-2.2-0.1s-3.7,0.5-5.6,2.8c-1.9,2.3-2.7,2.5-3.5,2.5s0.5-4.5,1.4-5.4
		c0.9-0.9,1.5-2.1,1.2-2.6s-1.9-4.6-2.9-5.6s-1.7-1.8-0.6-1.8c1.1,0,3.9,1.5,4.3,2c0.5,0.5,1.3,0.7,2.1,1.5c0.8,0.8,0.5,1.4,2.3,1.4
		s5.2-0.7,6.2-1.1s2.3-0.5,2.6-1.2C673,499.1,671.4,498.3,672.1,498.1z"/>
	<g>
		<g>
			<path class="st12" d="M699.5,403.9l0.6,1.3c1,2.2,2.8,4,5,5l1.3,0.6l-1.3,0.6c-2.2,1-4,2.8-5,5l-0.6,1.3l-0.6-1.3
				c-1-2.2-2.8-4-5-5l-1.3-0.6l1.3-0.6c2.2-1,4-2.8,5-5L699.5,403.9z"/>
			<path class="st12" d="M706.5,414.6l0.3,0.7c0.5,1.1,1.4,2,2.5,2.5l0.7,0.3l-0.7,0.3c-1.1,0.5-2,1.4-2.5,2.5l-0.3,0.7l-0.3-0.7
				c-0.5-1.1-1.4-2-2.5-2.5l-0.7-0.3l0.7-0.3c1.1-0.5,2-1.4,2.5-2.5L706.5,414.6z"/>
			<path class="st12" d="M692.2,414.6l0.3,0.7c0.5,1.1,1.4,2,2.5,2.5l0.7,0.3l-0.7,0.3c-1.1,0.5-2,1.4-2.5,2.5l-0.3,0.7l-0.3-0.7
				c-0.5-1.1-1.4-2-2.5-2.5l-0.7-0.3l0.7-0.3c1.1-0.5,2-1.4,2.5-2.5L692.2,414.6z"/>
		</g>
		<path class="st13" d="M712,431.3c-0.7-0.1-5.3-1.8-9.2-2s-5.3,0-5.3,0s-3-1.1-3.4-1.1s-0.5,0.2-0.4,0.5c0,0.3,0,1,0,1
			s-3,0.2-3.8,0.4c-0.8,0.1-0.8,0.1-0.8,0.1s-0.9-0.9-1.4-0.8c-0.5,0-0.6,0.4-0.7,0.7s-0.8,0.2-1,0.2c-0.2,0-0.9,0-2,0
			c-1.1-0.1-4.7-1.7-5.4-1.6s1.2,1.1,1.1,3.3c-0.1,2.2-0.9,2.9-1,3.2c-0.1,0.2,0.3,0.7,1.2,0.2c0.9-0.4,2.9-1.7,3.5-1.9
			c0.6-0.2,3.2,0,3.7,0c0,0-0.4,1.9,0.3,2.1s2.7-0.4,3.1-0.5c0.4-0.1,3.7,1.4,5.9,1.6c0,0-0.8,1.4-0.5,1.4s1.7-0.3,2.5-1.2
			c0,0,6.6,0,9.4-1.2s3.7-1.6,4.2-1.9c0.5-0.3,1.5-0.9,0.7-0.9c-0.8,0-1,0.1-1.4,0s0.9-0.6,1.2-0.9
			C712.9,431.8,712.4,431.4,712,431.3z"/>
	</g>
</g>
<g id="marker" class="st14">
	<rect x="364" y="163" class="st15" width="428" height="512"/>
</g>
</svg>
