<svg xmlns="http://www.w3.org/2000/svg" preserveAspectRatio="xMidYMid slice" viewBox="0 0 1160 768">
            <defs>
             <style type="text/css">
             	 @font-face {
             				font-family: 'Elysio-Regular';
                                src: url('type_dynamic_-_elysio-webfont.eot');
                                src: url('type_dynamic_-_elysio-webfont.eot?#iefix') format('embedded-opentype'),
                                url('type_dynamic_-_elysio-webfont.woff2') format('woff2'),
                                url('type_dynamic_-_elysio-webfont.woff') format('woff'),
                                url('type_dynamic_-_elysio-webfont.ttf') format('truetype'),
                                url('type_dynamic_-_elysio-webfont.svg#elysioregular') format('svg');
                                font-weight: normal;
                                font-style: normal;
             		        }
             	 </style>
            </defs>
  <style>
    .st1{fill:#0c2340}.st3{fill:#3d4f66}.st4{fill:none}.st6{font-family:&apos;Elysio-Regular&apos;}.st7{font-size:22px}
  </style>
  <path id="Bg" fill="#e6e9eb" d="M-6-8h1170v794H-6z"/>
  <g id="Sea">
    <path d="M1167.2 190v208.6H-8.8V190v1.3c73.5 0 73.5 22.2 147 22.2s73.5-22.2 147-22.2 73.5 22.2 147 22.2 73.5-22.2 147-22.2 73.5 22.2 147 22.2 73.5-22.2 147-22.2 73.5 22.2 147 22.2 73.5-22.2 147-22.2V190z" class="st1"/>
    <path d="M-8.8 393h1176v397H-8.8z" class="st1"/>
  </g>
  <g id="images">
    <path fill="#ced3d9" d="M721.8 210.5c-1.9-1.9-4.3-3.9-6.9-4.6-1.6-.4-3.1-.3-4.7-.5-2-.2-3.9-1.9-5.7-2.9 0 0-.1 0-.1-.1-6.9-3.9-14.2-6.7-21.6-9.5-7.2-2.7-14.5-5.1-21.9-7.2-14.7-4.2-29.8-7-45.1-7.9 0 0-39.2-4.2-70.1 1.7 0 0-4.4.7-8.9-3.1-1.3-1-2.7-1.9-4.2-2.7-1.4-.7-3-1.4-4.6-1.6-.8-.1-1.6-.2-2.4-.1-.7.1-1.8.1-2.3.6-.6.5-.1 1.2.4 1.6 1 .6 2 1.3 2.4 2.5.2.6.2 1.3.1 2 0 .8-.1 3.7-.3 4.2-.4.9-1.4 1.4-2.3 1.7 0 0-18.3 7.1-27 10.8 0 0-22.2 10.5-34.9 18-1.5.9-2.9 1.9-4.3 2.9-2.9 2-5.7 4.2-8.3 6.7-.7.7-1.4 1.4-2.1 2.2-.7.8-1.2 1.7-2.3 2-.9.2-1.9 0-2.8-.3-2.4-.9-7.9-3.4-12.7-2.8 0 0-1.7.2-.1 1.1l.2.2c.3.4 1.1 1.9-.9 3.7 0 0-3.1 3.2 0 10.7 0 0 2.2 4.7-1.9 9.5 0 0-.9 1.6-2.7 3.2 0 0-3.9 1.9 1.2 1.7 0 0 15.6-2.3 23.4-16.8.7-1.4 1.9-1.4 1.9-1.4s7.1.2 15.9-.1c4.6-.2 9-.9 14.3-.9 4.2-.1 41.2.9 41.2.9 9.5-.1 18.5 1.5 18.5 1.5 31.6 4.8 78.4 8.3 102.8 6.2 0 0 1 .1-.2 1.2 0 0-2.5 2.1-.3 2.1 0 0 10.4 1.1 19-5.4 0 0 12-1.3 24.9-4.1 0 0 17.9-.6 31.5-1.7 0 0 1.5-.2 7-.1 2.8.1 9.6.7 10.6-2.7.8-2.6-2.2-3.9-3.5-5.6.3-.2-8.1-14.7-10.2-16.8z"/>
    <path d="M667.8 156.1c.4.1.6.3.7.4.1.1.2.3.2.4 0 .1-.1.3-.2.4-.1.1-.4.3-.7.4-.4-.1-.6-.3-.7-.4-.1-.1-.2-.3-.2-.4 0-.1.1-.3.2-.4.1-.2.3-.3.7-.4zm-2.6 2.4c.4-.2.6-.2.7-.2.2 0 .2 0 .3.1 0 .1 0 .1-.1.3-.1.1-.2.3-.5.6-.4.2-.6.2-.7.2-.2 0-.2 0-.3-.1 0-.1 0-.1.1-.3.1-.2.2-.4.5-.6zm-.3-2.4c.4-.2.6-.2.8-.2.2 0 .3 0 .4.1.1.1.1.2.1.4s-.1.4-.2.8c-.4.2-.6.2-.8.2-.2 0-.3 0-.4-.1-.1-.1-.1-.2-.1-.4-.1-.2 0-.5.2-.8zm-1.2 8.6c.2-.4.4-.5.5-.6.2-.1.3-.1.4-.1.1 0 .2.1.3.3.1.2.2.4.2.8-.2.4-.4.5-.5.6-.2.1-.3.1-.4.1-.1 0-.2-.1-.3-.3-.1-.2-.2-.4-.2-.8zm1.9-4.1c.1-.4.3-.6.4-.7l.2-.2c.1 0 .1.1.1.2 0 .2.1.4 0 .8s-.3.6-.4.7l-.2.2c-.1 0-.1-.1-.1-.2v-.8zm-5.2-10.3c-.1.4-.3.6-.4.7-.1.1-.3.2-.4.2-.1 0-.3-.1-.4-.2-.1-.1-.3-.4-.4-.7.1-.4.3-.6.4-.7.1-.1.3-.2.4-.2.1 0 .3.1.4.2.2.1.3.3.4.7zm-2.4-2.5c.2.4.2.6.2.7 0 .2 0 .2-.1.3-.1 0-.1 0-.3-.1-.1-.1-.3-.2-.6-.5-.2-.4-.2-.6-.2-.7 0-.2 0-.2.1-.3.1 0 .1 0 .3.1.2 0 .4.2.6.5zm2.4-.4c.2.4.2.6.2.8 0 .2 0 .3-.1.4-.1.1-.2.1-.4.1s-.4-.1-.8-.2c-.2-.4-.2-.6-.2-.8 0-.2 0-.3.1-.4.1-.1.2-.1.4-.1s.4 0 .8.2zm-4.5.7c.4.1.6.3.7.4l.2.2c0 .1-.1.1-.2.1-.2 0-.4.1-.8 0s-.6-.3-.7-.4l-.2-.2c0-.1.1-.1.2-.1.2.1.4 0 .8 0zm28.5 17.8c.4.1.6.3.7.4.1.1.2.3.2.4 0 .1-.1.3-.2.4-.1.1-.4.3-.7.4-.4-.1-.6-.3-.7-.4-.1-.1-.2-.3-.2-.4 0-.1.1-.3.2-.4.1-.1.3-.2.7-.4zm-6.1-3.3c.1.4.1.6.1.8 0 .2-.1.3-.2.4-.1.1-.3.1-.4 0-.2-.1-.4-.2-.7-.4-.1-.4-.1-.6-.1-.8 0-.2.1-.3.2-.4.1-.1.3-.1.4 0 .2 0 .4.1.7.4zm3.6 5.7c.4-.2.6-.2.7-.2.2 0 .2 0 .3.1 0 .1 0 .1-.1.3-.1.1-.2.3-.5.6-.4.2-.6.2-.7.2-.2 0-.2 0-.3-.1 0-.1 0-.1.1-.3 0-.2.2-.3.5-.6zm-7.3-8.3c-.4.2-.6.2-.7.2-.2 0-.2 0-.3-.1 0-.1 0-.1.1-.3.1-.1.2-.3.5-.6.4-.2.6-.2.7-.2.2 0 .2 0 .3.1 0 .1 0 .1-.1.3-.1.1-.2.3-.5.6zm6.9 5.9c.4-.2.6-.2.8-.2.2 0 .3 0 .4.1.1.1.1.2.1.4s-.1.4-.2.8c-.4.2-.6.2-.8.2-.2 0-.3 0-.4-.1-.1-.1-.1-.2-.1-.4s0-.4.2-.8zm-24.9-24c.4.2.5.4.6.5.1.2.1.3.1.4 0 .1-.1.2-.3.3-.2.1-.4.2-.8.2-.4-.2-.5-.4-.6-.5-.1-.2-.1-.3-.1-.4 0-.1.1-.2.3-.3.2 0 .4-.1.8-.2zm25.7 28.5c.1-.4.3-.6.4-.7l.2-.2c.1 0 .1.1.1.2 0 .2.1.4 0 .8s-.3.6-.4.7l-.2.2c-.1 0-.1-.1-.1-.2 0-.2-.1-.4 0-.8zm-5.2-15.5c.1.4.1.6.1.8 0 .2-.1.3-.2.4-.1.1-.3.1-.4 0-.2-.1-.4-.2-.7-.4-.1-.4-.1-.6-.1-.8 0-.2.1-.3.2-.4.1-.1.3-.1.4 0 .2 0 .4.1.7.4zm.5 3.5c.4.1.6.3.7.4l.2.2c0 .1-.1.1-.2.1-.2 0-.4.1-.8 0s-.6-.3-.7-.4l-.2-.2c0-.1.1-.1.2-.1h.8zm4.5-20.7c.4-.1.6-.1.8-.1.2 0 .3.1.4.2.1.1.1.3 0 .4-.1.2-.2.4-.4.7-.4.1-.6.1-.8.1-.2 0-.3-.1-.4-.2-.1-.1-.1-.3 0-.4.1-.1.2-.3.4-.7zm-2.8 1.9c.2.4.2.6.2.7 0 .2 0 .2-.1.3-.1 0-.1 0-.3-.1-.1-.1-.3-.2-.6-.5-.2-.4-.2-.6-.2-.7 0-.2 0-.2.1-.3.1 0 .1 0 .3.1.2.1.4.2.6.5zm3.6 12.4c-.4.2-.6.2-.7.2-.2 0-.2 0-.3-.1 0-.1 0-.1.1-.3.1-.1.2-.3.5-.6.4-.2.6-.2.7-.2.2 0 .2 0 .3.1 0 .1 0 .1-.1.3-.1.1-.2.3-.5.6zm27.1-2.1c.4.2.5.4.6.5.1.2.1.3.1.4 0 .1-.1.2-.3.3-.2.1-.4.2-.8.2-.4-.2-.5-.4-.6-.5-.1-.2-.1-.3-.1-.4 0-.1.1-.2.3-.3.1-.1.4-.1.8-.2zm-3.3-.6c-.1.4-.3.6-.4.7l-.2.2c-.1 0-.1-.1-.1-.2 0-.2-.1-.4 0-.8s.3-.6.4-.7l.2-.2c.1 0 .1.1.1.2v.8zm-21.3-2.4c.1.4.1.6.1.8 0 .2-.1.3-.2.4-.1.1-.3.1-.4 0-.2-.1-.4-.2-.7-.4-.1-.4-.1-.6-.1-.8 0-.2.1-.3.2-.4.1-.1.3-.1.4 0 .2 0 .4.1.7.4zm-3.7-2.6c-.4.2-.6.2-.7.2-.2 0-.2 0-.3-.1 0-.1 0-.1.1-.3.1-.1.2-.3.5-.6.4-.2.6-.2.7-.2.2 0 .2 0 .3.1 0 .1 0 .1-.1.3-.1.2-.2.3-.5.6zm0 4.2c.4.2.5.4.6.5.1.2.1.3.1.4 0 .1-.1.2-.3.3-.2.1-.4.2-.8.2-.4-.2-.5-.4-.6-.5-.1-.2-.1-.3-.1-.4 0-.1.1-.2.3-.3.2-.1.4-.2.8-.2zm-3.3-.7c-.1.4-.3.6-.4.7l-.2.2c-.1 0-.1-.1-.1-.2 0-.2-.1-.4 0-.8s.3-.6.4-.7l.2-.2c.1 0 .1.1.1.2 0 .2.1.4 0 .8zm6.4 8.3c.4-.1.6-.1.8-.1.2 0 .3.1.4.2.1.1.1.3 0 .4-.1.2-.2.4-.4.7-.4.1-.6.1-.8.1-.2 0-.3-.1-.4-.2-.1-.1-.1-.3 0-.4.1-.2.2-.4.4-.7zm-2.7 1.9c.2.4.2.6.2.7 0 .2 0 .2-.1.3-.1 0-.1 0-.3-.1-.1-.1-.3-.2-.6-.5-.2-.4-.2-.6-.2-.7 0-.2 0-.2.1-.3.1 0 .1 0 .3.1.1 0 .3.2.6.5zm4.6 4.1c.2.4.2.6.2.8 0 .2 0 .3-.1.4-.1.1-.2.1-.4.1s-.4-.1-.8-.2c-.2-.4-.2-.6-.2-.8 0-.2 0-.3.1-.4.1-.1.2-.1.4-.1s.4 0 .8.2z" class="st3"/>
    <path d="M679.2 161.6c.4.2.5.4.6.5.1.2.1.3.1.4 0 .1-.1.2-.3.3-.2.1-.4.2-.8.2-.4-.2-.5-.4-.6-.5-.1-.2-.1-.3-.1-.4 0-.1.1-.2.3-.3.2-.1.4-.2.8-.2zm4 .4c.4.1.6.3.7.4l.2.2c0 .1-.1.1-.2.1-.2 0-.4.1-.8 0s-.6-.3-.7-.4l-.2-.2c0-.1.1-.1.2-.1h.8zm-8.5.4c-.1.4-.3.6-.4.7l-.2.2c-.1 0-.1-.1-.1-.2 0-.2-.1-.4 0-.8s.3-.6.4-.7l.2-.2c.1 0 .1.1.1.2v.8zm10-2.3c.4.1.6.3.7.4.1.1.2.3.2.4 0 .1-.1.3-.2.4-.1.1-.4.3-.7.4-.4-.1-.6-.3-.7-.4-.1-.1-.2-.3-.2-.4 0-.1.1-.3.2-.4.1-.2.3-.3.7-.4zm-25-17c.4-.1.6-.1.8-.1.2 0 .3.1.4.2.1.1.1.3 0 .4-.1.2-.2.4-.4.7-.4.1-.6.1-.8.1-.2 0-.3-.1-.4-.2-.1-.1-.1-.3 0-.4.1-.2.2-.4.4-.7zm4.3-1.6c.4-.2.6-.2.7-.2.2 0 .2 0 .3.1 0 .1 0 .1-.1.3-.1.1-.2.3-.5.6-.4.2-.6.2-.7.2-.2 0-.2 0-.3-.1 0-.1 0-.1.1-.3.1-.1.2-.3.5-.6zm-7.1 3.5c.2.4.2.6.2.7 0 .2 0 .2-.1.3-.1 0-.1 0-.3-.1-.1-.1-.3-.2-.6-.5-.2-.4-.2-.6-.2-.7 0-.2 0-.2.1-.3.1 0 .1 0 .3.1.2 0 .4.2.6.5zm23.5 12.5c.2.4.2.6.2.8 0 .2 0 .3-.1.4-.1.1-.2.1-.4.1s-.4-.1-.8-.2c-.2-.4-.2-.6-.2-.8 0-.2 0-.3.1-.4.1-.1.2-.1.4-.1s.5.1.8.2zm10.2-17.1c.2.4.2.6.2.8 0 .2 0 .3-.1.4-.1.1-.2.1-.4.1s-.4-.1-.8-.2c-.2-.4-.2-.6-.2-.8 0-.2 0-.3.1-.4.1-.1.2-.1.4-.1s.4 0 .8.2zm12.8 1.6c.2.4.2.6.2.8 0 .2 0 .3-.1.4-.1.1-.2.1-.4.1s-.4-.1-.8-.2c-.2-.4-.2-.6-.2-.8 0-.2 0-.3.1-.4.1-.1.2-.1.4-.1.2-.1.4 0 .8.2zm-7.5-.6c.4.2.5.4.6.5.1.2.1.3.1.4 0 .1-.1.2-.3.3-.2.1-.4.2-.8.2-.4-.2-.5-.4-.6-.5-.1-.2-.1-.3-.1-.4 0-.1.1-.2.3-.3.2 0 .4-.1.8-.2zm4 .4c.4.1.6.3.7.4l.2.2c0 .1-.1.1-.2.1-.2 0-.4.1-.8 0s-.6-.3-.7-.4l-.2-.2c0-.1.1-.1.2-.1h.8zm-8.5.4c-.1.4-.3.6-.4.7l-.2.2c-.1 0-.1-.1-.1-.2 0-.2-.1-.4 0-.8s.3-.6.4-.7l.2-.2c.1 0 .1.1.1.2v.8zm10-2.3c.4.1.6.3.7.4.1.1.2.3.2.4 0 .1-.1.3-.2.4-.1.1-.4.3-.7.4-.4-.1-.6-.3-.7-.4-.1-.1-.2-.3-.2-.4 0-.1.1-.3.2-.4.1-.1.3-.3.7-.4zm-7 5.3c.4-.1.6-.1.8-.1.2 0 .3.1.4.2.1.1.1.3 0 .4-.1.2-.2.4-.4.7-.4.1-.6.1-.8.1-.2 0-.3-.1-.4-.2-.1-.1-.1-.3 0-.4.1-.2.2-.4.4-.7zm4.3-1.6c.4-.2.6-.2.7-.2.2 0 .2 0 .3.1 0 .1 0 .1-.1.3-.1.1-.2.3-.5.6-.4.2-.6.2-.7.2-.2 0-.2 0-.3-.1 0-.1 0-.1.1-.3.1-.2.2-.3.5-.6zm-7.1 3.4c.2.4.2.6.2.7 0 .2 0 .2-.1.3-.1 0-.1 0-.3-.1-.1-.1-.3-.2-.6-.5-.2-.4-.2-.6-.2-.7 0-.2 0-.2.1-.3.1 0 .1 0 .3.1.2.1.4.2.6.5zm5.5-9.6c.2.4.2.6.2.8 0 .2 0 .3-.1.4-.1.1-.2.1-.4.1s-.4-.1-.8-.2c-.2-.4-.2-.6-.2-.8 0-.2 0-.3.1-.4.1-.1.2-.1.4-.1.2-.1.5 0 .8.2zm-3.4-.1c.4.1.6.3.7.4l.2.2c0 .1-.1.1-.2.1-.2 0-.4.1-.8 0s-.6-.3-.7-.4l-.2-.2c0-.1.1-.1.2-.1.2 0 .4-.1.8 0zm1.4-2c.4.1.6.3.7.4.1.1.2.3.2.4 0 .1-.1.3-.2.4-.1.1-.4.3-.7.4-.4-.1-.6-.3-.7-.4-.1-.1-.2-.3-.2-.4 0-.1.1-.3.2-.4.1-.1.3-.2.7-.4zm-2.6 3.7c.4-.2.6-.2.7-.2.2 0 .2 0 .3.1 0 .1 0 .1-.1.3-.1.1-.2.3-.5.6-.4.2-.6.2-.7.2-.2 0-.2 0-.3-.1 0-.1 0-.1.1-.3 0-.1.2-.3.5-.6zm1.7 10.1c.4.1.6.3.7.4.1.1.2.3.2.4 0 .1-.1.3-.2.4-.1.1-.4.3-.7.4-.4-.1-.6-.3-.7-.4-.1-.1-.2-.3-.2-.4 0-.1.1-.3.2-.4.1-.1.3-.2.7-.4zm-4.2-2.5c.2.4.2.6.2.8 0 .2 0 .3-.1.4-.1.1-.2.1-.4.1s-.4-.1-.8-.2c-.2-.4-.2-.6-.2-.8 0-.2 0-.3.1-.4.1-.1.2-.1.4-.1s.4 0 .8.2zm-13 10.8c.4.1.6.3.7.4l.2.2c0 .1-.1.1-.2.1-.2 0-.4.1-.8 0s-.6-.3-.7-.4l-.2-.2c0-.1.1-.1.2-.1h.8zm1.4-1.9c.4.1.6.3.7.4.1.1.2.3.2.4 0 .1-.1.3-.2.4-.1.1-.4.3-.7.4-.4-.1-.6-.3-.7-.4-.1-.1-.2-.3-.2-.4 0-.1.1-.3.2-.4.1-.1.3-.3.7-.4zm-2.7 3.7c.4-.2.6-.2.7-.2.2 0 .2 0 .3.1 0 .1 0 .1-.1.3-.1.1-.2.3-.5.6-.4.2-.6.2-.7.2-.2 0-.2 0-.3-.1 0-.1 0-.1.1-.3.1-.2.2-.3.5-.6zm41.1-6.3c-.4-.1-.6-.3-.7-.4-.1-.1-.2-.3-.2-.4 0-.1.1-.3.2-.4.1-.1.4-.3.7-.4.4.1.6.3.7.4.1.1.2.3.2.4 0 .1-.1.3-.2.4-.2.1-.4.3-.7.4zm5.6-4.9c-.4.1-.6.1-.8.1-.2 0-.3-.1-.4-.2-.1-.1-.1-.3 0-.4.1-.2.2-.4.4-.7.4-.1.6-.1.8-.1.2 0 .3.1.4.2.1.1.1.3 0 .4 0 .1-.1.3-.4.7zm-3.1 2.5c-.4.2-.6.2-.7.2-.2 0-.2 0-.3-.1 0-.1 0-.1.1-.3.1-.1.2-.3.5-.6.4-.2.6-.2.7-.2.2 0 .2 0 .3.1 0 .1 0 .1-.1.3-.1.2-.2.3-.5.6zm-53.5.8c-.4.2-.6.2-.7.2-.2 0-.2 0-.3-.1 0-.1 0-.1.1-.3.1-.1.2-.3.5-.6.4-.2.6-.2.7-.2.2 0 .2 0 .3.1 0 .1 0 .1-.1.3-.1.1-.2.3-.5.6zm53.8 1.6c-.4.2-.6.2-.8.2-.2 0-.3 0-.4-.1-.1-.1-.1-.2-.1-.4s.1-.4.2-.8c.4-.2.6-.2.8-.2.2 0 .3 0 .4.1.1.1.1.2.1.4.1.2 0 .4-.2.8zm1.2-8.6c-.2.4-.4.5-.5.6-.2.1-.3.1-.4.1-.1 0-.2-.1-.3-.3-.1-.2-.2-.4-.2-.8.2-.4.4-.5.5-.6.2-.1.3-.1.4-.1.1 0 .2.1.3.3.1.1.2.3.2.8zm-1.9 4.1c-.1.4-.3.6-.4.7l-.2.2c-.1 0-.1-.1-.1-.2 0-.2-.1-.4 0-.8s.3-.6.4-.7l.2-.2c.1 0 .1.1.1.2v.8zm-54.3 6.8c.4.1.6.3.7.4l.2.2c0 .1-.1.1-.2.1-.2 0-.4.1-.8 0s-.6-.3-.7-.4l-.2-.2c0-.1.1-.1.2-.1.2 0 .4-.1.8 0zm59.8-3.5c-.4-.1-.6-.3-.7-.4-.1-.1-.2-.3-.2-.4 0-.1.1-.3.2-.4.1-.1.4-.3.7-.4.4.1.6.3.7.4.1.1.2.3.2.4 0 .1-.1.3-.2.4-.1.1-.3.3-.7.4zm-56.1-5.5c.1.4.1.6.1.8 0 .2-.1.3-.2.4-.1.1-.3.1-.4 0-.2-.1-.4-.2-.7-.4-.1-.4-.1-.6-.1-.8 0-.2.1-.3.2-.4.1-.1.3-.1.4 0 .2 0 .4.1.7.4zm2.6 3.1c.2.4.2.6.2.7 0 .2 0 .2-.1.3-.1 0-.1 0-.3-.1-.1-.1-.3-.2-.6-.5-.2-.4-.2-.6-.2-.7 0-.2 0-.2.1-.3.1 0 .1 0 .3.1.1.1.3.2.6.5zm-6.3-5.7c-.4.2-.6.2-.7.2-.2 0-.2 0-.3-.1 0-.1 0-.1.1-.3.1-.1.2-.3.5-.6.4-.2.6-.2.7-.2.2 0 .2 0 .3.1 0 .1 0 .1-.1.3-.1.2-.2.3-.5.6zm8.7 5.4c.2.4.2.6.2.8 0 .2 0 .3-.1.4-.1.1-.2.1-.4.1s-.4-.1-.8-.2c-.2-.4-.2-.6-.2-.8 0-.2 0-.3.1-.4.1-.1.2-.1.4-.1.1 0 .4 0 .8.2zm-8.7-1.2c.4.2.5.4.6.5.1.2.1.3.1.4 0 .1-.1.2-.3.3-.2.1-.4.2-.8.2-.4-.2-.5-.4-.6-.5-.1-.2-.1-.3-.1-.4 0-.1.1-.2.3-.3.2-.1.4-.2.8-.2zm4.2 1.9c.4.1.6.3.7.4l.2.2c0 .1-.1.1-.2.1-.2 0-.4.1-.8 0s-.6-.3-.7-.4l-.2-.2c0-.1.1-.1.2-.1h.8zm-7.5-2.6c-.1.4-.3.6-.4.7l-.2.2c-.1 0-.1-.1-.1-.2 0-.2-.1-.4 0-.8s.3-.6.4-.7l.2-.2c.1 0 .1.1.1.2 0 .2.1.4 0 .8zm9.5 7.7c.4.1.6.3.7.4.1.1.2.3.2.4 0 .1-.1.3-.2.4-.1.1-.4.3-.7.4-.4-.1-.6-.3-.7-.4-.1-.1-.2-.3-.2-.4 0-.1.1-.3.2-.4.1-.1.3-.3.7-.4zm-5.7 4.9c.4-.1.6-.1.8-.1.2 0 .3.1.4.2s.1.3 0 .4c-.1.2-.2.4-.4.7-.4.1-.6.1-.8.1-.2 0-.3-.1-.4-.2-.1-.1-.1-.3 0-.4.1-.1.2-.3.4-.7zm3.2-2.5c.4-.2.6-.2.7-.2.2 0 .2 0 .3.1 0 .1 0 .1-.1.3-.1.1-.2.3-.5.6-.4.2-.6.2-.7.2-.2 0-.2 0-.3-.1 0-.1 0-.1.1-.3 0-.2.2-.3.5-.6zm-.4-2.4c.4-.2.6-.2.8-.2.2 0 .3 0 .4.1.1.1.1.2.1.4s-.1.4-.2.8c-.4.2-.6.2-.8.2-.2 0-.3 0-.4-.1-.1-.1-.1-.2-.1-.4s0-.4.2-.8zm-1.2 8.6c.2-.4.4-.5.5-.6.2-.1.3-.1.4-.1.1 0 .2.1.3.3.1.2.2.4.2.8-.2.4-.4.5-.5.6-.2.1-.3.1-.4.1-.1 0-.2-.1-.3-.3 0-.1-.1-.3-.2-.8zm2-4.1c.1-.4.3-.6.4-.7l.2-.2c.1 0 .1.1.1.2 0 .2.1.4 0 .8s-.3.6-.4.7l-.2.2c-.1 0-.1-.1-.1-.2 0-.2-.1-.4 0-.8zm12.5 5.7c.4.1.6.3.7.4l.2.2c0 .1-.1.1-.2.1-.2 0-.4.1-.8 0s-.6-.3-.7-.4l-.2-.2c0-.1.1-.1.2-.1h.8zm-18.1-9c.4.1.6.3.7.4.1.1.2.3.2.4 0 .1-.1.3-.2.4-.1.1-.4.3-.7.4-.4-.1-.6-.3-.7-.4-.1-.1-.2-.3-.2-.4 0-.1.1-.3.2-.4.1-.1.4-.3.7-.4zm-6.3-8.3c.1.4.1.6.1.8 0 .2-.1.3-.2.4-.1.1-.3.1-.4 0-.2-.1-.4-.2-.7-.4-.1-.4-.1-.6-.1-.8 0-.2.1-.3.2-.4.1-.1.3-.1.4 0 .1 0 .3.1.7.4zm2.5 3.1c.2.4.2.6.2.7 0 .2 0 .2-.1.3-.1 0-.1 0-.3-.1-.1-.1-.3-.2-.6-.5-.2-.4-.2-.6-.2-.7 0-.2 0-.2.1-.3.1 0 .1 0 .3.1.2.1.3.2.6.5zm2.4-.3c.2.4.2.6.2.8 0 .2 0 .3-.1.4-.1.1-.2.1-.4.1s-.4-.1-.8-.2c-.2-.4-.2-.6-.2-.8 0-.2 0-.3.1-.4.1-.1.2-.1.4-.1.2-.1.4 0 .8.2zm-.7 10c.1-.4.3-.6.4-.7l.2-.2c.1 0 .1.1.1.2 0 .2.1.4 0 .8s-.3.6-.4.7l-.2.2c-.1 0-.1-.1-.1-.2v-.8z" class="st3"/>
    <path d="M691 138.7c.4-.1.6-.1.8-.1.2 0 .3.1.4.2.1.1.1.3 0 .4-.1.2-.2.4-.4.7-.4.1-.6.1-.8.1-.2 0-.3-.1-.4-.2-.1-.1-.1-.3 0-.4 0-.1.1-.3.4-.7zm-2.8 1.9c.2.4.2.6.2.7 0 .2 0 .2-.1.3-.1 0-.1 0-.3-.1-.1-.1-.3-.2-.6-.5-.2-.4-.2-.6-.2-.7 0-.2 0-.2.1-.3.1 0 .1 0 .3.1.2.1.3.2.6.5zm4.6 4.2c.2.4.2.6.2.8 0 .2 0 .3-.1.4-.1.1-.2.1-.4.1s-.4-.1-.8-.2c-.2-.4-.2-.6-.2-.8 0-.2 0-.3.1-.4.1-.1.2-.1.4-.1.2-.1.5 0 .8.2zm-7.4-.6c.4.2.5.4.6.5.1.2.1.3.1.4 0 .1-.1.2-.3.3-.2.1-.4.2-.8.2-.4-.2-.5-.4-.6-.5-.1-.2-.1-.3-.1-.4 0-.1.1-.2.3-.3.1 0 .3-.1.8-.2zm4 .4c.4.1.6.3.7.4l.2.2c0 .1-.1.1-.2.1-.2 0-.4.1-.8 0s-.6-.3-.7-.4l-.2-.2c0-.1.1-.1.2-.1h.8zm-8.5.4c-.1.4-.3.6-.4.7l-.2.2c-.1 0-.1-.1-.1-.2 0-.2-.1-.4 0-.8s.3-.6.4-.7l.2-.2c.1 0 .1.1.1.2v.8zm9.9-2.3c.4.1.6.3.7.4.1.1.2.3.2.4 0 .1-.1.3-.2.4-.1.1-.4.3-.7.4-.4-.1-.6-.3-.7-.4-.1-.1-.2-.3-.2-.4 0-.1.1-.3.2-.4.1-.1.3-.3.7-.4zm-6.9 5.3c.4-.1.6-.1.8-.1.2 0 .3.1.4.2.1.1.1.3 0 .4-.1.2-.2.4-.4.7-.4.1-.6.1-.8.1-.2 0-.3-.1-.4-.2-.1-.1-.1-.3 0-.4 0-.2.1-.4.4-.7zm4.3-1.6c.4-.2.6-.2.7-.2.2 0 .2 0 .3.1 0 .1 0 .1-.1.3-.1.1-.2.3-.5.6-.4.2-.6.2-.7.2-.2 0-.2 0-.3-.1 0-.1 0-.1.1-.3 0-.2.2-.3.5-.6zm-7.1 3.4c.2.4.2.6.2.7 0 .2 0 .2-.1.3-.1 0-.1 0-.3-.1-.1-.1-.3-.2-.6-.5-.2-.4-.2-.6-.2-.7 0-.2 0-.2.1-.3.1 0 .1 0 .3.1.1.1.3.2.6.5zm5.5-9.6c.2.4.2.6.2.8 0 .2 0 .3-.1.4-.1.1-.2.1-.4.1s-.4-.1-.8-.2c-.2-.4-.2-.6-.2-.8 0-.2 0-.3.1-.4.1-.1.2-.1.4-.1.2-.1.4 0 .8.2zm-7.5-.6c.4.2.5.4.6.5.1.2.1.3.1.4 0 .1-.1.2-.3.3-.2.1-.4.2-.8.2-.4-.2-.5-.4-.6-.5-.1-.2-.1-.3-.1-.4 0-.1.1-.2.3-.3.1 0 .4-.1.8-.2zm4 .5c.4.1.6.3.7.4l.2.2c0 .1-.1.1-.2.1-.2 0-.4.1-.8 0s-.6-.3-.7-.4l-.2-.2c0-.1.1-.1.2-.1.2 0 .4-.1.8 0zm-8.5.4c-.1.4-.3.6-.4.7l-.2.2c-.1 0-.1-.1-.1-.2 0-.2-.1-.4 0-.8s.3-.6.4-.7l.2-.2c.1 0 .1.1.1.2v.8zm9.9-2.4c.4.1.6.3.7.4.1.1.2.3.2.4 0 .1-.1.3-.2.4-.1.1-.4.3-.7.4-.4-.1-.6-.3-.7-.4-.1-.1-.2-.3-.2-.4 0-.1.1-.3.2-.4.1-.1.3-.2.7-.4zm-6.9 5.3c.4-.1.6-.1.8-.1.2 0 .3.1.4.2.1.1.1.3 0 .4-.1.2-.2.4-.4.7-.4.1-.6.1-.8.1-.2 0-.3-.1-.4-.2-.1-.1-.1-.3 0-.4 0-.2.1-.4.4-.7zm4.3-1.6c.4-.2.6-.2.7-.2.2 0 .2 0 .3.1 0 .1 0 .1-.1.3-.1.1-.2.3-.5.6-.4.2-.6.2-.7.2-.2 0-.2 0-.3-.1 0-.1 0-.1.1-.3.1-.2.2-.3.5-.6zm-7.1 3.5c.2.4.2.6.2.7 0 .2 0 .2-.1.3-.1 0-.1 0-.3-.1-.1-.1-.3-.2-.6-.5-.2-.4-.2-.6-.2-.7 0-.2 0-.2.1-.3.1 0 .1 0 .3.1.2 0 .3.2.6.5zm23.8 19.1c-.1.4-.3.6-.4.7-.1.1-.3.2-.4.2-.1 0-.3-.1-.4-.2-.1-.1-.3-.4-.4-.7.1-.4.3-.6.4-.7.1-.1.3-.2.4-.2.1 0 .3.1.4.2.1.1.3.3.4.7zm-4.9-5.7c.1.4.1.6.1.8 0 .2-.1.3-.2.4-.1.1-.3.1-.4 0-.2-.1-.4-.2-.7-.4-.1-.4-.1-.6-.1-.8 0-.2.1-.3.2-.4.1-.1.3-.1.4 0 .1.1.4.2.7.4zm2.5 3.2c.2.4.2.6.2.7 0 .2 0 .2-.1.3-.1 0-.1 0-.3-.1-.1-.1-.3-.2-.6-.5-.2-.4-.2-.6-.2-.7 0-.2 0-.2.1-.3.1 0 .1 0 .3.1.2 0 .4.2.6.5zm-6.3-5.8c-.4.2-.6.2-.7.2-.2 0-.2 0-.3-.1 0-.1 0-.1.1-.3.1-.1.2-.3.5-.6.4-.2.6-.2.7-.2.2 0 .2 0 .3.1 0 .1 0 .1-.1.3-.1.2-.2.4-.5.6zm8.7 5.4c.2.4.2.6.2.8 0 .2 0 .3-.1.4-.1.1-.2.1-.4.1s-.4-.1-.8-.2c-.2-.4-.2-.6-.2-.8 0-.2 0-.3.1-.4.1-.1.2-.1.4-.1s.4 0 .8.2zm-8.6-1.2c.4.2.5.4.6.5.1.2.1.3.1.4 0 .1-.1.2-.3.3-.2.1-.4.2-.8.2-.4-.2-.5-.4-.6-.5-.1-.2-.1-.3-.1-.4 0-.1.1-.2.3-.3.1-.1.4-.1.8-.2zm4.1 1.9c.4.1.6.3.7.4l.2.2c0 .1-.1.1-.2.1-.2 0-.4.1-.8 0s-.6-.3-.7-.4l-.2-.2c0-.1.1-.1.2-.1h.8zm19.6-8.8c-.1.4-.3.6-.4.7l-.2.2c-.1 0-.1-.1-.1-.2 0-.2-.1-.4 0-.8s.3-.6.4-.7l.2-.2c.1 0 .1.1.1.2 0 .2.1.4 0 .8zm-16.3 3.3c-.1.4-.3.6-.4.7-.1.1-.3.2-.4.2-.1 0-.3-.1-.4-.2-.1-.1-.3-.4-.4-.7.1-.4.3-.6.4-.7.1-.1.3-.2.4-.2.1 0 .3.1.4.2.1.1.3.3.4.7zm-4.9-5.6c.1.4.1.6.1.8 0 .2-.1.3-.2.4-.1.1-.3.1-.4 0-.2-.1-.4-.2-.7-.4-.1-.4-.1-.6-.1-.8 0-.2.1-.3.2-.4.1-.1.3-.1.4 0 .1 0 .4.1.7.4zm2.5 3.1c.2.4.2.6.2.7 0 .2 0 .2-.1.3-.1 0-.1 0-.3-.1-.1-.1-.3-.2-.6-.5-.2-.4-.2-.6-.2-.7 0-.2 0-.2.1-.3.1 0 .1 0 .3.1.2.1.4.2.6.5zm-6.3-5.7c-.4.2-.6.2-.7.2-.2 0-.2 0-.3-.1 0-.1 0-.1.1-.3.1-.1.2-.3.5-.6.4-.2.6-.2.7-.2.2 0 .2 0 .3.1 0 .1 0 .1-.1.3-.1.1-.2.3-.5.6zm8.7 5.3c.2.4.2.6.2.8 0 .2 0 .3-.1.4-.1.1-.2.1-.4.1s-.4-.1-.8-.2c-.2-.4-.2-.6-.2-.8 0-.2 0-.3.1-.4.1-.1.2-.1.4-.1s.4.1.8.2zm-8.6-1.2c.4.2.5.4.6.5.1.2.1.3.1.4 0 .1-.1.2-.3.3-.2.1-.4.2-.8.2-.4-.2-.5-.4-.6-.5-.1-.2-.1-.3-.1-.4 0-.1.1-.2.3-.3.1 0 .4-.1.8-.2zm4.1 2c.4.1.6.3.7.4l.2.2c0 .1-.1.1-.2.1-.2 0-.4.1-.8 0s-.6-.3-.7-.4l-.2-.2c0-.1.1-.1.2-.1h.8zm-7.4-2.6c-.1.4-.3.6-.4.7l-.2.2c-.1 0-.1-.1-.1-.2 0-.2-.1-.4 0-.8s.3-.6.4-.7l.2-.2c.1 0 .1.1.1.2v.8zm28.6 7.6c-.1.4-.3.6-.4.7-.1.1-.3.2-.4.2-.1 0-.3-.1-.4-.2-.1-.1-.3-.4-.4-.7.1-.4.3-.6.4-.7.1-.1.3-.2.4-.2.1 0 .3.1.4.2.1.1.2.4.4.7zm-5-5.6c.1.4.1.6.1.8 0 .2-.1.3-.2.4-.1.1-.3.1-.4 0-.2-.1-.4-.2-.7-.4-.1-.4-.1-.6-.1-.8 0-.2.1-.3.2-.4.1-.1.3-.1.4 0 .2 0 .4.1.7.4zm2.6 3.1c.2.4.2.6.2.7 0 .2 0 .2-.1.3-.1 0-.1 0-.3-.1-.1-.1-.3-.2-.6-.5-.2-.4-.2-.6-.2-.7 0-.2 0-.2.1-.3.1 0 .1 0 .3.1.2.1.3.2.6.5zm-6.3-5.7c-.4.2-.6.2-.7.2-.2 0-.2 0-.3-.1 0-.1 0-.1.1-.3.1-.1.2-.3.5-.6.4-.2.6-.2.7-.2.2 0 .2 0 .3.1 0 .1 0 .1-.1.3-.1.1-.2.3-.5.6zm8.7 5.4c.2.4.2.6.2.8 0 .2 0 .3-.1.4-.1.1-.2.1-.4.1s-.4-.1-.8-.2c-.2-.4-.2-.6-.2-.8 0-.2 0-.3.1-.4.1-.1.2-.1.4-.1.2-.1.4 0 .8.2zm-8.6-1.2c.4.2.5.4.6.5.1.2.1.3.1.4 0 .1-.1.2-.3.3-.2.1-.4.2-.8.2-.4-.2-.5-.4-.6-.5-.1-.2-.1-.3-.1-.4 0-.1.1-.2.3-.3.1-.1.3-.2.8-.2zm4.1 1.9c.4.1.6.3.7.4l.2.2c0 .1-.1.1-.2.1-.2 0-.4.1-.8 0s-.6-.3-.7-.4l-.2-.2c0-.1.1-.1.2-.1h.8zm-7.4-2.6c-.1.4-.3.6-.4.7l-.2.2c-.1 0-.1-.1-.1-.2 0-.2-.1-.4 0-.8s.3-.6.4-.7l.2-.2c.1 0 .1.1.1.2v.8zm10.7-2.9c-.1.4-.3.6-.4.7-.1.1-.3.2-.4.2-.1 0-.3-.1-.4-.2-.1-.1-.3-.4-.4-.7.1-.4.3-.6.4-.7.1-.1.3-.2.4-.2.1 0 .3.1.4.2.1.1.2.3.4.7zm-32 .5c.1.4.1.6.1.8 0 .2-.1.3-.2.4-.1.1-.3.1-.4 0-.2-.1-.4-.2-.7-.4-.1-.4-.1-.6-.1-.8 0-.2.1-.3.2-.4.1-.1.3-.1.4 0 .2.1.4.2.7.4zm29.6-3.1c.2.4.2.6.2.7 0 .2 0 .2-.1.3-.1 0-.1 0-.3-.1-.1-.1-.3-.2-.6-.5-.2-.4-.2-.6-.2-.7 0-.2 0-.2.1-.3.1 0 .1 0 .3.1.2.1.3.2.6.5zm-33.4.5c-.4.2-.6.2-.7.2-.2 0-.2 0-.3-.1 0-.1 0-.1.1-.3.1-.1.2-.3.5-.6.4-.2.6-.2.7-.2.2 0 .2 0 .3.1 0 .1 0 .1-.1.3 0 .2-.2.4-.5.6zm35.8-.8c.2.4.2.6.2.8 0 .2 0 .3-.1.4-.1.1-.2.1-.4.1s-.4-.1-.8-.2c-.2-.4-.2-.6-.2-.8 0-.2 0-.3.1-.4.1-.1.2-.1.4-.1s.4 0 .8.2zm-8.6-1.2c.4.2.5.4.6.5.1.2.1.3.1.4 0 .1-.1.2-.3.3-.2.1-.4.2-.8.2-.4-.2-.5-.4-.6-.5-.1-.2-.1-.3-.1-.4 0-.1.1-.2.3-.3.1-.1.3-.2.8-.2zm4.1 1.9c.4.1.6.3.7.4l.2.2c0 .1-.1.1-.2.1-.2 0-.4.1-.8 0s-.6-.3-.7-.4l-.2-.2c0-.1.1-.1.2-.1h.8zm-34.5 3.7c-.1.4-.3.6-.4.7l-.2.2c-.1 0-.1-.1-.1-.2 0-.2-.1-.4 0-.8s.3-.6.4-.7l.2-.2c.1 0 .1.1.1.2v.8zm19.3 16.9c.4-.1.6-.1.8-.1.2 0 .3.1.4.2.1.1.1.3 0 .4-.1.2-.2.4-.4.7-.4.1-.6.1-.8.1-.2 0-.3-.1-.4-.2-.1-.1-.1-.3 0-.4 0-.2.1-.4.4-.7zm-2.8 1.9c.2.4.2.6.2.7 0 .2 0 .2-.1.3-.1 0-.1 0-.3-.1-.1-.1-.3-.2-.6-.5-.2-.4-.2-.6-.2-.7 0-.2 0-.2.1-.3.1 0 .1 0 .3.1.1 0 .3.2.6.5zm3.5 12.3c-.4.2-.6.2-.7.2-.2 0-.2 0-.3-.1 0-.1 0-.1.1-.3.1-.1.2-.3.5-.6.4-.2.6-.2.7-.2.2 0 .2 0 .3.1 0 .1 0 .1-.1.3-.1.2-.2.4-.5.6zm.1 4.2c.4.2.5.4.6.5.1.2.1.3.1.4 0 .1-.1.2-.3.3-.2.1-.4.2-.8.2-.4-.2-.5-.4-.6-.5-.1-.2-.1-.3-.1-.4 0-.1.1-.2.3-.3.1-.1.4-.1.8-.2zm-3.3-.6c-.1.4-.3.6-.4.7l-.2.2c-.1 0-.1-.1-.1-.2 0-.2-.1-.4 0-.8s.3-.6.4-.7l.2-.2c.1 0 .1.1.1.2v.8zm5.8-8.6c.1.4.1.6.1.8 0 .2-.1.3-.2.4-.1.1-.3.1-.4 0-.2-.1-.4-.2-.7-.4-.1-.4-.1-.6-.1-.8 0-.2.1-.3.2-.4.1-.1.3-.1.4 0 .1 0 .4.1.7.4zm-3.8-2.6c-.4.2-.6.2-.7.2-.2 0-.2 0-.3-.1 0-.1 0-.1.1-.3.1-.1.2-.3.5-.6.4-.2.6-.2.7-.2.2 0 .2 0 .3.1 0 .1 0 .1-.1.3-.1.1-.2.3-.5.6zm.1 4.1c.4.2.5.4.6.5.1.2.1.3.1.4 0 .1-.1.2-.3.3-.2.1-.4.2-.8.2-.4-.2-.5-.4-.6-.5-.1-.2-.1-.3-.1-.4 0-.1.1-.2.3-.3.1 0 .4-.1.8-.2zm-3.3-.6c-.1.4-.3.6-.4.7l-.2.2c-.1 0-.1-.1-.1-.2 0-.2-.1-.4 0-.8s.3-.6.4-.7l.2-.2c.1 0 .1.1.1.2v.8zm8.7-34.7c.4.2.5.4.6.5.1.2.1.3.1.4 0 .1-.1.2-.3.3-.2.1-.4.2-.8.2-.4-.2-.5-.4-.6-.5-.1-.2-.1-.3-.1-.4 0-.1.1-.2.3-.3.2-.1.4-.2.8-.2zm-4.5.8c-.1.4-.3.6-.4.7l-.2.2c-.1 0-.1-.1-.1-.2 0-.2-.1-.4 0-.8s.3-.6.4-.7l.2-.2c.1 0 .1.1.1.2v.8zm3 2.9c.4-.1.6-.1.8-.1.2 0 .3.1.4.2.1.1.1.3 0 .4-.1.2-.2.4-.4.7-.4.1-.6.1-.8.1-.2 0-.3-.1-.4-.2-.1-.1-.1-.3 0-.4 0-.1.1-.3.4-.7zm-2.8 1.9c.2.4.2.6.2.7 0 .2 0 .2-.1.3-.1 0-.1 0-.3-.1-.1-.1-.3-.2-.6-.5-.2-.4-.2-.6-.2-.7 0-.2 0-.2.1-.3.1 0 .1 0 .3.1.2.1.3.2.6.5zm5.5-9.7c.2.4.2.6.2.8 0 .2 0 .3-.1.4-.1.1-.2.1-.4.1s-.4-.1-.8-.2c-.2-.4-.2-.6-.2-.8 0-.2 0-.3.1-.4.1-.1.2-.1.4-.1s.4.1.8.2zm-7.5-.5c.4.2.5.4.6.5.1.2.1.3.1.4 0 .1-.1.2-.3.3-.2.1-.4.2-.8.2-.4-.2-.5-.4-.6-.5-.1-.2-.1-.3-.1-.4 0-.1.1-.2.3-.3.2-.1.4-.1.8-.2zm4 .4c.4.1.6.3.7.4l.2.2c0 .1-.1.1-.2.1-.2 0-.4.1-.8 0s-.6-.3-.7-.4l-.2-.2c0-.1.1-.1.2-.1h.8zm-8.5.4c-.1.4-.3.6-.4.7l-.2.2c-.1 0-.1-.1-.1-.2 0-.2-.1-.4 0-.8s.3-.6.4-.7l.2-.2c.1 0 .1.1.1.2v.8zm10-2.3c.4.1.6.3.7.4.1.1.2.3.2.4 0 .1-.1.3-.2.4-.1.1-.4.3-.7.4-.4-.1-.6-.3-.7-.4-.1-.1-.2-.3-.2-.4 0-.1.1-.3.2-.4.1-.1.3-.3.7-.4z" class="st3"/>
    <path d="M690.4 145c.4-.1.6-.1.8-.1.2 0 .3.1.4.2.1.1.1.3 0 .4-.1.2-.2.4-.4.7-.4.1-.6.1-.8.1-.2 0-.3-.1-.4-.2-.1-.1-.1-.3 0-.4.1-.2.2-.4.4-.7zm4.3-1.6c.4-.2.6-.2.7-.2.2 0 .2 0 .3.1 0 .1 0 .1-.1.3-.1.1-.2.3-.5.6-.4.2-.6.2-.7.2-.2 0-.2 0-.3-.1 0-.1 0-.1.1-.3.1-.2.2-.3.5-.6zm-7.1 3.4c.2.4.2.6.2.7 0 .2 0 .2-.1.3-.1 0-.1 0-.3-.1-.1-.1-.3-.2-.6-.5-.2-.4-.2-.6-.2-.7 0-.2 0-.2.1-.3.1 0 .1 0 .3.1.2.1.4.2.6.5zm11.9 14.4c-.1.4-.3.6-.4.7l-.2.2c-.1 0-.1-.1-.1-.2 0-.2-.1-.4 0-.8s.3-.6.4-.7l.2-.2c.1 0 .1.1.1.2v.8zm-1.2-7.6c-.1.4-.3.6-.4.7l-.2.2c-.1 0-.1-.1-.1-.2 0-.2-.1-.4 0-.8s.3-.6.4-.7l.2-.2c.1 0 .1.1.1.2v.8zm1.6 13.8c-.1.4-.3.6-.4.7-.1.1-.3.2-.4.2-.1 0-.3-.1-.4-.2-.1-.1-.3-.4-.4-.7.1-.4.3-.6.4-.7.1-.1.3-.2.4-.2.1 0 .3.1.4.2.1.2.2.4.4.7zm-5-5.6c.1.4.1.6.1.8 0 .2-.1.3-.2.4-.1.1-.3.1-.4 0-.2-.1-.4-.2-.7-.4-.1-.4-.1-.6-.1-.8 0-.2.1-.3.2-.4.1-.1.3-.1.4 0 .2 0 .4.1.7.4zm2.6 3.1c.2.4.2.6.2.7 0 .2 0 .2-.1.3-.1 0-.1 0-.3-.1-.1-.1-.3-.2-.6-.5-.2-.4-.2-.6-.2-.7 0-.2 0-.2.1-.3.1 0 .1 0 .3.1.2.1.3.2.6.5zm-6.3-5.7c-.4.2-.6.2-.7.2-.2 0-.2 0-.3-.1 0-.1 0-.1.1-.3.1-.1.2-.3.5-.6.4-.2.6-.2.7-.2.2 0 .2 0 .3.1 0 .1 0 .1-.1.3-.1.1-.2.3-.5.6zm8.7 5.4c.2.4.2.6.2.8 0 .2 0 .3-.1.4-.1.1-.2.1-.4.1s-.4-.1-.8-.2c-.2-.4-.2-.6-.2-.8 0-.2 0-.3.1-.4.1-.1.2-.1.4-.1.2-.1.4 0 .8.2zm-8.7-1.2c.4.2.5.4.6.5.1.2.1.3.1.4 0 .1-.1.2-.3.3-.2.1-.4.2-.8.2-.4-.2-.5-.4-.6-.5-.1-.2-.1-.3-.1-.4 0-.1.1-.2.3-.3.2-.1.4-.2.8-.2zm4.2 1.9c.4.1.6.3.7.4l.2.2c0 .1-.1.1-.2.1-.2 0-.4.1-.8 0s-.6-.3-.7-.4l-.2-.2c0-.1.1-.1.2-.1h.8zm19.6-8.8c-.1.4-.3.6-.4.7l-.2.2c-.1 0-.1-.1-.1-.2 0-.2-.1-.4 0-.8s.3-.6.4-.7l.2-.2c.1 0 .1.1.1.2v.8zm-16.3 3.3c-.1.4-.3.6-.4.7-.1.1-.3.2-.4.2-.1 0-.3-.1-.4-.2-.1-.1-.3-.4-.4-.7.1-.4.3-.6.4-.7.1-.1.3-.2.4-.2.1 0 .3.1.4.2.1.1.2.3.4.7zm-5-5.7c.1.4.1.6.1.8 0 .2-.1.3-.2.4-.1.1-.3.1-.4 0-.2-.1-.4-.2-.7-.4-.1-.4-.1-.6-.1-.8 0-.2.1-.3.2-.4.1-.1.3-.1.4 0 .2 0 .4.1.7.4zm2.6 3.1c.2.4.2.6.2.7 0 .2 0 .2-.1.3-.1 0-.1 0-.3-.1-.1-.1-.3-.2-.6-.5-.2-.4-.2-.6-.2-.7 0-.2 0-.2.1-.3.1 0 .1 0 .3.1.2.1.3.2.6.5zm-6.3-5.7c-.4.2-.6.2-.7.2-.2 0-.2 0-.3-.1 0-.1 0-.1.1-.3.1-.1.2-.3.5-.6.4-.2.6-.2.7-.2.2 0 .2 0 .3.1 0 .1 0 .1-.1.3-.1.2-.2.3-.5.6zm8.7 5.4c.2.4.2.6.2.8 0 .2 0 .3-.1.4-.1.1-.2.1-.4.1s-.4-.1-.8-.2c-.2-.4-.2-.6-.2-.8 0-.2 0-.3.1-.4.1-.1.2-.1.4-.1s.4 0 .8.2zm-8.7-1.2c.4.2.5.4.6.5.1.2.1.3.1.4 0 .1-.1.2-.3.3-.2.1-.4.2-.8.2-.4-.2-.5-.4-.6-.5-.1-.2-.1-.3-.1-.4 0-.1.1-.2.3-.3.2-.1.4-.2.8-.2zm4.2 1.9c.4.1.6.3.7.4l.2.2c0 .1-.1.1-.2.1-.2 0-.4.1-.8 0s-.6-.3-.7-.4l-.2-.2c0-.1.1-.1.2-.1h.8zm19.6-8.8c-.1.4-.3.6-.4.7l-.2.2c-.1 0-.1-.1-.1-.2 0-.2-.1-.4 0-.8s.3-.6.4-.7l.2-.2c.1 0 .1.1.1.2v.8z" class="st3"/>
    <path d="M705.1 221.7c0-.1-1-1.4-2.2-1.5-1.3 0-2.3 1.3-2.3 1.4l-.2.2.2.2c0 .1 1 1.4 2.2 1.5 1.3 0 2.3-1.3 2.3-1.4l.2-.2-.2-.2z" class="st1"/>
    <path d="M363 228.1h34v18.3h-34z" class="st4"/>
    <text fill="#f05b72" transform="translate(363 244.9561)" class="st6 st7">
      0m
    </text>
    <path d="M363 536.7h49V555h-49z" class="st4"/>
    <text fill="#fff" transform="translate(363 553.4978)" class="st6 st7">
      100m
    </text>
    <path fill="none" stroke="#fff" stroke-miterlimit="10" stroke-width="2" d="M423.7 545.8h14.6"/>
    <path fill="none" stroke="#f05b72" stroke-miterlimit="10" stroke-width="2" d="M402.7 237.3h14.6"/>
  </g>
</svg>
